ThinItalic.ufo
<glyph name="exclam" format="2">
  <advance width="606"/>
  <unicode hex="0021"/>
  <outline>
    <contour>
      <point x="341" y="440" type="line"/>
      <point x="679" y="1400" type="line"/>
      <point x="539" y="1400" type="line"/>
      <point x="241" y="440" type="line"/>
    </contour>
    <contour>
      <point x="150" y="-30" type="curve" smooth="yes"/>
      <point x="218" y="-30"/>
      <point x="282" y="20"/>
      <point x="282" y="93" type="curve" smooth="yes"/>
      <point x="282" y="140"/>
      <point x="243" y="178"/>
      <point x="188" y="178" type="curve" smooth="yes"/>
      <point x="119" y="178"/>
      <point x="56" y="128"/>
      <point x="56" y="55" type="curve" smooth="yes"/>
      <point x="56" y="8"/>
      <point x="94" y="-30"/>
    </contour>
  </outline>
</glyph>
<glyph name="numbersign" format="2">
  <advance width="1130"/>
  <unicode hex="0023"/>
  <outline>
    <contour>
      <point x="148" y="50" type="line"/>
      <point x="232" y="393" type="line"/>
      <point x="60" y="393" type="line"/>
      <point x="94" y="539" type="line"/>
      <point x="266" y="539" type="line"/>
      <point x="342" y="859" type="line"/>
      <point x="168" y="859" type="line"/>
      <point x="204" y="1005" type="line"/>
      <point x="376" y="1005" type="line"/>
      <point x="461" y="1350" type="line"/>
      <point x="611" y="1350" type="line"/>
      <point x="527" y="1005" type="line"/>
      <point x="836" y="1005" type="line"/>
      <point x="920" y="1351" type="line"/>
      <point x="1072" y="1351" type="line"/>
      <point x="988" y="1005" type="line"/>
      <point x="1159" y="1005" type="line"/>
      <point x="1125" y="858" type="line"/>
      <point x="953" y="858" type="line"/>
      <point x="881" y="540" type="line"/>
      <point x="1052" y="540" type="line"/>
      <point x="1017" y="393" type="line"/>
      <point x="845" y="393" type="line"/>
      <point x="760" y="49" type="line"/>
      <point x="608" y="49" type="line"/>
      <point x="693" y="393" type="line"/>
      <point x="384" y="393" type="line"/>
      <point x="299" y="50" type="line"/>
    </contour>
    <contour>
      <point x="418" y="539" type="line"/>
      <point x="729" y="540" type="line"/>
      <point x="801" y="858" type="line"/>
      <point x="490" y="859" type="line"/>
    </contour>
  </outline>
</glyph>
<glyph name="dollar" format="2">
  <advance width="1296"/>
  <unicode hex="0024"/>
  <anchor x="840" y="1400" name="top"/>
  <anchor x="580" y="0" name="bottom"/>
  <outline>
    <contour>
      <point x="604" y="-30" type="qcurve"/>
      <point x="465" y="-30"/>
      <point x="212" y="53"/>
      <point x="132" y="129" type="qcurve"/>
      <point x="214" y="220" type="line"/>
      <point x="263" y="175"/>
      <point x="390" y="112"/>
      <point x="538" y="78"/>
      <point x="618" y="78" type="qcurve"/>
      <point x="783" y="78"/>
      <point x="986" y="240"/>
      <point x="986" y="378" type="qcurve"/>
      <point x="986" y="456"/>
      <point x="876" y="579"/>
      <point x="736" y="634" type="qcurve"/>
      <point x="594" y="690" type="line"/>
      <point x="455" y="746"/>
      <point x="320" y="896"/>
      <point x="320" y="1004" type="qcurve"/>
      <point x="320" y="1135"/>
      <point x="453" y="1326"/>
      <point x="676" y="1430"/>
      <point x="812" y="1430" type="qcurve"/>
      <point x="943" y="1430"/>
      <point x="1155" y="1348"/>
      <point x="1222" y="1280" type="qcurve"/>
      <point x="1140" y="1194" type="line"/>
      <point x="1077" y="1257"/>
      <point x="884" y="1326"/>
      <point x="780" y="1326" type="qcurve"/>
      <point x="679" y="1326"/>
      <point x="521" y="1252"/>
      <point x="430" y="1118"/>
      <point x="430" y="1028" type="qcurve"/>
      <point x="430" y="952"/>
      <point x="537" y="834"/>
      <point x="678" y="780" type="qcurve"/>
      <point x="832" y="720" type="line"/>
      <point x="966" y="668"/>
      <point x="1096" y="516"/>
      <point x="1096" y="406" type="qcurve"/>
      <point x="1096" y="275"/>
      <point x="973" y="79"/>
      <point x="751" y="-30"/>
    </contour>
    <contour>
      <point x="460" y="-160" type="line"/>
      <point x="824" y="1560" type="line"/>
      <point x="924" y="1560" type="line"/>
      <point x="560" y="-160" type="line"/>
    </contour>
  </outline>
</glyph>
<glyph name="percent" format="2">
  <advance width="2047"/>
  <unicode hex="0025"/>
  <outline>
    <contour>
      <point x="1752" y="1378" type="line"/>
      <point x="1698" y="1430" type="line"/>
      <point x="442" y="22" type="line"/>
      <point x="503" y="-30" type="line"/>
    </contour>
    <contour>
      <point x="602" y="710" type="curve" smooth="yes"/>
      <point x="817" y="710"/>
      <point x="1032" y="895"/>
      <point x="1032" y="1122" type="curve" smooth="yes"/>
      <point x="1032" y="1288"/>
      <point x="911" y="1420"/>
      <point x="727" y="1420" type="curve" smooth="yes"/>
      <point x="508" y="1420"/>
      <point x="294" y="1235"/>
      <point x="294" y="1010" type="curve" smooth="yes"/>
      <point x="294" y="842"/>
      <point x="417" y="710"/>
    </contour>
    <contour>
      <point x="627" y="806" type="curve" smooth="yes"/>
      <point x="480" y="806"/>
      <point x="394" y="889"/>
      <point x="394" y="1016" type="curve" smooth="yes"/>
      <point x="394" y="1193"/>
      <point x="530" y="1324"/>
      <point x="698" y="1324" type="curve" smooth="yes"/>
      <point x="844" y="1324"/>
      <point x="932" y="1244"/>
      <point x="932" y="1122" type="curve" smooth="yes"/>
      <point x="932" y="957"/>
      <point x="810" y="806"/>
    </contour>
    <contour>
      <point x="1470" y="-20" type="curve" smooth="yes"/>
      <point x="1685" y="-20"/>
      <point x="1901" y="165"/>
      <point x="1901" y="392" type="curve" smooth="yes"/>
      <point x="1901" y="558"/>
      <point x="1779" y="690"/>
      <point x="1595" y="690" type="curve" smooth="yes"/>
      <point x="1376" y="690"/>
      <point x="1162" y="505"/>
      <point x="1162" y="280" type="curve" smooth="yes"/>
      <point x="1162" y="112"/>
      <point x="1285" y="-20"/>
    </contour>
    <contour>
      <point x="1498" y="76" type="curve" smooth="yes"/>
      <point x="1351" y="76"/>
      <point x="1262" y="162"/>
      <point x="1262" y="286" type="curve" smooth="yes"/>
      <point x="1262" y="447"/>
      <point x="1392" y="594"/>
      <point x="1570" y="594" type="curve" smooth="yes"/>
      <point x="1715" y="594"/>
      <point x="1801" y="517"/>
      <point x="1801" y="395" type="curve" smooth="yes"/>
      <point x="1801" y="218"/>
      <point x="1672" y="76"/>
    </contour>
  </outline>
</glyph>
<glyph name="ampersand" format="2">
  <advance width="1486"/>
  <unicode hex="0026"/>
  <outline>
    <contour>
      <point x="506" y="-27" type="qcurve" smooth="yes"/>
      <point x="379" y="-27"/>
      <point x="189" y="61"/>
      <point x="84" y="220"/>
      <point x="84" y="328" type="qcurve" smooth="yes"/>
      <point x="84" y="443"/>
      <point x="195" y="629"/>
      <point x="383" y="761"/>
      <point x="501" y="797" type="qcurve"/>
      <point x="464" y="846"/>
      <point x="419" y="931"/>
      <point x="399" y="1010"/>
      <point x="399" y="1053" type="qcurve" smooth="yes"/>
      <point x="399" y="1162"/>
      <point x="516" y="1332"/>
      <point x="703" y="1430"/>
      <point x="811" y="1430" type="qcurve" smooth="yes"/>
      <point x="915" y="1430"/>
      <point x="1072" y="1354"/>
      <point x="1158" y="1221"/>
      <point x="1158" y="1134" type="qcurve" smooth="yes"/>
      <point x="1158" y="1001"/>
      <point x="961" y="807"/>
      <point x="767" y="739" type="qcurve"/>
      <point x="1015" y="402" type="line"/>
      <point x="1087" y="477"/>
      <point x="1219" y="676"/>
      <point x="1285" y="814" type="qcurve"/>
      <point x="1440" y="744" type="line"/>
      <point x="1400" y="661"/>
      <point x="1291" y="492"/>
      <point x="1167" y="337"/>
      <point x="1104" y="274" type="qcurve"/>
      <point x="1302" y="0" type="line"/>
      <point x="1078" y="0" type="line"/>
      <point x="966" y="152" type="line"/>
      <point x="860" y="64"/>
      <point x="623" y="-27"/>
    </contour>
    <contour>
      <point x="538" y="142" type="qcurve" smooth="yes"/>
      <point x="627" y="142"/>
      <point x="798" y="211"/>
      <point x="874" y="282" type="qcurve"/>
      <point x="588" y="675" type="line"/>
      <point x="442" y="636"/>
      <point x="276" y="461"/>
      <point x="276" y="348" type="qcurve" smooth="yes"/>
      <point x="276" y="255"/>
      <point x="417" y="142"/>
    </contour>
    <contour>
      <point x="678" y="847" type="qcurve"/>
      <point x="827" y="887"/>
      <point x="976" y="1019"/>
      <point x="976" y="1109" type="qcurve" smooth="yes"/>
      <point x="976" y="1180"/>
      <point x="877" y="1271"/>
      <point x="796" y="1271" type="qcurve" smooth="yes"/>
      <point x="706" y="1271"/>
      <point x="582" y="1156"/>
      <point x="582" y="1066" type="qcurve" smooth="yes"/>
      <point x="582" y="1017"/>
      <point x="627" y="915"/>
    </contour>
  </outline>
</glyph>
<glyph name="quotesingle" format="2">
  <advance width="420"/>
  <unicode hex="0027"/>
  <outline>
    <contour>
      <point x="427" y="992" type="line"/>
      <point x="571" y="1400" type="line"/>
      <point x="461" y="1400" type="line"/>
      <point x="337" y="992" type="line"/>
    </contour>
  </outline>
</glyph>
<glyph name="parenleft" format="2">
  <advance width="686"/>
  <unicode hex="0028"/>
  <outline>
    <contour>
      <point x="304" y="-230" type="line"/>
      <point x="253" y="-101"/>
      <point x="204" y="181"/>
      <point x="204" y="328" type="qcurve"/>
      <point x="204" y="559"/>
      <point x="320" y="1021"/>
      <point x="539" y="1441"/>
      <point x="694" y="1610" type="qcurve"/>
      <point x="774" y="1564" type="line"/>
      <point x="660" y="1447"/>
      <point x="485" y="1150"/>
      <point x="365" y="819"/>
      <point x="304" y="476"/>
      <point x="304" y="312" type="qcurve"/>
      <point x="304" y="177"/>
      <point x="348" y="-76"/>
      <point x="390" y="-190" type="qcurve"/>
    </contour>
  </outline>
</glyph>
<glyph name="parenright" format="2">
  <advance width="697"/>
  <unicode hex="0029"/>
  <outline>
    <contour>
      <point x="1" y="-230" type="line"/>
      <point x="392" y="149"/>
      <point x="627" y="718"/>
      <point x="627" y="1257" type="curve" smooth="yes"/>
      <point x="627" y="1380"/>
      <point x="623" y="1492"/>
      <point x="610" y="1610" type="curve"/>
      <point x="521" y="1571" type="line"/>
      <point x="524" y="1471"/>
      <point x="528" y="1386"/>
      <point x="528" y="1284" type="curve" smooth="yes"/>
      <point x="528" y="782"/>
      <point x="311" y="173"/>
      <point x="-79" y="-182" type="curve"/>
    </contour>
  </outline>
</glyph>
<glyph name="asterisk" format="2">
  <advance width="1069"/>
  <unicode hex="002A"/>
  <outline>
    <contour>
      <point x="698" y="957" type="line"/>
      <point x="777" y="654" type="line"/>
      <point x="888" y="687" type="line"/>
      <point x="782" y="986" type="line"/>
      <point x="1097" y="968" type="line"/>
      <point x="1099" y="1086" type="line"/>
      <point x="784" y="1076" type="line"/>
      <point x="894" y="1369" type="line"/>
      <point x="790" y="1406" type="line"/>
      <point x="699" y="1101" type="line"/>
      <point x="453" y="1299" type="line"/>
      <point x="382" y="1207" type="line"/>
      <point x="645" y="1029" type="line"/>
      <point x="383" y="856" type="line"/>
      <point x="446" y="765" type="line"/>
    </contour>
  </outline>
</glyph>
<glyph name="plus" format="2">
  <advance width="1296"/>
  <unicode hex="002B"/>
  <outline>
    <contour>
      <point x="612" y="220" type="line"/>
      <point x="743" y="616" type="line"/>
      <point x="1161" y="616" type="line"/>
      <point x="1193" y="712" type="line"/>
      <point x="775" y="712" type="line"/>
      <point x="906" y="1108" type="line"/>
      <point x="806" y="1108" type="line"/>
      <point x="675" y="712" type="line"/>
      <point x="257" y="712" type="line"/>
      <point x="225" y="616" type="line"/>
      <point x="643" y="616" type="line"/>
      <point x="512" y="220" type="line"/>
    </contour>
  </outline>
</glyph>
<glyph name="comma" format="2">
  <advance width="506"/>
  <unicode hex="002C"/>
  <outline>
    <contour>
      <point x="-97" y="-246" type="line"/>
      <point x="51" y="-193"/>
      <point x="217" y="-86"/>
      <point x="217" y="80" type="curve" smooth="yes"/>
      <point x="217" y="145"/>
      <point x="177" y="178"/>
      <point x="118" y="178" type="curve" smooth="yes"/>
      <point x="55" y="178"/>
      <point x="8" y="138"/>
      <point x="8" y="72" type="curve" smooth="yes"/>
      <point x="8" y="25"/>
      <point x="40" y="-6"/>
      <point x="96" y="-12" type="curve"/>
      <point x="66" y="-62"/>
      <point x="-11" y="-128"/>
      <point x="-131" y="-177" type="curve"/>
    </contour>
  </outline>
</glyph>
<glyph name="hyphen" format="2">
  <advance width="767"/>
  <unicode hex="002D"/>
  <outline>
    <contour>
      <point x="638" y="512" type="line"/>
      <point x="663" y="608" type="line"/>
      <point x="171" y="608" type="line"/>
      <point x="146" y="512" type="line"/>
    </contour>
  </outline>
</glyph>
<glyph name="period" format="2">
  <advance width="536"/>
  <unicode hex="002E"/>
  <outline>
    <contour>
      <point x="173" y="-30" type="qcurve" smooth="yes"/>
      <point x="115" y="-30"/>
      <point x="37" y="39"/>
      <point x="37" y="93" type="qcurve" smooth="yes"/>
      <point x="37" y="141"/>
      <point x="84" y="211"/>
      <point x="159" y="249"/>
      <point x="201" y="249" type="qcurve" smooth="yes"/>
      <point x="260" y="249"/>
      <point x="336" y="181"/>
      <point x="336" y="126" type="qcurve" smooth="yes"/>
      <point x="336" y="78"/>
      <point x="291" y="9"/>
      <point x="216" y="-30"/>
    </contour>
  </outline>
</glyph>
<glyph name="slash" format="2">
  <advance width="876"/>
  <unicode hex="002F"/>
  <outline>
    <contour>
      <point x="1216" y="1545" type="line"/>
      <point x="1135" y="1610" type="line"/>
      <point x="-196" y="-171" type="line"/>
      <point x="-111" y="-230" type="line"/>
    </contour>
  </outline>
</glyph>
<glyph name="zero" format="2">
  <advance width="1371"/>
  <unicode hex="0030"/>
  <outline>
    <contour>
      <point x="628" y="-30" type="qcurve"/>
      <point x="515" y="-30"/>
      <point x="339" y="58"/>
      <point x="218" y="214"/>
      <point x="156" y="421"/>
      <point x="156" y="540" type="qcurve"/>
      <point x="156" y="704"/>
      <point x="257" y="1021"/>
      <point x="440" y="1277"/>
      <point x="688" y="1430"/>
      <point x="836" y="1430" type="qcurve"/>
      <point x="949" y="1430"/>
      <point x="1125" y="1341"/>
      <point x="1246" y="1183"/>
      <point x="1308" y="975"/>
      <point x="1308" y="856" type="qcurve"/>
      <point x="1308" y="693"/>
      <point x="1206" y="377"/>
      <point x="1022" y="122"/>
      <point x="774" y="-30"/>
    </contour>
    <contour>
      <point x="644" y="82" type="qcurve"/>
      <point x="770" y="82"/>
      <point x="970" y="224"/>
      <point x="1110" y="456"/>
      <point x="1184" y="733"/>
      <point x="1184" y="868" type="qcurve"/>
      <point x="1184" y="1005"/>
      <point x="1098" y="1207"/>
      <point x="935" y="1318"/>
      <point x="820" y="1318" type="qcurve"/>
      <point x="695" y="1318"/>
      <point x="495" y="1177"/>
      <point x="354" y="946"/>
      <point x="280" y="670"/>
      <point x="280" y="534" type="qcurve"/>
      <point x="280" y="397"/>
      <point x="367" y="194"/>
      <point x="530" y="82"/>
    </contour>
  </outline>
</glyph>
<glyph name="one" format="2">
  <advance width="842"/>
  <unicode hex="0031"/>
  <outline>
    <contour>
      <point x="443" y="0" type="line"/>
      <point x="908" y="1400" type="line"/>
      <point x="817" y="1400" type="line"/>
      <point x="271" y="1219" type="line"/>
      <point x="301" y="1134" type="line"/>
      <point x="756" y="1282" type="line"/>
      <point x="331" y="0" type="line"/>
    </contour>
  </outline>
</glyph>
<glyph name="two" format="2">
  <advance width="1168"/>
  <unicode hex="0032"/>
  <outline>
    <contour>
      <point x="879" y="0" type="line"/>
      <point x="913" y="108" type="line"/>
      <point x="174" y="108" type="line"/>
      <point x="579" y="382" type="line"/>
      <point x="867" y="566"/>
      <point x="1170" y="786"/>
      <point x="1170" y="1100" type="curve" smooth="yes"/>
      <point x="1170" y="1304"/>
      <point x="1010" y="1430"/>
      <point x="745" y="1430" type="curve" smooth="yes"/>
      <point x="625" y="1430"/>
      <point x="515" y="1405"/>
      <point x="415" y="1348" type="curve"/>
      <point x="440" y="1256" type="line"/>
      <point x="515" y="1300"/>
      <point x="614" y="1322"/>
      <point x="710" y="1322" type="curve" smooth="yes"/>
      <point x="929" y="1322"/>
      <point x="1053" y="1230"/>
      <point x="1053" y="1085" type="curve" smooth="yes"/>
      <point x="1053" y="819"/>
      <point x="726" y="595"/>
      <point x="445" y="406" type="curve"/>
      <point x="15" y="102" type="line"/>
      <point x="-19" y="0" type="line"/>
    </contour>
  </outline>
</glyph>
<glyph name="three" format="2">
  <advance width="1156"/>
  <unicode hex="0033"/>
  <outline>
    <contour>
      <point x="441" y="-30" type="curve" smooth="yes"/>
      <point x="740" y="-30"/>
      <point x="993" y="186"/>
      <point x="993" y="480" type="curve" smooth="yes"/>
      <point x="993" y="682"/>
      <point x="811" y="797"/>
      <point x="569" y="818" type="curve"/>
      <point x="1220" y="1303" type="line"/>
      <point x="1251" y="1400" type="line"/>
      <point x="401" y="1400" type="line"/>
      <point x="367" y="1292" type="line"/>
      <point x="1041" y="1292" type="line"/>
      <point x="378" y="789" type="line"/>
      <point x="389" y="722" type="line"/>
      <point x="418" y="724"/>
      <point x="449" y="724"/>
      <point x="475" y="724" type="curve" smooth="yes"/>
      <point x="719" y="724"/>
      <point x="866" y="625"/>
      <point x="866" y="464" type="curve" smooth="yes"/>
      <point x="866" y="233"/>
      <point x="686" y="82"/>
      <point x="454" y="82" type="curve" smooth="yes"/>
      <point x="313" y="82"/>
      <point x="164" y="134"/>
      <point x="64" y="231" type="curve"/>
      <point x="-15" y="132" type="line"/>
      <point x="75" y="39"/>
      <point x="260" y="-30"/>
    </contour>
  </outline>
</glyph>
<glyph name="four" format="2">
  <advance width="1203"/>
  <unicode hex="0034"/>
  <outline>
    <contour>
      <point x="637" y="0" type="line"/>
      <point x="698" y="292" type="line"/>
      <point x="-4" y="292" type="line"/>
      <point x="28" y="447" type="line"/>
      <point x="738" y="1400" type="line"/>
      <point x="955" y="1400" type="line"/>
      <point x="253" y="463" type="line"/>
      <point x="734" y="463" type="line"/>
      <point x="802" y="781" type="line"/>
      <point x="978" y="781" type="line"/>
      <point x="911" y="463" type="line"/>
      <point x="1133" y="463" type="line"/>
      <point x="1097" y="292" type="line"/>
      <point x="875" y="292" type="line"/>
      <point x="813" y="0" type="line"/>
    </contour>
  </outline>
</glyph>
<glyph name="five" format="2">
  <advance width="1163"/>
  <unicode hex="0035"/>
  <outline>
    <contour>
      <point x="471" y="-30" type="qcurve" smooth="yes"/>
      <point x="333" y="-30"/>
      <point x="81" y="59"/>
      <point x="10" y="128" type="qcurve"/>
      <point x="107" y="287" type="line"/>
      <point x="174" y="221"/>
      <point x="377" y="149"/>
      <point x="480" y="149" type="qcurve" smooth="yes"/>
      <point x="584" y="149"/>
      <point x="742" y="228"/>
      <point x="830" y="370"/>
      <point x="830" y="464" type="qcurve" smooth="yes"/>
      <point x="830" y="539"/>
      <point x="749" y="648"/>
      <point x="604" y="707"/>
      <point x="510" y="707" type="qcurve" smooth="yes"/>
      <point x="455" y="707"/>
      <point x="335" y="686"/>
      <point x="272" y="663" type="qcurve"/>
      <point x="219" y="738" type="line"/>
      <point x="431" y="1397" type="line"/>
      <point x="1196" y="1399" type="line"/>
      <point x="1158" y="1221" type="line"/>
      <point x="539" y="1221" type="line"/>
      <point x="416" y="846" type="line"/>
      <point x="458" y="858"/>
      <point x="540" y="870"/>
      <point x="579" y="870" type="qcurve" smooth="yes"/>
      <point x="710" y="870"/>
      <point x="914" y="777"/>
      <point x="1030" y="603"/>
      <point x="1030" y="482" type="qcurve" smooth="yes"/>
      <point x="1030" y="331"/>
      <point x="882" y="100"/>
      <point x="629" y="-30"/>
    </contour>
  </outline>
</glyph>
<glyph name="six" format="2">
  <advance width="1279"/>
  <unicode hex="0036"/>
  <outline>
    <contour>
      <point x="629" y="-30" type="qcurve" smooth="yes"/>
      <point x="477" y="-30"/>
      <point x="256" y="92"/>
      <point x="136" y="320"/>
      <point x="136" y="477" type="qcurve" smooth="yes"/>
      <point x="136" y="702"/>
      <point x="311" y="1072"/>
      <point x="620" y="1330"/>
      <point x="1026" y="1448"/>
      <point x="1257" y="1422" type="qcurve"/>
      <point x="1221" y="1244" type="line"/>
      <point x="1070" y="1262"/>
      <point x="796" y="1209"/>
      <point x="569" y="1077"/>
      <point x="407" y="872"/>
      <point x="368" y="737" type="qcurve"/>
      <point x="438" y="814"/>
      <point x="634" y="902"/>
      <point x="743" y="902" type="qcurve" smooth="yes"/>
      <point x="868" y="902"/>
      <point x="1070" y="802"/>
      <point x="1187" y="620"/>
      <point x="1187" y="498" type="qcurve" smooth="yes"/>
      <point x="1187" y="386"/>
      <point x="1100" y="194"/>
      <point x="946" y="51"/>
      <point x="744" y="-30"/>
    </contour>
    <contour>
      <point x="639" y="145" type="qcurve" smooth="yes"/>
      <point x="736" y="145"/>
      <point x="893" y="229"/>
      <point x="985" y="373"/>
      <point x="985" y="461" type="qcurve" smooth="yes"/>
      <point x="985" y="537"/>
      <point x="907" y="659"/>
      <point x="769" y="730"/>
      <point x="679" y="730" type="qcurve" smooth="yes"/>
      <point x="584" y="730"/>
      <point x="425" y="648"/>
      <point x="329" y="505"/>
      <point x="329" y="414" type="qcurve" smooth="yes"/>
      <point x="329" y="336"/>
      <point x="405" y="214"/>
      <point x="545" y="145"/>
    </contour>
  </outline>
</glyph>
<glyph name="seven" format="2">
  <advance width="1076"/>
  <unicode hex="0037"/>
  <outline>
    <contour>
      <point x="186" y="0" type="line"/>
      <point x="1243" y="1306" type="line"/>
      <point x="1274" y="1400" type="line"/>
      <point x="420" y="1400" type="line"/>
      <point x="386" y="1292" type="line"/>
      <point x="1097" y="1292" type="line"/>
      <point x="44" y="0" type="line"/>
    </contour>
  </outline>
</glyph>
<glyph name="eight" format="2">
  <advance width="1242"/>
  <unicode hex="0038"/>
  <outline>
    <contour>
      <point x="559" y="-30" type="curve" smooth="yes"/>
      <point x="837" y="-30"/>
      <point x="1081" y="156"/>
      <point x="1081" y="420" type="curve" smooth="yes"/>
      <point x="1081" y="555"/>
      <point x="1007" y="649"/>
      <point x="885" y="716" type="curve"/>
      <point x="1063" y="762"/>
      <point x="1219" y="898"/>
      <point x="1219" y="1093" type="curve" smooth="yes"/>
      <point x="1219" y="1273"/>
      <point x="1057" y="1430"/>
      <point x="807" y="1430" type="curve" smooth="yes"/>
      <point x="550" y="1430"/>
      <point x="335" y="1262"/>
      <point x="335" y="1032" type="curve" smooth="yes"/>
      <point x="335" y="913"/>
      <point x="413" y="810"/>
      <point x="495" y="766" type="curve"/>
      <point x="277" y="715"/>
      <point x="107" y="563"/>
      <point x="107" y="334" type="curve" smooth="yes"/>
      <point x="107" y="131"/>
      <point x="267" y="-30"/>
    </contour>
    <contour>
      <point x="569" y="82" type="curve" smooth="yes"/>
      <point x="383" y="82"/>
      <point x="231" y="176"/>
      <point x="231" y="342" type="curve" smooth="yes"/>
      <point x="231" y="549"/>
      <point x="391" y="680"/>
      <point x="617" y="680" type="curve" smooth="yes"/>
      <point x="814" y="680"/>
      <point x="957" y="584"/>
      <point x="957" y="415" type="curve" smooth="yes"/>
      <point x="957" y="209"/>
      <point x="786" y="82"/>
    </contour>
    <contour>
      <point x="761" y="792" type="curve" smooth="yes"/>
      <point x="577" y="792"/>
      <point x="455" y="880"/>
      <point x="455" y="1036" type="curve" smooth="yes"/>
      <point x="455" y="1197"/>
      <point x="599" y="1318"/>
      <point x="796" y="1318" type="curve" smooth="yes"/>
      <point x="984" y="1318"/>
      <point x="1099" y="1213"/>
      <point x="1099" y="1069" type="curve" smooth="yes"/>
      <point x="1099" y="896"/>
      <point x="949" y="792"/>
    </contour>
  </outline>
</glyph>
<glyph name="less" format="2">
  <advance width="1296"/>
  <unicode hex="003C"/>
  <outline>
    <contour>
      <point x="1070" y="350" type="line"/>
      <point x="395" y="656" type="line"/>
      <point x="1308" y="979" type="line"/>
      <point x="1272" y="1084" type="line"/>
      <point x="257" y="711" type="line"/>
      <point x="228" y="619" type="line"/>
      <point x="1025" y="251" type="line"/>
    </contour>
  </outline>
</glyph>
<glyph name="equal" format="2">
  <advance width="1296"/>
  <unicode hex="003D"/>
  <outline>
    <contour>
      <point x="1219" y="783" type="line"/>
      <point x="1250" y="879" type="line"/>
      <point x="314" y="879" type="line"/>
      <point x="283" y="783" type="line"/>
    </contour>
    <contour>
      <point x="1107" y="453" type="line"/>
      <point x="1138" y="549" type="line"/>
      <point x="202" y="549" type="line"/>
      <point x="171" y="453" type="line"/>
    </contour>
  </outline>
</glyph>
<glyph name="greater" format="2">
  <advance width="1296"/>
  <unicode hex="003E"/>
  <outline>
    <contour>
      <point x="1163" y="621" type="line"/>
      <point x="1191" y="713" type="line"/>
      <point x="394" y="1081" type="line"/>
      <point x="349" y="982" type="line"/>
      <point x="1025" y="677" type="line"/>
      <point x="112" y="353" type="line"/>
      <point x="148" y="248" type="line"/>
    </contour>
  </outline>
</glyph>
<glyph name="question" format="2">
  <advance width="975"/>
  <unicode hex="003F"/>
  <outline>
    <contour>
      <point x="456" y="378" type="line"/>
      <point x="495" y="599"/>
      <point x="571" y="670"/>
      <point x="732" y="760" type="curve" smooth="yes"/>
      <point x="911" y="859"/>
      <point x="1074" y="952"/>
      <point x="1074" y="1153" type="curve" smooth="yes"/>
      <point x="1074" y="1327"/>
      <point x="925" y="1430"/>
      <point x="699" y="1430" type="curve" smooth="yes"/>
      <point x="582" y="1430"/>
      <point x="475" y="1407"/>
      <point x="378" y="1356" type="curve"/>
      <point x="397" y="1249" type="line"/>
      <point x="468" y="1291"/>
      <point x="569" y="1318"/>
      <point x="675" y="1318" type="curve" smooth="yes"/>
      <point x="851" y="1318"/>
      <point x="951" y="1256"/>
      <point x="951" y="1129" type="curve" smooth="yes"/>
      <point x="951" y="986"/>
      <point x="826" y="935"/>
      <point x="668" y="848" type="curve"/>
      <point x="457" y="728"/>
      <point x="375" y="637"/>
      <point x="336" y="378" type="curve"/>
    </contour>
    <contour>
      <point x="320" y="-30" type="curve" smooth="yes"/>
      <point x="388" y="-30"/>
      <point x="452" y="20"/>
      <point x="452" y="93" type="curve" smooth="yes"/>
      <point x="452" y="143"/>
      <point x="416" y="178"/>
      <point x="360" y="178" type="curve" smooth="yes"/>
      <point x="292" y="178"/>
      <point x="225" y="131"/>
      <point x="225" y="58" type="curve" smooth="yes"/>
      <point x="225" y="8"/>
      <point x="264" y="-30"/>
    </contour>
  </outline>
</glyph>
<glyph name="at" format="2">
  <advance width="1727"/>
  <unicode hex="0040"/>
  <outline>
    <contour>
      <point x="877" y="-234" type="qcurve" smooth="yes"/>
      <point x="650" y="-234"/>
      <point x="308" y="-53"/>
      <point x="116" y="270"/>
      <point x="116" y="485" type="qcurve" smooth="yes"/>
      <point x="116" y="648"/>
      <point x="233" y="924"/>
      <point x="445" y="1128"/>
      <point x="731" y="1242"/>
      <point x="899" y="1242" type="qcurve" smooth="yes"/>
      <point x="1115" y="1242"/>
      <point x="1445" y="1072"/>
      <point x="1632" y="772"/>
      <point x="1632" y="575" type="qcurve" smooth="yes"/>
      <point x="1632" y="450"/>
      <point x="1536" y="253"/>
      <point x="1377" y="139"/>
      <point x="1280" y="139" type="qcurve" smooth="yes"/>
      <point x="1194" y="139"/>
      <point x="1089" y="213"/>
      <point x="1071" y="277" type="qcurve"/>
      <point x="1027" y="210"/>
      <point x="886" y="139"/>
      <point x="799" y="139" type="qcurve" smooth="yes"/>
      <point x="708" y="139"/>
      <point x="567" y="230"/>
      <point x="485" y="389"/>
      <point x="485" y="489" type="qcurve" smooth="yes"/>
      <point x="485" y="599"/>
      <point x="579" y="778"/>
      <point x="740" y="883"/>
      <point x="840" y="883" type="qcurve" smooth="yes"/>
      <point x="978" y="883"/>
      <point x="1072" y="777" type="qcurve"/>
      <point x="1075" y="857" type="line"/>
      <point x="1201" y="857" type="line"/>
      <point x="1178" y="411" type="line"/>
      <point x="1174" y="328"/>
      <point x="1225" y="254"/>
      <point x="1296" y="254" type="qcurve" smooth="yes"/>
      <point x="1355" y="254"/>
      <point x="1449" y="333"/>
      <point x="1504" y="477"/>
      <point x="1504" y="573" type="qcurve" smooth="yes"/>
      <point x="1504" y="736"/>
      <point x="1350" y="985"/>
      <point x="1076" y="1125"/>
      <point x="897" y="1125" type="qcurve" smooth="yes"/>
      <point x="758" y="1125"/>
      <point x="520" y="1029"/>
      <point x="343" y="856"/>
      <point x="244" y="624"/>
      <point x="244" y="487" type="qcurve" smooth="yes"/>
      <point x="244" y="308"/>
      <point x="406" y="36"/>
      <point x="695" y="-116"/>
      <point x="887" y="-116" type="qcurve" smooth="yes"/>
      <point x="980" y="-116"/>
      <point x="1163" y="-78"/>
      <point x="1322" y="-10"/>
      <point x="1378" y="36" type="qcurve"/>
      <point x="1430" y="-74" type="line"/>
      <point x="1364" y="-123"/>
      <point x="1186" y="-195"/>
      <point x="981" y="-234"/>
    </contour>
    <contour>
      <point x="821" y="269" type="qcurve" smooth="yes"/>
      <point x="924" y="269"/>
      <point x="1041" y="412"/>
      <point x="1041" y="538" type="qcurve" smooth="yes"/>
      <point x="1041" y="641"/>
      <point x="944" y="751"/>
      <point x="853" y="751" type="qcurve" smooth="yes"/>
      <point x="750" y="751"/>
      <point x="632" y="610"/>
      <point x="632" y="486" type="qcurve" smooth="yes"/>
      <point x="632" y="382"/>
      <point x="730" y="269"/>
    </contour>
  </outline>
</glyph>
<glyph name="A" format="2">
  <advance width="1324"/>
  <unicode hex="0041"/>
  <anchor x="491" y="0" name="bottom"/>
  <anchor x="1129" y="0" name="ogonek"/>
  <anchor x="953" y="1400" name="top"/>
  <anchor x="632" y="1400" name="topleft"/>
  <outline>
    <contour>
      <point x="12" y="0" type="line"/>
      <point x="289" y="384" type="line"/>
      <point x="970" y="384" type="line"/>
      <point x="1005" y="0" type="line"/>
      <point x="1129" y="0" type="line"/>
      <point x="1000" y="1400" type="line"/>
      <point x="900" y="1400" type="line"/>
      <point x="-123" y="0" type="line"/>
    </contour>
    <contour>
      <point x="896" y="1225" type="line"/>
      <point x="960" y="492" type="line"/>
      <point x="365" y="492" type="line"/>
    </contour>
  </outline>
</glyph>
<glyph name="B" format="2">
  <advance width="1229"/>
  <unicode hex="0042"/>
  <outline>
    <contour>
      <point x="584" y="0" type="line" smooth="yes"/>
      <point x="848" y="0"/>
      <point x="1065" y="189"/>
      <point x="1065" y="454" type="curve" smooth="yes"/>
      <point x="1065" y="556"/>
      <point x="1017" y="675"/>
      <point x="874" y="724" type="curve"/>
      <point x="1096" y="761"/>
      <point x="1249" y="916"/>
      <point x="1249" y="1095" type="curve" smooth="yes"/>
      <point x="1249" y="1281"/>
      <point x="1098" y="1400"/>
      <point x="840" y="1400" type="curve" smooth="yes"/>
      <point x="506" y="1400" type="line"/>
      <point x="44" y="0" type="line"/>
    </contour>
    <contour>
      <point x="382" y="670" type="line"/>
      <point x="673" y="670" type="line" smooth="yes"/>
      <point x="833" y="670"/>
      <point x="952" y="597"/>
      <point x="952" y="455" type="curve" smooth="yes"/>
      <point x="952" y="234"/>
      <point x="807" y="108"/>
      <point x="575" y="108" type="curve" smooth="yes"/>
      <point x="194" y="108" type="line"/>
    </contour>
    <contour>
      <point x="588" y="1292" type="line"/>
      <point x="795" y="1292" type="line" smooth="yes"/>
      <point x="1017" y="1292"/>
      <point x="1130" y="1219"/>
      <point x="1130" y="1087" type="curve" smooth="yes"/>
      <point x="1130" y="903"/>
      <point x="930" y="778"/>
      <point x="678" y="778" type="curve" smooth="yes"/>
      <point x="416" y="778" type="line"/>
    </contour>
  </outline>
</glyph>
<glyph name="C" format="2">
  <advance width="1392"/>
  <unicode hex="0043"/>
  <anchor x="938" y="1400" name="top"/>
  <anchor x="714" y="0" name="bottom"/>
  <outline>
    <contour>
      <point x="802" y="-30" type="qcurve"/>
      <point x="601" y="-30"/>
      <point x="311" y="122"/>
      <point x="154" y="395"/>
      <point x="154" y="578" type="qcurve"/>
      <point x="154" y="751"/>
      <point x="272" y="1058"/>
      <point x="485" y="1295"/>
      <point x="771" y="1430"/>
      <point x="938" y="1430" type="qcurve"/>
      <point x="1096" y="1430"/>
      <point x="1331" y="1342"/>
      <point x="1406" y="1262" type="qcurve"/>
      <point x="1322" y="1172" type="line"/>
      <point x="1258" y="1243"/>
      <point x="1063" y="1320"/>
      <point x="932" y="1320" type="qcurve"/>
      <point x="783" y="1320"/>
      <point x="542" y="1207"/>
      <point x="370" y="1008"/>
      <point x="278" y="745"/>
      <point x="278" y="594" type="qcurve"/>
      <point x="278" y="433"/>
      <point x="412" y="204"/>
      <point x="660" y="82"/>
      <point x="830" y="82" type="qcurve"/>
      <point x="935" y="82"/>
      <point x="1120" y="142"/>
      <point x="1204" y="202" type="qcurve"/>
      <point x="1240" y="96" type="line"/>
      <point x="1138" y="30"/>
      <point x="921" y="-30"/>
    </contour>
  </outline>
</glyph>
<glyph name="D" format="2">
  <advance width="1412"/>
  <unicode hex="0044"/>
  <anchor x="507" y="742" name="bar"/>
  <anchor x="924" y="1400" name="top"/>
  <outline>
    <contour>
      <point x="500" y="0" type="line" smooth="yes"/>
      <point x="1014" y="0"/>
      <point x="1357" y="319"/>
      <point x="1357" y="820" type="curve" smooth="yes"/>
      <point x="1357" y="1209"/>
      <point x="1055" y="1400"/>
      <point x="652" y="1400" type="curve" smooth="yes"/>
      <point x="448" y="1400" type="line"/>
      <point x="73" y="0" type="line"/>
    </contour>
    <contour>
      <point x="536" y="1292" type="line"/>
      <point x="685" y="1292" type="line" smooth="yes"/>
      <point x="1030" y="1292"/>
      <point x="1237" y="1094"/>
      <point x="1237" y="799" type="curve" smooth="yes"/>
      <point x="1237" y="417"/>
      <point x="957" y="108"/>
      <point x="558" y="108" type="curve" smooth="yes"/>
      <point x="217" y="108" type="line"/>
    </contour>
  </outline>
</glyph>
<glyph name="E" format="2">
  <advance width="1183"/>
  <unicode hex="0045"/>
  <anchor x="446" y="0" name="bottom"/>
  <anchor x="874" y="0" name="ogonek"/>
  <anchor x="908" y="1400" name="top"/>
  <anchor x="426" y="1400" name="topleft"/>
  <outline>
    <contour>
      <point x="874" y="0" type="line"/>
      <point x="908" y="108" type="line"/>
      <point x="194" y="108" type="line"/>
      <point x="388" y="688" type="line"/>
      <point x="1016" y="688" type="line"/>
      <point x="1050" y="796" type="line"/>
      <point x="422" y="796" type="line"/>
      <point x="588" y="1292" type="line"/>
      <point x="1296" y="1292" type="line"/>
      <point x="1330" y="1400" type="line"/>
      <point x="506" y="1400" type="line"/>
      <point x="44" y="0" type="line"/>
    </contour>
  </outline>
</glyph>
<glyph name="F" format="2">
  <advance width="1159"/>
  <unicode hex="0046"/>
  <outline>
    <contour>
      <point x="84" y="0" type="line"/>
      <point x="380" y="1400" type="line"/>
      <point x="1234" y="1400" type="line"/>
      <point x="1195" y="1214" type="line"/>
      <point x="544" y="1214" type="line"/>
      <point x="454" y="789" type="line"/>
      <point x="1044" y="789" type="line"/>
      <point x="1006" y="607" type="line"/>
      <point x="416" y="607" type="line"/>
      <point x="287" y="0" type="line"/>
    </contour>
  </outline>
</glyph>
<glyph name="G" format="2">
  <advance width="1513"/>
  <unicode hex="0047"/>
  <anchor x="789" y="0" name="bottom"/>
  <anchor x="1013" y="1400" name="top"/>
  <outline>
    <contour>
      <point x="846" y="-30" type="curve" smooth="yes"/>
      <point x="952" y="-30"/>
      <point x="1107" y="-9"/>
      <point x="1214" y="34" type="curve"/>
      <point x="1388" y="686" type="line"/>
      <point x="928" y="686" type="line"/>
      <point x="898" y="578" type="line"/>
      <point x="1246" y="578" type="line"/>
      <point x="1124" y="104" type="line"/>
      <point x="1064" y="89"/>
      <point x="983" y="78"/>
      <point x="893" y="78" type="curve" smooth="yes"/>
      <point x="517" y="78"/>
      <point x="290" y="272"/>
      <point x="290" y="584" type="curve" smooth="yes"/>
      <point x="290" y="984"/>
      <point x="567" y="1318"/>
      <point x="984" y="1318" type="curve" smooth="yes"/>
      <point x="1135" y="1318"/>
      <point x="1292" y="1271"/>
      <point x="1405" y="1183" type="curve"/>
      <point x="1482" y="1274" type="line"/>
      <point x="1375" y="1376"/>
      <point x="1201" y="1430"/>
      <point x="1017" y="1430" type="curve" smooth="yes"/>
      <point x="537" y="1430"/>
      <point x="170" y="1056"/>
      <point x="170" y="580" type="curve" smooth="yes"/>
      <point x="170" y="206"/>
      <point x="462" y="-30"/>
    </contour>
  </outline>
</glyph>
<glyph name="H" format="2">
  <advance width="1439"/>
  <unicode hex="0048"/>
  <anchor x="1024" y="1400" name="top"/>
  <anchor x="426" y="1400" name="topleft"/>
  <outline>
    <contour>
      <point x="160" y="0" type="line"/>
      <point x="391" y="698" type="line"/>
      <point x="1195" y="698" type="line"/>
      <point x="964" y="0" type="line"/>
      <point x="1080" y="0" type="line"/>
      <point x="1542" y="1400" type="line"/>
      <point x="1426" y="1400" type="line"/>
      <point x="1229" y="806" type="line"/>
      <point x="425" y="806" type="line"/>
      <point x="622" y="1400" type="line"/>
      <point x="506" y="1400" type="line"/>
      <point x="44" y="0" type="line"/>
    </contour>
  </outline>
</glyph>
<glyph name="I" format="2">
  <advance width="519"/>
  <unicode hex="0049"/>
  <anchor x="102" y="0" name="bottom"/>
  <anchor x="160" y="0" name="ogonek"/>
  <anchor x="564" y="1400" name="top"/>
  <anchor x="426" y="1400" name="topleft"/>
  <outline>
    <contour>
      <point x="160" y="0" type="line"/>
      <point x="622" y="1400" type="line"/>
      <point x="506" y="1400" type="line"/>
      <point x="44" y="0" type="line"/>
    </contour>
  </outline>
</glyph>
<glyph name="J" format="2">
  <advance width="942"/>
  <unicode hex="004A"/>
  <anchor x="991" y="1400" name="top"/>
  <outline>
    <contour>
      <point x="220" y="-30" type="curve" smooth="yes"/>
      <point x="457" y="-30"/>
      <point x="621" y="104"/>
      <point x="705" y="362" type="curve"/>
      <point x="1049" y="1400" type="line"/>
      <point x="933" y="1400" type="line"/>
      <point x="589" y="366" type="line" smooth="yes"/>
      <point x="517" y="151"/>
      <point x="405" y="78"/>
      <point x="226" y="78" type="curve" smooth="yes"/>
      <point x="132" y="78"/>
      <point x="52" y="102"/>
      <point x="-13" y="150" type="curve"/>
      <point x="-91" y="63" type="line"/>
      <point x="2" y="-3"/>
      <point x="107" y="-30"/>
    </contour>
  </outline>
</glyph>
<glyph name="K" format="2">
  <advance width="1317"/>
  <unicode hex="004B"/>
  <anchor x="536" y="0" name="bottom"/>
  <outline>
    <contour>
      <point x="160" y="0" type="line"/>
      <point x="288" y="394" type="line"/>
      <point x="626" y="684" type="line"/>
      <point x="928" y="0" type="line"/>
      <point x="1068" y="0" type="line"/>
      <point x="724" y="770" type="line"/>
      <point x="1439" y="1400" type="line"/>
      <point x="1292" y="1400" type="line"/>
      <point x="350" y="577" type="line"/>
      <point x="622" y="1400" type="line"/>
      <point x="506" y="1400" type="line"/>
      <point x="44" y="0" type="line"/>
    </contour>
  </outline>
</glyph>
<glyph name="L" format="2">
  <advance width="1057"/>
  <unicode hex="004C"/>
  <anchor x="461" y="-0" name="bottom"/>
  <anchor x="577" y="1440" name="caron"/>
  <anchor x="506" y="1400" name="top"/>
  <outline>
    <contour>
      <point x="847" y="0" type="line"/>
      <point x="875" y="108" type="line"/>
      <point x="217" y="108" type="line"/>
      <point x="564" y="1400" type="line"/>
      <point x="448" y="1400" type="line"/>
      <point x="73" y="0" type="line"/>
    </contour>
  </outline>
</glyph>
<glyph name="M" format="2">
  <advance width="1787"/>
  <unicode hex="004D"/>
  <outline>
    <contour>
      <point x="179" y="0" type="line"/>
      <point x="511" y="1241" type="line"/>
      <point x="493" y="1238" type="line"/>
      <point x="800" y="340" type="line"/>
      <point x="911" y="340" type="line"/>
      <point x="1689" y="1197" type="line"/>
      <point x="1665" y="1210" type="line"/>
      <point x="1341" y="0" type="line"/>
      <point x="1457" y="0" type="line"/>
      <point x="1832" y="1400" type="line"/>
      <point x="1727" y="1400" type="line"/>
      <point x="862" y="427" type="line"/>
      <point x="901" y="416" type="line"/>
      <point x="565" y="1400" type="line"/>
      <point x="448" y="1400" type="line"/>
      <point x="73" y="0" type="line"/>
    </contour>
  </outline>
</glyph>
<glyph name="N" format="2">
  <advance width="1498"/>
  <unicode hex="004E"/>
  <anchor x="941" y="1400" name="top"/>
  <anchor x="645" y="-0" name="bottom"/>
  <outline>
    <contour>
      <point x="84" y="0" type="line"/>
      <point x="380" y="1400" type="line"/>
      <point x="573" y="1400" type="line"/>
      <point x="1078" y="339" type="line"/>
      <point x="1304" y="1400" type="line"/>
      <point x="1502" y="1400" type="line"/>
      <point x="1206" y="0" type="line"/>
      <point x="1016" y="0" type="line"/>
      <point x="510" y="1072" type="line"/>
      <point x="283" y="0" type="line"/>
    </contour>
  </outline>
</glyph>
<glyph name="O" format="2">
  <advance width="1707"/>
  <unicode hex="004F"/>
  <anchor x="752" y="0" name="bottom"/>
  <anchor x="1504" y="1400" name="horn"/>
  <anchor x="964" y="0" name="ogonek"/>
  <anchor x="1102" y="1400" name="top"/>
  <anchor x="457" y="1400" name="topleft"/>
  <outline>
    <contour>
      <point x="811" y="-30" type="curve" smooth="yes"/>
      <point x="1269" y="-30"/>
      <point x="1669" y="374"/>
      <point x="1669" y="828" type="curve" smooth="yes"/>
      <point x="1669" y="1171"/>
      <point x="1423" y="1430"/>
      <point x="1040" y="1430" type="curve" smooth="yes"/>
      <point x="581" y="1430"/>
      <point x="185" y="1029"/>
      <point x="185" y="566" type="curve" smooth="yes"/>
      <point x="185" y="224"/>
      <point x="431" y="-30"/>
    </contour>
    <contour>
      <point x="830" y="82" type="curve" smooth="yes"/>
      <point x="522" y="82"/>
      <point x="309" y="278"/>
      <point x="309" y="575" type="curve" smooth="yes"/>
      <point x="309" y="969"/>
      <point x="616" y="1318"/>
      <point x="1024" y="1318" type="curve" smooth="yes"/>
      <point x="1338" y="1318"/>
      <point x="1546" y="1122"/>
      <point x="1546" y="825" type="curve" smooth="yes"/>
      <point x="1546" y="431"/>
      <point x="1238" y="82"/>
    </contour>
  </outline>
</glyph>
<glyph name="P" format="2">
  <advance width="1230"/>
  <unicode hex="0050"/>
  <outline>
    <contour>
      <point x="100" y="0" type="line"/>
      <point x="396" y="1400" type="line"/>
      <point x="788" y="1400" type="line"/>
      <point x="931" y="1400"/>
      <point x="1137" y="1314"/>
      <point x="1248" y="1154"/>
      <point x="1248" y="1044" type="qcurve"/>
      <point x="1248" y="905"/>
      <point x="1118" y="708"/>
      <point x="889" y="604"/>
      <point x="740" y="604" type="qcurve"/>
      <point x="344" y="604" type="line"/>
      <point x="216" y="0" type="line"/>
    </contour>
    <contour>
      <point x="366" y="712" type="line"/>
      <point x="764" y="712" type="line"/>
      <point x="929" y="712"/>
      <point x="1130" y="885"/>
      <point x="1130" y="1030" type="qcurve"/>
      <point x="1130" y="1150"/>
      <point x="957" y="1292"/>
      <point x="790" y="1292" type="qcurve"/>
      <point x="490" y="1292" type="line"/>
    </contour>
  </outline>
</glyph>
<glyph name="Q" format="2">
  <advance width="1707"/>
  <unicode hex="0051"/>
  <outline>
    <component base="O"/>
    <contour>
      <point x="1396" y="-120" type="line"/>
      <point x="1081" y="420" type="line"/>
      <point x="962" y="420" type="line"/>
      <point x="1277" y="-120" type="line"/>
    </contour>
  </outline>
</glyph>
<glyph name="R" format="2">
  <advance width="1287"/>
  <unicode hex="0052"/>
  <anchor x="557" y="-0" name="bottom"/>
  <anchor x="866" y="1400" name="top"/>
  <outline>
    <contour>
      <point x="189" y="0" type="line"/>
      <point x="354" y="614" type="line"/>
      <point x="612" y="614" type="line"/>
      <point x="917" y="0" type="line"/>
      <point x="1057" y="0" type="line"/>
      <point x="749" y="611" type="line"/>
      <point x="1039" y="627"/>
      <point x="1273" y="789"/>
      <point x="1273" y="1064" type="curve" smooth="yes"/>
      <point x="1273" y="1265"/>
      <point x="1130" y="1400"/>
      <point x="862" y="1400" type="curve" smooth="yes"/>
      <point x="448" y="1400" type="line"/>
      <point x="73" y="0" type="line"/>
    </contour>
    <contour>
      <point x="536" y="1292" type="line"/>
      <point x="837" y="1292" type="line" smooth="yes"/>
      <point x="1061" y="1292"/>
      <point x="1157" y="1199"/>
      <point x="1157" y="1054" type="curve" smooth="yes"/>
      <point x="1157" y="853"/>
      <point x="1002" y="722"/>
      <point x="785" y="722" type="curve" smooth="yes"/>
      <point x="382" y="722" type="line"/>
    </contour>
  </outline>
</glyph>
<glyph name="S" format="2">
  <advance width="1236"/>
  <unicode hex="0053"/>
  <anchor x="810" y="1400" name="top"/>
  <anchor x="552" y="0" name="bottom"/>
  <outline>
    <contour>
      <point x="576" y="-30" type="qcurve"/>
      <point x="434" y="-30"/>
      <point x="169" y="54"/>
      <point x="86" y="130" type="qcurve"/>
      <point x="168" y="220" type="line"/>
      <point x="220" y="175"/>
      <point x="352" y="112"/>
      <point x="505" y="78"/>
      <point x="590" y="78" type="qcurve"/>
      <point x="757" y="78"/>
      <point x="974" y="234"/>
      <point x="974" y="376" type="qcurve"/>
      <point x="974" y="454"/>
      <point x="857" y="577"/>
      <point x="710" y="634" type="qcurve"/>
      <point x="560" y="690" type="line"/>
      <point x="415" y="747"/>
      <point x="274" y="898"/>
      <point x="274" y="1006" type="qcurve"/>
      <point x="274" y="1104"/>
      <point x="352" y="1261"/>
      <point x="491" y="1372"/>
      <point x="674" y="1430"/>
      <point x="780" y="1430" type="qcurve"/>
      <point x="918" y="1430"/>
      <point x="1137" y="1347"/>
      <point x="1207" y="1280" type="qcurve"/>
      <point x="1126" y="1194" type="line"/>
      <point x="1081" y="1236"/>
      <point x="960" y="1295"/>
      <point x="821" y="1326"/>
      <point x="748" y="1326" type="qcurve"/>
      <point x="644" y="1326"/>
      <point x="479" y="1254"/>
      <point x="384" y="1121"/>
      <point x="384" y="1030" type="qcurve"/>
      <point x="384" y="978"/>
      <point x="433" y="893"/>
      <point x="548" y="818"/>
      <point x="646" y="780" type="qcurve"/>
      <point x="808" y="720" type="line"/>
      <point x="948" y="666"/>
      <point x="1084" y="513"/>
      <point x="1084" y="402" type="qcurve"/>
      <point x="1084" y="267"/>
      <point x="952" y="74"/>
      <point x="723" y="-30"/>
    </contour>
  </outline>
</glyph>
<glyph name="T" format="2">
  <advance width="1087"/>
  <unicode hex="0054"/>
  <anchor x="623" y="722" name="bar"/>
  <anchor x="386" y="0" name="bottom"/>
  <anchor x="848" y="1400" name="top"/>
  <outline>
    <contour>
      <point x="444" y="0" type="line"/>
      <point x="872" y="1292" type="line"/>
      <point x="1286" y="1292" type="line"/>
      <point x="1320" y="1400" type="line"/>
      <point x="376" y="1400" type="line"/>
      <point x="342" y="1292" type="line"/>
      <point x="756" y="1292" type="line"/>
      <point x="328" y="0" type="line"/>
    </contour>
  </outline>
</glyph>
<glyph name="U" format="2">
  <advance width="1444"/>
  <unicode hex="0055"/>
  <anchor x="619" y="0" name="bottom"/>
  <anchor x="1560" y="1400" name="horn"/>
  <anchor x="880" y="0" name="ogonek"/>
  <anchor x="1028" y="1400" name="top"/>
  <outline>
    <contour>
      <point x="622" y="-30" type="curve" smooth="yes"/>
      <point x="941" y="-30"/>
      <point x="1163" y="193"/>
      <point x="1267" y="516" type="curve"/>
      <point x="1560" y="1400" type="line"/>
      <point x="1444" y="1400" type="line"/>
      <point x="1157" y="532" type="line"/>
      <point x="1054" y="214"/>
      <point x="865" y="82"/>
      <point x="638" y="82" type="curve" smooth="yes"/>
      <point x="333" y="82"/>
      <point x="231" y="261"/>
      <point x="325" y="532" type="curve"/>
      <point x="612" y="1400" type="line"/>
      <point x="496" y="1400" type="line"/>
      <point x="203" y="516" type="line"/>
      <point x="96" y="187"/>
      <point x="279" y="-30"/>
    </contour>
  </outline>
</glyph>
<glyph name="V" format="2">
  <advance width="1312"/>
  <unicode hex="0056"/>
  <outline>
    <contour>
      <point x="449" y="0" type="line"/>
      <point x="209" y="1400" type="line"/>
      <point x="432" y="1400" type="line"/>
      <point x="611" y="279" type="line"/>
      <point x="1257" y="1400" type="line"/>
      <point x="1489" y="1400" type="line"/>
      <point x="659" y="0" type="line"/>
    </contour>
  </outline>
</glyph>
<glyph name="W" format="2">
  <advance width="2000"/>
  <unicode hex="0057"/>
  <anchor x="1305" y="1400" name="top"/>
  <outline>
    <contour>
      <point x="471" y="0" type="line"/>
      <point x="1251" y="1212" type="line"/>
      <point x="1213" y="0" type="line"/>
      <point x="1364" y="0" type="line"/>
      <point x="2242" y="1400" type="line"/>
      <point x="2111" y="1400" type="line"/>
      <point x="1324" y="131" type="line"/>
      <point x="1373" y="1400" type="line"/>
      <point x="1236" y="1400" type="line"/>
      <point x="436" y="123" type="line"/>
      <point x="493" y="1400" type="line"/>
      <point x="370" y="1400" type="line"/>
      <point x="323" y="0" type="line"/>
    </contour>
  </outline>
</glyph>
<glyph name="X" format="2">
  <advance width="1292"/>
  <unicode hex="0058"/>
  <outline>
    <contour>
      <point x="61" y="0" type="line"/>
      <point x="691" y="640" type="line"/>
      <point x="925" y="0" type="line"/>
      <point x="1055" y="0" type="line"/>
      <point x="794" y="710" type="line"/>
      <point x="1499" y="1400" type="line"/>
      <point x="1363" y="1400" type="line"/>
      <point x="738" y="803" type="line"/>
      <point x="538" y="1400" type="line"/>
      <point x="411" y="1400" type="line"/>
      <point x="633" y="735" type="line"/>
      <point x="-81" y="0" type="line"/>
    </contour>
  </outline>
</glyph>
<glyph name="Y" format="2">
  <advance width="1180"/>
  <unicode hex="0059"/>
  <anchor x="431" y="0" name="bottom"/>
  <anchor x="893" y="1400" name="top"/>
  <anchor x="286" y="1400" name="topleft"/>
  <outline>
    <contour>
      <point x="489" y="0" type="line"/>
      <point x="695" y="624" type="line"/>
      <point x="1452" y="1400" type="line"/>
      <point x="1307" y="1400" type="line"/>
      <point x="669" y="741" type="line"/>
      <point x="471" y="1400" type="line"/>
      <point x="340" y="1400" type="line"/>
      <point x="579" y="624" type="line"/>
      <point x="373" y="0" type="line"/>
    </contour>
  </outline>
</glyph>
<glyph name="Z" format="2">
  <advance width="1159"/>
  <unicode hex="005A"/>
  <anchor x="892" y="1400" name="top"/>
  <outline>
    <contour>
      <point x="906" y="0" type="line"/>
      <point x="940" y="108" type="line"/>
      <point x="130" y="108" type="line"/>
      <point x="1329" y="1296" type="line"/>
      <point x="1360" y="1400" type="line"/>
      <point x="434" y="1400" type="line"/>
      <point x="400" y="1292" type="line"/>
      <point x="1182" y="1292" type="line"/>
      <point x="-19" y="104" type="line"/>
      <point x="-50" y="0" type="line"/>
    </contour>
  </outline>
</glyph>
<glyph name="bracketleft" format="2">
  <advance width="697"/>
  <unicode hex="005B"/>
  <outline>
    <contour>
      <point x="301" y="-220" type="line"/>
      <point x="332" y="-124" type="line"/>
      <point x="124" y="-124" type="line"/>
      <point x="668" y="1504" type="line"/>
      <point x="876" y="1504" type="line"/>
      <point x="907" y="1600" type="line"/>
      <point x="599" y="1600" type="line"/>
      <point x="-7" y="-220" type="line"/>
    </contour>
  </outline>
</glyph>
<glyph name="backslash" format="2">
  <advance width="910"/>
  <unicode hex="005C"/>
  <outline>
    <contour>
      <point x="707" y="-213" type="line"/>
      <point x="431" y="1610" type="line"/>
      <point x="321" y="1593" type="line"/>
      <point x="597" y="-230" type="line"/>
    </contour>
  </outline>
</glyph>
<glyph name="bracketright" format="2">
  <advance width="694"/>
  <unicode hex="005D"/>
  <outline>
    <contour>
      <point x="769" y="1600" type="line"/>
      <point x="461" y="1600" type="line"/>
      <point x="433" y="1504" type="line"/>
      <point x="641" y="1504" type="line"/>
      <point x="205" y="-124" type="line"/>
      <point x="-3" y="-124" type="line"/>
      <point x="-28" y="-220" type="line"/>
      <point x="280" y="-220" type="line"/>
    </contour>
  </outline>
</glyph>
<glyph name="asciicircum" format="2">
  <advance width="1296"/>
  <unicode hex="005E"/>
  <outline>
    <contour>
      <point x="474" y="850" type="line"/>
      <point x="926" y="1307" type="line"/>
      <point x="1081" y="850" type="line"/>
      <point x="1201" y="850" type="line"/>
      <point x="1012" y="1400" type="line"/>
      <point x="887" y="1400" type="line"/>
      <point x="342" y="850" type="line"/>
    </contour>
  </outline>
</glyph>
<glyph name="underscore" format="2">
  <advance width="1060"/>
  <unicode hex="005F"/>
  <outline>
    <contour>
      <point x="777" y="-282" type="line"/>
      <point x="808" y="-190" type="line"/>
      <point x="-192" y="-190" type="line"/>
      <point x="-223" y="-282" type="line"/>
    </contour>
  </outline>
</glyph>
<glyph name="a" format="2">
  <advance width="1062"/>
  <unicode hex="0061"/>
  <anchor x="345" y="0" name="bottom"/>
  <anchor x="741" y="0" name="ogonek"/>
  <anchor x="661" y="960" name="top"/>
  <outline>
    <contour>
      <point x="324" y="-30" type="curve" smooth="yes"/>
      <point x="442" y="-30"/>
      <point x="581" y="8"/>
      <point x="670" y="126" type="curve"/>
      <point x="629" y="0" type="line"/>
      <point x="741" y="0" type="line"/>
      <point x="947" y="585" type="line"/>
      <point x="1035" y="862"/>
      <point x="878" y="1000"/>
      <point x="641" y="1000" type="curve" smooth="yes"/>
      <point x="513" y="1000"/>
      <point x="399" y="966"/>
      <point x="298" y="895" type="curve"/>
      <point x="304" y="792" type="line"/>
      <point x="399" y="855"/>
      <point x="524" y="892"/>
      <point x="608" y="892" type="curve" smooth="yes"/>
      <point x="764" y="892"/>
      <point x="898" y="817"/>
      <point x="829" y="582" type="curve"/>
      <point x="745" y="350" type="line"/>
      <point x="698" y="213"/>
      <point x="537" y="78"/>
      <point x="343" y="78" type="curve" smooth="yes"/>
      <point x="230" y="78"/>
      <point x="142" y="138"/>
      <point x="142" y="245" type="curve" smooth="yes"/>
      <point x="142" y="528"/>
      <point x="606" y="488"/>
      <point x="831" y="458" type="curve"/>
      <point x="859" y="549" type="line"/>
      <point x="517" y="609"/>
      <point x="27" y="590"/>
      <point x="27" y="222" type="curve" smooth="yes"/>
      <point x="27" y="62"/>
      <point x="145" y="-30"/>
    </contour>
  </outline>
</glyph>
<glyph name="b" format="2">
  <advance width="1295"/>
  <unicode hex="0062"/>
  <outline>
    <contour>
      <point x="670" y="-30" type="qcurve" smooth="yes"/>
      <point x="562" y="-30"/>
      <point x="391" y="36"/>
      <point x="275" y="152"/>
      <point x="248" y="226" type="qcurve"/>
      <point x="285" y="242" type="line"/>
      <point x="234" y="0" type="line"/>
      <point x="53" y="0" type="line"/>
      <point x="359" y="1440" type="line"/>
      <point x="557" y="1440" type="line"/>
      <point x="412" y="756" type="line"/>
      <point x="381" y="823" type="line"/>
      <point x="457" y="909"/>
      <point x="643" y="1014"/>
      <point x="771" y="1014" type="qcurve" smooth="yes"/>
      <point x="911" y="1014"/>
      <point x="1115" y="894"/>
      <point x="1224" y="689"/>
      <point x="1224" y="562" type="qcurve" smooth="yes"/>
      <point x="1224" y="443"/>
      <point x="1141" y="230"/>
      <point x="990" y="65"/>
      <point x="788" y="-30"/>
    </contour>
    <contour>
      <point x="653" y="149" type="qcurve" smooth="yes"/>
      <point x="764" y="149"/>
      <point x="930" y="259"/>
      <point x="1021" y="441"/>
      <point x="1021" y="549" type="qcurve" smooth="yes"/>
      <point x="1021" y="637"/>
      <point x="946" y="766"/>
      <point x="812" y="836"/>
      <point x="722" y="836" type="qcurve" smooth="yes"/>
      <point x="609" y="836"/>
      <point x="443" y="729"/>
      <point x="351" y="551"/>
      <point x="351" y="444" type="qcurve" smooth="yes"/>
      <point x="351" y="353"/>
      <point x="426" y="221"/>
      <point x="562" y="149"/>
    </contour>
  </outline>
</glyph>
<glyph name="c" format="2">
  <advance width="1023"/>
  <unicode hex="0063"/>
  <anchor x="468" y="-0" name="bottom"/>
  <anchor x="672" y="960" name="top"/>
  <outline>
    <contour>
      <point x="538" y="-30" type="curve" smooth="yes"/>
      <point x="645" y="-30"/>
      <point x="747" y="4"/>
      <point x="848" y="63" type="curve"/>
      <point x="789" y="154" type="line"/>
      <point x="732" y="110"/>
      <point x="643" y="78"/>
      <point x="554" y="78" type="curve" smooth="yes"/>
      <point x="331" y="78"/>
      <point x="200" y="205"/>
      <point x="200" y="401" type="curve" smooth="yes"/>
      <point x="200" y="666"/>
      <point x="371" y="882"/>
      <point x="650" y="882" type="curve" smooth="yes"/>
      <point x="765" y="882"/>
      <point x="859" y="851"/>
      <point x="914" y="788" type="curve"/>
      <point x="1003" y="875" type="line"/>
      <point x="919" y="954"/>
      <point x="818" y="990"/>
      <point x="686" y="990" type="curve" smooth="yes"/>
      <point x="348" y="990"/>
      <point x="80" y="735"/>
      <point x="80" y="399" type="curve" smooth="yes"/>
      <point x="80" y="151"/>
      <point x="254" y="-30"/>
    </contour>
  </outline>
</glyph>
<glyph name="d" format="2">
  <advance width="1265"/>
  <unicode hex="0064"/>
  <anchor x="1224" y="1204" name="bar"/>
  <anchor x="1414" y="1440" name="caron"/>
  <outline>
    <contour>
      <point x="511" y="-30" type="curve" smooth="yes"/>
      <point x="692" y="-30"/>
      <point x="796" y="52"/>
      <point x="901" y="155" type="curve"/>
      <point x="895" y="212" type="line"/>
      <point x="824" y="0" type="line"/>
      <point x="936" y="0" type="line"/>
      <point x="1414" y="1440" type="line"/>
      <point x="1302" y="1440" type="line"/>
      <point x="1070" y="742" type="line"/>
      <point x="1098" y="729" type="line"/>
      <point x="1039" y="879"/>
      <point x="890" y="990"/>
      <point x="655" y="990" type="curve" smooth="yes"/>
      <point x="346" y="990"/>
      <point x="78" y="699"/>
      <point x="78" y="377" type="curve" smooth="yes"/>
      <point x="78" y="130"/>
      <point x="246" y="-30"/>
    </contour>
    <contour>
      <point x="531" y="78" type="curve" smooth="yes"/>
      <point x="324" y="78"/>
      <point x="202" y="200"/>
      <point x="202" y="383" type="curve" smooth="yes"/>
      <point x="202" y="651"/>
      <point x="387" y="882"/>
      <point x="656" y="882" type="curve" smooth="yes"/>
      <point x="864" y="882"/>
      <point x="992" y="764"/>
      <point x="992" y="574" type="curve" smooth="yes"/>
      <point x="992" y="303"/>
      <point x="804" y="78"/>
    </contour>
  </outline>
</glyph>
<glyph name="e" format="2">
  <advance width="1112"/>
  <unicode hex="0065"/>
  <anchor x="445" y="0" name="bottom"/>
  <anchor x="725" y="0" name="ogonek"/>
  <anchor x="699" y="960" name="top"/>
  <outline>
    <contour>
      <point x="529" y="-30" type="curve" smooth="yes"/>
      <point x="632" y="-30"/>
      <point x="749" y="-4"/>
      <point x="853" y="53" type="curve"/>
      <point x="815" y="156" type="line"/>
      <point x="733" y="104"/>
      <point x="633" y="78"/>
      <point x="546" y="78" type="curve" smooth="yes"/>
      <point x="312" y="78"/>
      <point x="150" y="212"/>
      <point x="202" y="468" type="curve"/>
      <point x="1029" y="468" type="line"/>
      <point x="1119" y="742"/>
      <point x="973" y="990"/>
      <point x="667" y="990" type="curve" smooth="yes"/>
      <point x="337" y="990"/>
      <point x="75" y="692"/>
      <point x="75" y="364" type="curve" smooth="yes"/>
      <point x="75" y="127"/>
      <point x="251" y="-30"/>
    </contour>
    <contour>
      <point x="235" y="572" type="line"/>
      <point x="291" y="771"/>
      <point x="443" y="882"/>
      <point x="636" y="882" type="curve" smooth="yes"/>
      <point x="838" y="882"/>
      <point x="960" y="796"/>
      <point x="934" y="572" type="curve"/>
    </contour>
  </outline>
</glyph>
<glyph name="f" format="2">
  <advance width="714"/>
  <unicode hex="0066"/>
  <outline>
    <contour>
      <point x="231" y="0" type="line"/>
      <point x="515" y="856" type="line"/>
      <point x="785" y="856" type="line"/>
      <point x="819" y="960" type="line"/>
      <point x="549" y="960" type="line"/>
      <point x="624" y="1190" type="line"/>
      <point x="668" y="1317"/>
      <point x="736" y="1362"/>
      <point x="809" y="1362" type="curve" smooth="yes"/>
      <point x="853" y="1362"/>
      <point x="900" y="1354"/>
      <point x="943" y="1331" type="curve"/>
      <point x="1003" y="1420" type="line"/>
      <point x="975" y="1446"/>
      <point x="927" y="1470"/>
      <point x="842" y="1470" type="curve" smooth="yes"/>
      <point x="692" y="1470"/>
      <point x="577" y="1377"/>
      <point x="518" y="1192" type="curve"/>
      <point x="121" y="0" type="line"/>
    </contour>
    <contour>
      <point x="431" y="856" type="line"/>
      <point x="462" y="960" type="line"/>
      <point x="216" y="960" type="line"/>
      <point x="185" y="856" type="line"/>
    </contour>
  </outline>
</glyph>
<glyph name="g" format="2">
  <advance width="1179"/>
  <unicode hex="0067"/>
  <anchor x="647" y="960" name="top"/>
  <outline>
    <contour>
      <point x="412" y="-450" type="curve" smooth="yes"/>
      <point x="659" y="-450"/>
      <point x="908" y="-351"/>
      <point x="908" y="-127" type="curve" smooth="yes"/>
      <point x="908" y="-18"/>
      <point x="804" y="67"/>
      <point x="589" y="110" type="curve" smooth="yes"/>
      <point x="427" y="143" type="line" smooth="yes"/>
      <point x="319" y="163"/>
      <point x="281" y="192"/>
      <point x="281" y="229" type="curve" smooth="yes"/>
      <point x="281" y="310"/>
      <point x="417" y="338"/>
      <point x="536" y="330" type="curve"/>
      <point x="518" y="398" type="line"/>
      <point x="300" y="394"/>
      <point x="154" y="323"/>
      <point x="154" y="203" type="curve" smooth="yes"/>
      <point x="154" y="163"/>
      <point x="182" y="122"/>
      <point x="241" y="83" type="curve"/>
      <point x="79" y="72"/>
      <point x="-76" y="-4"/>
      <point x="-76" y="-155" type="curve" smooth="yes"/>
      <point x="-76" y="-361"/>
      <point x="182" y="-450"/>
    </contour>
    <contour>
      <point x="440" y="-352" type="curve" smooth="yes"/>
      <point x="268" y="-352"/>
      <point x="51" y="-292"/>
      <point x="51" y="-138" type="curve" smooth="yes"/>
      <point x="51" y="-18"/>
      <point x="202" y="44"/>
      <point x="359" y="34" type="curve"/>
      <point x="529" y="-1" type="line" smooth="yes"/>
      <point x="694" y="-35"/>
      <point x="779" y="-87"/>
      <point x="779" y="-161" type="curve" smooth="yes"/>
      <point x="779" y="-274"/>
      <point x="650" y="-352"/>
    </contour>
    <contour>
      <point x="574" y="310" type="curve" smooth="yes"/>
      <point x="813" y="310"/>
      <point x="1022" y="480"/>
      <point x="1022" y="675" type="curve" smooth="yes"/>
      <point x="1022" y="853"/>
      <point x="856" y="990"/>
      <point x="632" y="990" type="curve" smooth="yes"/>
      <point x="396" y="990"/>
      <point x="187" y="822"/>
      <point x="187" y="620" type="curve" smooth="yes"/>
      <point x="187" y="442"/>
      <point x="353" y="310"/>
    </contour>
    <contour>
      <point x="589" y="418" type="curve" smooth="yes"/>
      <point x="422" y="418"/>
      <point x="315" y="497"/>
      <point x="315" y="620" type="curve" smooth="yes"/>
      <point x="315" y="755"/>
      <point x="437" y="882"/>
      <point x="620" y="882" type="curve" smooth="yes"/>
      <point x="785" y="882"/>
      <point x="893" y="803"/>
      <point x="893" y="683" type="curve" smooth="yes"/>
      <point x="893" y="545"/>
      <point x="772" y="418"/>
    </contour>
    <contour>
      <point x="1235" y="856" type="line"/>
      <point x="1262" y="960" type="line"/>
      <point x="806" y="950" type="line"/>
      <point x="821" y="856" type="line"/>
    </contour>
  </outline>
</glyph>
<glyph name="h" format="2">
  <advance width="1219"/>
  <unicode hex="0068"/>
  <anchor x="460" y="1440" name="top"/>
  <anchor x="514" y="1210" name="strokeshort"/>
  <outline>
    <contour>
      <point x="53" y="0" type="line"/>
      <point x="361" y="1440" type="line"/>
      <point x="559" y="1440" type="line"/>
      <point x="420" y="787" type="line"/>
      <point x="411" y="848" type="line"/>
      <point x="487" y="933"/>
      <point x="672" y="1014"/>
      <point x="767" y="1014" type="qcurve" smooth="yes"/>
      <point x="879" y="1014"/>
      <point x="1046" y="918"/>
      <point x="1125" y="752"/>
      <point x="1104" y="646" type="qcurve"/>
      <point x="966" y="0" type="line"/>
      <point x="767" y="0" type="line"/>
      <point x="894" y="589" type="line" smooth="yes"/>
      <point x="918" y="700"/>
      <point x="796" y="830"/>
      <point x="679" y="830" type="qcurve" smooth="yes"/>
      <point x="607" y="830"/>
      <point x="481" y="767"/>
      <point x="390" y="647"/>
      <point x="371" y="559" type="qcurve" smooth="yes"/>
      <point x="251" y="0" type="line"/>
    </contour>
  </outline>
</glyph>
<glyph name="k" format="2">
  <advance width="1029"/>
  <unicode hex="006B"/>
  <anchor x="397" y="0" name="bottom"/>
  <outline>
    <contour>
      <point x="123" y="0" type="line"/>
      <point x="241" y="356" type="line"/>
      <point x="489" y="542" type="line"/>
      <point x="679" y="0" type="line"/>
      <point x="810" y="0" type="line"/>
      <point x="593" y="608" type="line"/>
      <point x="1053" y="960" type="line"/>
      <point x="904" y="960" type="line"/>
      <point x="291" y="503" type="line"/>
      <point x="604" y="1440" type="line"/>
      <point x="492" y="1440" type="line"/>
      <point x="11" y="0" type="line"/>
    </contour>
  </outline>
</glyph>
<glyph name="l" format="2">
  <advance width="570"/>
  <unicode hex="006C"/>
  <anchor x="58" y="0" name="bottom"/>
  <anchor x="595" y="1440" name="caron"/>
  <anchor x="539" y="1440" name="top"/>
  <outline>
    <contour>
      <point x="222" y="-31" type="curve" smooth="yes"/>
      <point x="252" y="-31"/>
      <point x="318" y="-30"/>
      <point x="381" y="-13" type="curve"/>
      <point x="377" y="94" type="line"/>
      <point x="329" y="84"/>
      <point x="290" y="77"/>
      <point x="257" y="77" type="curve" smooth="yes"/>
      <point x="158" y="77"/>
      <point x="168" y="164"/>
      <point x="199" y="256" type="curve" smooth="yes"/>
      <point x="595" y="1440" type="line"/>
      <point x="483" y="1440" type="line"/>
      <point x="68" y="218" type="line"/>
      <point x="18" y="83"/>
      <point x="54" y="-31"/>
    </contour>
  </outline>
</glyph>
<glyph name="m" format="2">
  <advance width="1819"/>
  <unicode hex="006D"/>
  <outline>
    <contour>
      <point x="68" y="0" type="line"/>
      <point x="272" y="960" type="line"/>
      <point x="384" y="960" type="line"/>
      <point x="352" y="802" type="line"/>
      <point x="400" y="861"/>
      <point x="513" y="945"/>
      <point x="639" y="990"/>
      <point x="706" y="990" type="qcurve"/>
      <point x="846" y="990"/>
      <point x="986" y="859"/>
      <point x="992" y="772" type="qcurve"/>
      <point x="1090" y="889"/>
      <point x="1290" y="990"/>
      <point x="1390" y="990" type="qcurve"/>
      <point x="1499" y="990"/>
      <point x="1649" y="901"/>
      <point x="1713" y="745"/>
      <point x="1694" y="646" type="qcurve"/>
      <point x="1556" y="0" type="line"/>
      <point x="1444" y="0" type="line"/>
      <point x="1574" y="612" type="line"/>
      <point x="1603" y="737"/>
      <point x="1484" y="882"/>
      <point x="1350" y="882" type="qcurve"/>
      <point x="1268" y="882"/>
      <point x="1119" y="809"/>
      <point x="1011" y="669"/>
      <point x="990" y="570" type="qcurve"/>
      <point x="868" y="0" type="line"/>
      <point x="756" y="0" type="line"/>
      <point x="886" y="612" type="line"/>
      <point x="915" y="737"/>
      <point x="796" y="882"/>
      <point x="662" y="882" type="qcurve"/>
      <point x="580" y="882"/>
      <point x="431" y="809"/>
      <point x="323" y="669"/>
      <point x="302" y="570" type="qcurve"/>
      <point x="180" y="0" type="line"/>
    </contour>
  </outline>
</glyph>
<glyph name="n" format="2">
  <advance width="1155"/>
  <unicode hex="006E"/>
  <anchor x="453" y="0" name="bottom"/>
  <anchor x="721" y="960" name="top"/>
  <outline>
    <contour>
      <point x="153" y="0" type="line"/>
      <point x="307" y="570" type="line"/>
      <point x="360" y="771"/>
      <point x="516" y="882"/>
      <point x="681" y="882" type="curve" smooth="yes"/>
      <point x="854" y="882"/>
      <point x="963" y="775"/>
      <point x="917" y="612" type="curve"/>
      <point x="753" y="0" type="line"/>
      <point x="865" y="0" type="line"/>
      <point x="1040" y="646" type="line"/>
      <point x="1093" y="849"/>
      <point x="927" y="990"/>
      <point x="723" y="990" type="curve" smooth="yes"/>
      <point x="608" y="990"/>
      <point x="479" y="940"/>
      <point x="376" y="821" type="curve"/>
      <point x="411" y="960" type="line"/>
      <point x="299" y="960" type="line"/>
      <point x="41" y="0" type="line"/>
    </contour>
  </outline>
</glyph>
<glyph name="o" format="2">
  <advance width="1216"/>
  <unicode hex="006F"/>
  <anchor x="687" y="984" name="top"/>
  <anchor x="1078" y="984" name="horn"/>
  <anchor x="530" y="-0" name="bottom"/>
  <outline>
    <contour>
      <point x="556" y="-30" type="qcurve" smooth="yes"/>
      <point x="409" y="-30"/>
      <point x="190" y="96"/>
      <point x="71" y="307"/>
      <point x="71" y="436" type="qcurve" smooth="yes"/>
      <point x="71" y="553"/>
      <point x="165" y="762"/>
      <point x="329" y="923"/>
      <point x="542" y="1014"/>
      <point x="660" y="1014" type="qcurve" smooth="yes"/>
      <point x="808" y="1014"/>
      <point x="1026" y="888"/>
      <point x="1145" y="677"/>
      <point x="1145" y="550" type="qcurve" smooth="yes"/>
      <point x="1145" y="432"/>
      <point x="1051" y="223"/>
      <point x="888" y="62"/>
      <point x="675" y="-30"/>
    </contour>
    <contour>
      <point x="575" y="148" type="qcurve" smooth="yes"/>
      <point x="686" y="148"/>
      <point x="852" y="257"/>
      <point x="944" y="437"/>
      <point x="944" y="544" type="qcurve" smooth="yes"/>
      <point x="944" y="634"/>
      <point x="868" y="765"/>
      <point x="733" y="836"/>
      <point x="641" y="836" type="qcurve" smooth="yes"/>
      <point x="531" y="836"/>
      <point x="365" y="728"/>
      <point x="273" y="548"/>
      <point x="273" y="441" type="qcurve" smooth="yes"/>
      <point x="273" y="351"/>
      <point x="348" y="220"/>
      <point x="484" y="148"/>
    </contour>
  </outline>
</glyph>
<glyph name="q" format="2">
  <advance width="1262"/>
  <unicode hex="0071"/>
  <outline>
    <contour>
      <point x="788" y="-420" type="line"/>
      <point x="924" y="218" type="line"/>
      <point x="936" y="178" type="line"/>
      <point x="861" y="88"/>
      <point x="665" y="-26"/>
      <point x="524" y="-26" type="qcurve"/>
      <point x="386" y="-26"/>
      <point x="187" y="93"/>
      <point x="80" y="293"/>
      <point x="80" y="416" type="qcurve"/>
      <point x="80" y="532"/>
      <point x="164" y="739"/>
      <point x="314" y="898"/>
      <point x="513" y="990"/>
      <point x="628" y="990" type="qcurve"/>
      <point x="721" y="990"/>
      <point x="885" y="937"/>
      <point x="1015" y="830"/>
      <point x="1058" y="748" type="qcurve"/>
      <point x="1036" y="748" type="line"/>
      <point x="1082" y="960" type="line"/>
      <point x="1194" y="960" type="line"/>
      <point x="900" y="-420" type="line"/>
    </contour>
    <contour>
      <point x="552" y="80" type="qcurve"/>
      <point x="683" y="80"/>
      <point x="878" y="207"/>
      <point x="986" y="418"/>
      <point x="986" y="544" type="qcurve"/>
      <point x="986" y="646"/>
      <point x="898" y="797"/>
      <point x="739" y="880"/>
      <point x="632" y="880" type="qcurve"/>
      <point x="502" y="880"/>
      <point x="308" y="752"/>
      <point x="200" y="542"/>
      <point x="200" y="418" type="qcurve"/>
      <point x="200" y="315"/>
      <point x="289" y="163"/>
      <point x="447" y="80"/>
    </contour>
  </outline>
</glyph>
<glyph name="r" format="2">
  <advance width="756"/>
  <unicode hex="0072"/>
  <anchor x="67" y="0" name="bottom"/>
  <anchor x="601" y="960" name="top"/>
  <outline>
    <contour>
      <point x="123" y="0" type="line"/>
      <point x="310" y="558" type="line"/>
      <point x="376" y="762"/>
      <point x="533" y="874"/>
      <point x="704" y="874" type="curve" smooth="yes"/>
      <point x="746" y="874"/>
      <point x="784" y="867"/>
      <point x="824" y="856" type="curve"/>
      <point x="882" y="971" type="line"/>
      <point x="838" y="985"/>
      <point x="791" y="990"/>
      <point x="754" y="990" type="curve" smooth="yes"/>
      <point x="634" y="990"/>
      <point x="517" y="946"/>
      <point x="395" y="809" type="curve"/>
      <point x="445" y="960" type="line"/>
      <point x="329" y="960" type="line"/>
      <point x="11" y="0" type="line"/>
    </contour>
  </outline>
</glyph>
<glyph name="s" format="2">
  <advance width="981"/>
  <unicode hex="0073"/>
  <anchor x="560" y="984" name="top"/>
  <anchor x="389" y="-0" name="bottom"/>
  <outline>
    <contour>
      <point x="423" y="-29" type="qcurve" smooth="yes"/>
      <point x="300" y="-29"/>
      <point x="75" y="52"/>
      <point x="5" y="125" type="qcurve"/>
      <point x="110" y="263" type="line"/>
      <point x="173" y="201"/>
      <point x="346" y="131"/>
      <point x="436" y="131" type="qcurve" smooth="yes"/>
      <point x="534" y="131"/>
      <point x="648" y="211"/>
      <point x="648" y="283" type="qcurve" smooth="yes"/>
      <point x="648" y="331"/>
      <point x="557" y="387"/>
      <point x="441" y="422" type="qcurve"/>
      <point x="283" y="467"/>
      <point x="136" y="592"/>
      <point x="136" y="691" type="qcurve" smooth="yes"/>
      <point x="136" y="789"/>
      <point x="241" y="939"/>
      <point x="423" y="1024"/>
      <point x="536" y="1024" type="qcurve" smooth="yes"/>
      <point x="656" y="1024"/>
      <point x="854" y="947"/>
      <point x="920" y="879" type="qcurve"/>
      <point x="818" y="736" type="line"/>
      <point x="785" y="775"/>
      <point x="689" y="832"/>
      <point x="577" y="864"/>
      <point x="519" y="864" type="qcurve" smooth="yes"/>
      <point x="434" y="864"/>
      <point x="323" y="787"/>
      <point x="323" y="718" type="qcurve" smooth="yes"/>
      <point x="323" y="668"/>
      <point x="421" y="609"/>
      <point x="530" y="577" type="qcurve"/>
      <point x="689" y="532"/>
      <point x="835" y="410"/>
      <point x="835" y="314" type="qcurve" smooth="yes"/>
      <point x="835" y="210"/>
      <point x="730" y="55"/>
      <point x="543" y="-29"/>
    </contour>
  </outline>
</glyph>
<glyph name="t" format="2">
  <advance width="817"/>
  <unicode hex="0074"/>
  <anchor x="402" y="520" name="bar"/>
  <anchor x="382" y="-0" name="bottom"/>
  <anchor x="648" y="1440" name="caron"/>
  <outline>
    <contour>
      <point x="445" y="-30" type="curve" smooth="yes"/>
      <point x="496" y="-30"/>
      <point x="553" y="-21"/>
      <point x="599" y="0" type="curve"/>
      <point x="589" y="103" type="line"/>
      <point x="557" y="89"/>
      <point x="520" y="80"/>
      <point x="474" y="80" type="curve" smooth="yes"/>
      <point x="329" y="80"/>
      <point x="303" y="163"/>
      <point x="344" y="310" type="curve"/>
      <point x="491" y="856" type="line"/>
      <point x="801" y="856" type="line"/>
      <point x="829" y="960" type="line"/>
      <point x="519" y="960" type="line"/>
      <point x="597" y="1246" type="line"/>
      <point x="485" y="1246" type="line"/>
      <point x="222" y="270" type="line" smooth="yes"/>
      <point x="171" y="80"/>
      <point x="253" y="-30"/>
    </contour>
    <contour>
      <point x="405" y="856" type="line"/>
      <point x="433" y="960" type="line"/>
      <point x="169" y="960" type="line"/>
      <point x="141" y="856" type="line"/>
    </contour>
  </outline>
</glyph>
<glyph name="u" format="2">
  <advance width="1143"/>
  <unicode hex="0075"/>
  <anchor x="665" y="960" name="top"/>
  <anchor x="1075" y="960" name="horn"/>
  <anchor x="453" y="0" name="bottom"/>
  <outline>
    <contour>
      <point x="441" y="-30" type="qcurve"/>
      <point x="332" y="-30"/>
      <point x="176" y="62"/>
      <point x="106" y="218"/>
      <point x="125" y="314" type="qcurve"/>
      <point x="263" y="960" type="line"/>
      <point x="375" y="960" type="line"/>
      <point x="245" y="348" type="line"/>
      <point x="221" y="218"/>
      <point x="359" y="76"/>
      <point x="485" y="76" type="qcurve"/>
      <point x="565" y="76"/>
      <point x="712" y="150"/>
      <point x="820" y="290"/>
      <point x="841" y="390" type="qcurve"/>
      <point x="963" y="960" type="line"/>
      <point x="1075" y="960" type="line"/>
      <point x="871" y="0" type="line"/>
      <point x="759" y="0" type="line"/>
      <point x="783" y="120" type="line"/>
      <point x="708" y="39"/>
      <point x="528" y="-30"/>
    </contour>
  </outline>
</glyph>
<glyph name="v" format="2">
  <advance width="960"/>
  <unicode hex="0076"/>
  <outline>
    <contour>
      <point x="382" y="0" type="line"/>
      <point x="1077" y="960" type="line"/>
      <point x="942" y="960" type="line"/>
      <point x="325" y="85" type="line"/>
      <point x="361" y="75" type="line"/>
      <point x="325" y="960" type="line"/>
      <point x="201" y="960" type="line"/>
      <point x="256" y="0" type="line"/>
    </contour>
  </outline>
</glyph>
<glyph name="w" format="2">
  <advance width="1566"/>
  <unicode hex="0077"/>
  <anchor x="884" y="982" name="top"/>
  <outline>
    <contour>
      <point x="238" y="0" type="line"/>
      <point x="137" y="984" type="line"/>
      <point x="333" y="984" type="line"/>
      <point x="392" y="234" type="line"/>
      <point x="795" y="984" type="line"/>
      <point x="992" y="984" type="line"/>
      <point x="1054" y="238" type="line"/>
      <point x="1439" y="984" type="line"/>
      <point x="1639" y="984" type="line"/>
      <point x="1112" y="0" type="line"/>
      <point x="906" y="0" type="line"/>
      <point x="836" y="725" type="line"/>
      <point x="447" y="0" type="line"/>
    </contour>
  </outline>
</glyph>
<glyph name="x" format="2">
  <advance width="923"/>
  <unicode hex="0078"/>
  <outline>
    <contour>
      <point x="24" y="0" type="line"/>
      <point x="440" y="408" type="line"/>
      <point x="591" y="0" type="line"/>
      <point x="726" y="0" type="line"/>
      <point x="537" y="492" type="line"/>
      <point x="1010" y="960" type="line"/>
      <point x="866" y="960" type="line"/>
      <point x="491" y="582" type="line"/>
      <point x="349" y="960" type="line"/>
      <point x="216" y="960" type="line"/>
      <point x="397" y="498" type="line"/>
      <point x="-121" y="0" type="line"/>
    </contour>
  </outline>
</glyph>
<glyph name="y" format="2">
  <advance width="952"/>
  <unicode hex="0079"/>
  <anchor x="560" y="0" name="bottom"/>
  <anchor x="629" y="960" name="top"/>
  <outline>
    <contour>
      <point x="-28" y="-450" type="curve" smooth="yes"/>
      <point x="84" y="-450"/>
      <point x="177" y="-391"/>
      <point x="300" y="-215" type="curve"/>
      <point x="1079" y="960" type="line"/>
      <point x="956" y="960" type="line"/>
      <point x="373" y="77" type="line"/>
      <point x="320" y="960" type="line"/>
      <point x="197" y="960" type="line"/>
      <point x="265" y="-75" type="line"/>
      <point x="190" y="-194" type="line"/>
      <point x="128" y="-289"/>
      <point x="70" y="-342"/>
      <point x="-27" y="-342" type="curve" smooth="yes"/>
      <point x="-86" y="-342"/>
      <point x="-151" y="-318"/>
      <point x="-191" y="-263" type="curve"/>
      <point x="-252" y="-363" type="line"/>
      <point x="-171" y="-443"/>
      <point x="-103" y="-450"/>
    </contour>
  </outline>
</glyph>
<glyph name="z" format="2">
  <advance width="922"/>
  <unicode hex="007A"/>
  <anchor x="619" y="960" name="top"/>
  <outline>
    <contour>
      <point x="663" y="0" type="line"/>
      <point x="697" y="104" type="line"/>
      <point x="120" y="104" type="line"/>
      <point x="942" y="861" type="line"/>
      <point x="973" y="960" type="line"/>
      <point x="265" y="960" type="line"/>
      <point x="231" y="856" type="line"/>
      <point x="794" y="856" type="line"/>
      <point x="-28" y="99" type="line"/>
      <point x="-59" y="0" type="line"/>
    </contour>
  </outline>
</glyph>
<glyph name="braceleft" format="2">
  <advance width="697"/>
  <unicode hex="007B"/>
  <outline>
    <contour>
      <point x="332" y="-128" type="line"/>
      <point x="183" y="-142"/>
      <point x="153" y="-102"/>
      <point x="200" y="6" type="curve"/>
      <point x="407" y="462" type="line" smooth="yes"/>
      <point x="472" y="606"/>
      <point x="462" y="668"/>
      <point x="358" y="690" type="curve"/>
      <point x="358" y="692" type="line"/>
      <point x="472" y="712"/>
      <point x="528" y="776"/>
      <point x="557" y="920" type="curve"/>
      <point x="656" y="1374" type="line"/>
      <point x="678" y="1480"/>
      <point x="735" y="1522"/>
      <point x="876" y="1508" type="curve"/>
      <point x="907" y="1604" type="line"/>
      <point x="718" y="1636"/>
      <point x="580" y="1544"/>
      <point x="544" y="1380" type="curve"/>
      <point x="448" y="904" type="line"/>
      <point x="419" y="768"/>
      <point x="386" y="740"/>
      <point x="222" y="740" type="curve"/>
      <point x="190" y="644" type="line"/>
      <point x="354" y="644"/>
      <point x="369" y="616"/>
      <point x="304" y="478" type="curve"/>
      <point x="83" y="-4" type="line"/>
      <point x="10" y="-166"/>
      <point x="82" y="-256"/>
      <point x="301" y="-224" type="curve"/>
    </contour>
  </outline>
</glyph>
<glyph name="bar" format="2">
  <advance width="505"/>
  <unicode hex="007C"/>
  <outline>
    <contour>
      <point x="69" y="-220" type="line"/>
      <point x="675" y="1600" type="line"/>
      <point x="575" y="1600" type="line"/>
      <point x="-31" y="-220" type="line"/>
    </contour>
  </outline>
</glyph>
<glyph name="braceright" format="2">
  <advance width="688"/>
  <unicode hex="007D"/>
  <outline>
    <contour>
      <point x="-37" y="-225" type="qcurve"/>
      <point x="-6" y="-78" type="line"/>
      <point x="97" y="-86"/>
      <point x="186" y="-23"/>
      <point x="192" y="53" type="qcurve"/>
      <point x="223" y="456" type="line" smooth="yes"/>
      <point x="231" y="560"/>
      <point x="319" y="673"/>
      <point x="411" y="690" type="qcurve"/>
      <point x="413" y="692" type="line"/>
      <point x="330" y="708"/>
      <point x="287" y="821"/>
      <point x="325" y="925" type="qcurve"/>
      <point x="462" y="1327" type="line" smooth="yes"/>
      <point x="489" y="1404"/>
      <point x="427" y="1467"/>
      <point x="320" y="1458" type="qcurve"/>
      <point x="352" y="1605" type="line"/>
      <point x="546" y="1628"/>
      <point x="692" y="1480"/>
      <point x="635" y="1322" type="qcurve"/>
      <point x="494" y="917" type="line" smooth="yes"/>
      <point x="472" y="856"/>
      <point x="479" y="790"/>
      <point x="553" y="765"/>
      <point x="633" y="765" type="qcurve"/>
      <point x="600" y="618" type="line"/>
      <point x="521" y="618"/>
      <point x="436" y="594"/>
      <point x="401" y="527"/>
      <point x="398" y="465" type="qcurve"/>
      <point x="367" y="54" type="line"/>
      <point x="357" y="-101"/>
      <point x="150" y="-248"/>
    </contour>
  </outline>
</glyph>
<glyph name="asciitilde" format="2">
  <advance width="1298"/>
  <unicode hex="007E"/>
  <outline>
    <contour>
      <point x="908" y="540" type="qcurve"/>
      <point x="844" y="540"/>
      <point x="727" y="585"/>
      <point x="619" y="643"/>
      <point x="519" y="688"/>
      <point x="472" y="688" type="qcurve"/>
      <point x="420" y="688"/>
      <point x="297" y="624"/>
      <point x="246" y="568" type="qcurve"/>
      <point x="200" y="636" type="line"/>
      <point x="269" y="713"/>
      <point x="414" y="784"/>
      <point x="484" y="784" type="qcurve"/>
      <point x="549" y="784"/>
      <point x="667" y="739"/>
      <point x="773" y="681"/>
      <point x="873" y="636"/>
      <point x="920" y="636" type="qcurve"/>
      <point x="973" y="636"/>
      <point x="1093" y="701"/>
      <point x="1148" y="764" type="qcurve"/>
      <point x="1186" y="684" type="line"/>
      <point x="1117" y="608"/>
      <point x="974" y="540"/>
    </contour>
  </outline>
</glyph>
<glyph name="exclamdown" format="2">
  <advance width="646"/>
  <unicode hex="00A1"/>
  <outline>
    <contour>
      <point x="80" y="-430" type="line"/>
      <point x="379" y="530" type="line"/>
      <point x="279" y="530" type="line"/>
      <point x="-60" y="-430" type="line"/>
    </contour>
    <contour>
      <point x="432" y="792" type="curve" smooth="yes"/>
      <point x="500" y="792"/>
      <point x="564" y="842"/>
      <point x="564" y="915" type="curve" smooth="yes"/>
      <point x="564" y="962"/>
      <point x="525" y="1000"/>
      <point x="469" y="1000" type="curve" smooth="yes"/>
      <point x="401" y="1000"/>
      <point x="338" y="950"/>
      <point x="338" y="877" type="curve" smooth="yes"/>
      <point x="338" y="830"/>
      <point x="376" y="792"/>
    </contour>
  </outline>
</glyph>
<glyph name="cent" format="2">
  <advance width="1296"/>
  <unicode hex="00A2"/>
  <outline>
    <contour>
      <point x="545" y="-160" type="line"/>
      <point x="598" y="-1" type="line"/>
      <point x="726" y="-9"/>
      <point x="845" y="24"/>
      <point x="961" y="96" type="curve"/>
      <point x="898" y="170" type="line"/>
      <point x="836" y="121"/>
      <point x="732" y="89"/>
      <point x="629" y="97" type="curve"/>
      <point x="879" y="846" type="line"/>
      <point x="944" y="833"/>
      <point x="993" y="807"/>
      <point x="1031" y="767" type="curve"/>
      <point x="1122" y="833" type="line"/>
      <point x="1064" y="894"/>
      <point x="999" y="925"/>
      <point x="914" y="941" type="curve"/>
      <point x="970" y="1120" type="line"/>
      <point x="870" y="1120" type="line"/>
      <point x="814" y="951" type="line"/>
      <point x="478" y="951"/>
      <point x="221" y="689"/>
      <point x="221" y="380" type="curve" smooth="yes"/>
      <point x="221" y="200"/>
      <point x="329" y="66"/>
      <point x="501" y="17" type="curve"/>
      <point x="445" y="-160" type="line"/>
    </contour>
    <contour>
      <point x="532" y="111" type="line"/>
      <point x="398" y="153"/>
      <point x="328" y="244"/>
      <point x="328" y="382" type="curve" smooth="yes"/>
      <point x="328" y="646"/>
      <point x="498" y="862"/>
      <point x="782" y="857" type="curve"/>
    </contour>
  </outline>
</glyph>
<glyph name="sterling" format="2">
  <advance width="1296"/>
  <unicode hex="00A3"/>
  <outline>
    <contour>
      <point x="995" y="0" type="line"/>
      <point x="1029" y="104" type="line"/>
      <point x="323" y="104" type="line"/>
      <point x="509" y="214"/>
      <point x="553" y="347"/>
      <point x="553" y="497" type="curve" smooth="yes"/>
      <point x="553" y="642"/>
      <point x="619" y="798"/>
      <point x="619" y="945" type="curve" smooth="yes"/>
      <point x="619" y="1192"/>
      <point x="762" y="1324"/>
      <point x="966" y="1324" type="curve" smooth="yes"/>
      <point x="1098" y="1324"/>
      <point x="1201" y="1286"/>
      <point x="1283" y="1195" type="curve"/>
      <point x="1363" y="1277" type="line"/>
      <point x="1277" y="1370"/>
      <point x="1145" y="1430"/>
      <point x="970" y="1430" type="curve" smooth="yes"/>
      <point x="703" y="1430"/>
      <point x="503" y="1236"/>
      <point x="503" y="959" type="curve" smooth="yes"/>
      <point x="503" y="807"/>
      <point x="457" y="666"/>
      <point x="457" y="520" type="curve" smooth="yes"/>
      <point x="457" y="284"/>
      <point x="338" y="179"/>
      <point x="77" y="107" type="curve"/>
      <point x="43" y="0" type="line"/>
    </contour>
    <contour>
      <point x="1071" y="638" type="line"/>
      <point x="1102" y="738" type="line"/>
      <point x="264" y="738" type="line"/>
      <point x="233" y="638" type="line"/>
    </contour>
  </outline>
</glyph>
<glyph name="currency" format="2">
  <advance width="1296"/>
  <unicode hex="00A4"/>
  <outline>
    <contour>
      <point x="407" y="308" type="line"/>
      <point x="470" y="252"/>
      <point x="545" y="226"/>
      <point x="633" y="226" type="curve" smooth="yes"/>
      <point x="714" y="226"/>
      <point x="801" y="253"/>
      <point x="881" y="311" type="curve"/>
      <point x="1015" y="156" type="line"/>
      <point x="1099" y="230" type="line"/>
      <point x="967" y="381" type="line"/>
      <point x="1044" y="458"/>
      <point x="1090" y="562"/>
      <point x="1090" y="668" type="curve" smooth="yes"/>
      <point x="1090" y="736"/>
      <point x="1074" y="800"/>
      <point x="1035" y="857" type="curve"/>
      <point x="1208" y="1007" type="line"/>
      <point x="1139" y="1086" type="line"/>
      <point x="970" y="937" type="line"/>
      <point x="909" y="990"/>
      <point x="830" y="1016"/>
      <point x="744" y="1016" type="curve" smooth="yes"/>
      <point x="663" y="1016"/>
      <point x="573" y="989"/>
      <point x="491" y="931" type="curve"/>
      <point x="359" y="1086" type="line"/>
      <point x="276" y="1013" type="line"/>
      <point x="407" y="860" type="line"/>
      <point x="336" y="785"/>
      <point x="289" y="686"/>
      <point x="289" y="567" type="curve" smooth="yes"/>
      <point x="289" y="503"/>
      <point x="303" y="439"/>
      <point x="342" y="384" type="curve"/>
      <point x="167" y="233" type="line"/>
      <point x="235" y="156" type="line"/>
    </contour>
    <contour>
      <point x="656" y="326" type="curve" smooth="yes"/>
      <point x="493" y="326"/>
      <point x="387" y="432"/>
      <point x="387" y="580" type="curve" smooth="yes"/>
      <point x="387" y="754"/>
      <point x="536" y="916"/>
      <point x="726" y="916" type="curve" smooth="yes"/>
      <point x="884" y="916"/>
      <point x="990" y="812"/>
      <point x="990" y="663" type="curve" smooth="yes"/>
      <point x="990" y="472"/>
      <point x="835" y="326"/>
    </contour>
  </outline>
</glyph>
<glyph name="yen" format="2">
  <advance width="1296"/>
  <unicode hex="00A5"/>
  <outline>
    <contour>
      <point x="538" y="0" type="line"/>
      <point x="642" y="318" type="line"/>
      <point x="1036" y="318" type="line"/>
      <point x="1070" y="418" type="line"/>
      <point x="676" y="418" type="line"/>
      <point x="745" y="626" type="line"/>
      <point x="1139" y="626" type="line"/>
      <point x="1173" y="726" type="line"/>
      <point x="851" y="726" type="line"/>
      <point x="1516" y="1400" type="line"/>
      <point x="1381" y="1400" type="line"/>
      <point x="721" y="734" type="line"/>
      <point x="527" y="1400" type="line"/>
      <point x="408" y="1400" type="line"/>
      <point x="594" y="726" type="line"/>
      <point x="273" y="726" type="line"/>
      <point x="239" y="626" type="line"/>
      <point x="633" y="626" type="line"/>
      <point x="564" y="418" type="line"/>
      <point x="170" y="418" type="line"/>
      <point x="136" y="318" type="line"/>
      <point x="530" y="318" type="line"/>
      <point x="426" y="0" type="line"/>
    </contour>
  </outline>
</glyph>
<glyph name="brokenbar" format="2">
  <advance width="504"/>
  <unicode hex="00A6"/>
  <outline>
    <contour>
      <point x="391" y="810" type="line"/>
      <point x="571" y="1480" type="line"/>
      <point x="471" y="1480" type="line"/>
      <point x="291" y="810" type="line"/>
    </contour>
    <contour>
      <point x="146" y="-100" type="line"/>
      <point x="325" y="570" type="line"/>
      <point x="225" y="570" type="line"/>
      <point x="46" y="-100" type="line"/>
    </contour>
  </outline>
</glyph>
<glyph name="section" format="2">
  <advance width="1204"/>
  <unicode hex="00A7"/>
  <outline>
    <contour>
      <point x="347" y="-450" type="curve" smooth="yes"/>
      <point x="596" y="-450"/>
      <point x="814" y="-300"/>
      <point x="814" y="-45" type="curve" smooth="yes"/>
      <point x="814" y="86"/>
      <point x="715" y="161"/>
      <point x="554" y="234" type="curve"/>
      <point x="408" y="298"/>
      <point x="305" y="361"/>
      <point x="305" y="478" type="curve" smooth="yes"/>
      <point x="305" y="679"/>
      <point x="505" y="775"/>
      <point x="754" y="777" type="curve"/>
      <point x="782" y="865" type="line"/>
      <point x="522" y="911"/>
      <point x="198" y="732"/>
      <point x="198" y="442" type="curve" smooth="yes"/>
      <point x="198" y="312"/>
      <point x="295" y="219"/>
      <point x="459" y="141" type="curve" smooth="yes"/>
      <point x="622" y="64"/>
      <point x="700" y="13"/>
      <point x="700" y="-78" type="curve" smooth="yes"/>
      <point x="700" y="-244"/>
      <point x="556" y="-346"/>
      <point x="367" y="-346" type="curve" smooth="yes"/>
      <point x="229" y="-346"/>
      <point x="90" y="-295"/>
      <point x="14" y="-191" type="curve"/>
      <point x="-81" y="-277" type="line"/>
      <point x="-1" y="-371"/>
      <point x="163" y="-450"/>
    </contour>
    <contour>
      <point x="514" y="156" type="line"/>
      <point x="795" y="134"/>
      <point x="1068" y="303"/>
      <point x="1068" y="571" type="curve" smooth="yes"/>
      <point x="1068" y="707"/>
      <point x="958" y="792"/>
      <point x="804" y="861" type="curve"/>
      <point x="650" y="927"/>
      <point x="549" y="974"/>
      <point x="549" y="1075" type="curve" smooth="yes"/>
      <point x="549" y="1232"/>
      <point x="678" y="1328"/>
      <point x="849" y="1328" type="curve" smooth="yes"/>
      <point x="995" y="1328"/>
      <point x="1118" y="1274"/>
      <point x="1192" y="1179" type="curve"/>
      <point x="1279" y="1269" type="line"/>
      <point x="1189" y="1374"/>
      <point x="1055" y="1430"/>
      <point x="885" y="1430" type="curve" smooth="yes"/>
      <point x="654" y="1430"/>
      <point x="444" y="1277"/>
      <point x="444" y="1041" type="curve" smooth="yes"/>
      <point x="444" y="924"/>
      <point x="536" y="845"/>
      <point x="700" y="767" type="curve" smooth="yes"/>
      <point x="862" y="692"/>
      <point x="950" y="646"/>
      <point x="950" y="557" type="curve" smooth="yes"/>
      <point x="950" y="361"/>
      <point x="768" y="225"/>
      <point x="541" y="241" type="curve"/>
    </contour>
  </outline>
</glyph>
<glyph name="ordfeminine" format="2">
  <advance width="779"/>
  <unicode hex="00AA"/>
  <anchor x="459" y="722" name="bottom"/>
  <anchor x="734" y="722" name="ogonek"/>
  <anchor x="665" y="1354" name="top"/>
  <outline>
    <contour>
      <point x="418" y="702" type="curve" smooth="yes"/>
      <point x="515" y="702"/>
      <point x="609" y="731"/>
      <point x="664" y="802" type="curve"/>
      <point x="639" y="722" type="line"/>
      <point x="734" y="722" type="line"/>
      <point x="865" y="1097" type="line"/>
      <point x="924" y="1280"/>
      <point x="825" y="1380"/>
      <point x="636" y="1380" type="curve" smooth="yes"/>
      <point x="556" y="1380"/>
      <point x="471" y="1354"/>
      <point x="407" y="1310" type="curve"/>
      <point x="415" y="1229" type="line"/>
      <point x="479" y="1268"/>
      <point x="558" y="1290"/>
      <point x="616" y="1290" type="curve" smooth="yes"/>
      <point x="721" y="1290"/>
      <point x="807" y="1245"/>
      <point x="766" y="1104" type="curve"/>
      <point x="713" y="954" type="line"/>
      <point x="685" y="869"/>
      <point x="581" y="790"/>
      <point x="459" y="790" type="curve" smooth="yes"/>
      <point x="389" y="790"/>
      <point x="334" y="826"/>
      <point x="334" y="882" type="curve" smooth="yes"/>
      <point x="334" y="1045"/>
      <point x="600" y="1038"/>
      <point x="764" y="1017" type="curve"/>
      <point x="789" y="1088" type="line"/>
      <point x="543" y="1127"/>
      <point x="233" y="1100"/>
      <point x="233" y="865" type="curve" smooth="yes"/>
      <point x="233" y="768"/>
      <point x="310" y="702"/>
    </contour>
  </outline>
</glyph>
<glyph name="guillemetleft" format="2">
  <advance width="953"/>
  <unicode hex="00AB"/>
  <outline>
    <contour>
      <point x="750" y="158" type="line"/>
      <point x="567" y="489" type="line"/>
      <point x="957" y="824" type="line"/>
      <point x="906" y="886" type="line"/>
      <point x="446" y="498" type="line"/>
      <point x="670" y="110" type="line"/>
    </contour>
    <contour>
      <point x="370" y="158" type="line"/>
      <point x="187" y="489" type="line"/>
      <point x="577" y="824" type="line"/>
      <point x="526" y="886" type="line"/>
      <point x="66" y="498" type="line"/>
      <point x="290" y="110" type="line"/>
    </contour>
  </outline>
</glyph>
<glyph name="logicalnot" format="2">
  <advance width="1296"/>
  <unicode hex="00AC"/>
  <outline>
    <contour>
      <point x="1108" y="458" type="line"/>
      <point x="1246" y="870" type="line"/>
      <point x="310" y="870" type="line"/>
      <point x="278" y="774" type="line"/>
      <point x="1114" y="774" type="line"/>
      <point x="1008" y="458" type="line"/>
    </contour>
  </outline>
</glyph>
<glyph name="registered" format="2">
  <advance width="1287"/>
  <unicode hex="00AE"/>
  <anchor x="838" y="778" name="bottom"/>
  <anchor x="814" y="988" name="center"/>
  <anchor x="816" y="1198" name="top"/>
  <outline>
    <contour>
      <point x="817" y="478" type="curve" smooth="yes"/>
      <point x="1112" y="478"/>
      <point x="1338" y="697"/>
      <point x="1338" y="985" type="curve" smooth="yes"/>
      <point x="1338" y="1271"/>
      <point x="1110" y="1500"/>
      <point x="811" y="1500" type="curve" smooth="yes"/>
      <point x="513" y="1500"/>
      <point x="290" y="1280"/>
      <point x="290" y="991" type="curve" smooth="yes"/>
      <point x="290" y="700"/>
      <point x="517" y="478"/>
    </contour>
    <contour>
      <point x="817" y="544" type="curve" smooth="yes"/>
      <point x="579" y="544"/>
      <point x="364" y="722"/>
      <point x="364" y="991" type="curve" smooth="yes"/>
      <point x="364" y="1256"/>
      <point x="576" y="1434"/>
      <point x="811" y="1434" type="curve" smooth="yes"/>
      <point x="1049" y="1434"/>
      <point x="1264" y="1256"/>
      <point x="1264" y="985" type="curve" smooth="yes"/>
      <point x="1264" y="719"/>
      <point x="1052" y="544"/>
    </contour>
    <contour>
      <point x="715" y="714" type="line"/>
      <point x="712" y="938" type="line"/>
      <point x="798" y="938" type="line"/>
      <point x="966" y="714" type="line"/>
      <point x="1067" y="714" type="line"/>
      <point x="886" y="950" type="line"/>
      <point x="976" y="964"/>
      <point x="1035" y="1020"/>
      <point x="1035" y="1100" type="curve" smooth="yes"/>
      <point x="1035" y="1197"/>
      <point x="962" y="1262"/>
      <point x="843" y="1262" type="curve" smooth="yes"/>
      <point x="629" y="1262" type="line"/>
      <point x="632" y="714" type="line"/>
    </contour>
    <contour>
      <point x="712" y="1194" type="line"/>
      <point x="838" y="1194" type="line" smooth="yes"/>
      <point x="913" y="1194"/>
      <point x="954" y="1156"/>
      <point x="954" y="1098" type="curve" smooth="yes"/>
      <point x="954" y="1040"/>
      <point x="908" y="1006"/>
      <point x="830" y="1006" type="curve" smooth="yes"/>
      <point x="712" y="1006" type="line"/>
    </contour>
  </outline>
</glyph>
<glyph name="degree" format="2">
  <advance width="942"/>
  <unicode hex="00B0"/>
  <outline>
    <contour>
      <point x="608" y="710" type="curve" smooth="yes"/>
      <point x="820" y="710"/>
      <point x="1035" y="892"/>
      <point x="1035" y="1116" type="curve" smooth="yes"/>
      <point x="1035" y="1285"/>
      <point x="914" y="1420"/>
      <point x="727" y="1420" type="curve" smooth="yes"/>
      <point x="511" y="1420"/>
      <point x="297" y="1238"/>
      <point x="297" y="1013" type="curve" smooth="yes"/>
      <point x="297" y="845"/>
      <point x="420" y="710"/>
    </contour>
    <contour>
      <point x="630" y="806" type="curve" smooth="yes"/>
      <point x="483" y="806"/>
      <point x="397" y="889"/>
      <point x="397" y="1016" type="curve" smooth="yes"/>
      <point x="397" y="1193"/>
      <point x="536" y="1324"/>
      <point x="705" y="1324" type="curve" smooth="yes"/>
      <point x="850" y="1324"/>
      <point x="935" y="1244"/>
      <point x="935" y="1122" type="curve" smooth="yes"/>
      <point x="935" y="957"/>
      <point x="813" y="806"/>
    </contour>
  </outline>
</glyph>
<glyph name="twosuperior" format="2">
  <advance width="830"/>
  <unicode hex="00B2"/>
  <outline>
    <contour>
      <point x="806" y="722" type="line"/>
      <point x="835" y="814" type="line"/>
      <point x="366" y="814" type="line"/>
      <point x="608" y="973" type="line"/>
      <point x="812" y="1102"/>
      <point x="994" y="1240"/>
      <point x="994" y="1430" type="curve" smooth="yes"/>
      <point x="994" y="1567"/>
      <point x="881" y="1652"/>
      <point x="701" y="1652" type="curve" smooth="yes"/>
      <point x="620" y="1652"/>
      <point x="536" y="1633"/>
      <point x="466" y="1590" type="curve"/>
      <point x="485" y="1510" type="line"/>
      <point x="541" y="1545"/>
      <point x="614" y="1558"/>
      <point x="674" y="1558" type="curve" smooth="yes"/>
      <point x="808" y="1558"/>
      <point x="888" y="1506"/>
      <point x="888" y="1414" type="curve" smooth="yes"/>
      <point x="888" y="1254"/>
      <point x="684" y="1113"/>
      <point x="505" y="997" type="curve"/>
      <point x="221" y="804" type="line"/>
      <point x="192" y="722" type="line"/>
    </contour>
  </outline>
</glyph>
<glyph name="threesuperior" format="2">
  <advance width="818"/>
  <unicode hex="00B3"/>
  <outline>
    <contour>
      <point x="455" y="702" type="qcurve" smooth="yes"/>
      <point x="364" y="702"/>
      <point x="189" y="765"/>
      <point x="149" y="811" type="qcurve"/>
      <point x="220" y="927" type="line"/>
      <point x="258" y="886"/>
      <point x="389" y="834"/>
      <point x="459" y="834" type="qcurve" smooth="yes"/>
      <point x="553" y="834"/>
      <point x="676" y="933"/>
      <point x="676" y="1015" type="qcurve" smooth="yes"/>
      <point x="676" y="1083"/>
      <point x="562" y="1160"/>
      <point x="464" y="1160" type="qcurve" smooth="yes"/>
      <point x="445" y="1160"/>
      <point x="401" y="1156"/>
      <point x="381" y="1152" type="qcurve"/>
      <point x="360" y="1243" type="line"/>
      <point x="701" y="1505" type="line"/>
      <point x="297" y="1505" type="line"/>
      <point x="323" y="1632" type="line"/>
      <point x="914" y="1632" type="line"/>
      <point x="891" y="1516" type="line"/>
      <point x="557" y="1253" type="line"/>
      <point x="629" y="1247"/>
      <point x="750" y="1191"/>
      <point x="823" y="1090"/>
      <point x="823" y="1018" type="qcurve" smooth="yes"/>
      <point x="823" y="924"/>
      <point x="724" y="782"/>
      <point x="557" y="702"/>
    </contour>
  </outline>
</glyph>
<glyph name="micro" format="2">
  <advance width="1176"/>
  <unicode hex="00B5"/>
  <outline>
    <contour>
      <point x="-5" y="-420" type="line"/>
      <point x="149" y="123" type="line"/>
      <point x="203" y="13"/>
      <point x="314" y="-30"/>
      <point x="452" y="-30" type="curve" smooth="yes"/>
      <point x="554" y="-30"/>
      <point x="663" y="2"/>
      <point x="769" y="85" type="curve"/>
      <point x="735" y="0" type="line"/>
      <point x="847" y="0" type="line"/>
      <point x="1165" y="960" type="line"/>
      <point x="1053" y="960" type="line"/>
      <point x="847" y="362" type="line"/>
      <point x="785" y="192"/>
      <point x="650" y="78"/>
      <point x="491" y="78" type="curve" smooth="yes"/>
      <point x="298" y="78"/>
      <point x="201" y="248"/>
      <point x="257" y="409" type="curve"/>
      <point x="441" y="960" type="line"/>
      <point x="329" y="960" type="line"/>
      <point x="-127" y="-420" type="line"/>
    </contour>
  </outline>
</glyph>
<glyph name="paragraph" format="2">
  <advance width="1278"/>
  <unicode hex="00B6"/>
  <outline>
    <contour>
      <point x="323" y="-420" type="line"/>
      <point x="554" y="664" type="line"/>
      <point x="595" y="624" type="line"/>
      <point x="469" y="621"/>
      <point x="286" y="709"/>
      <point x="186" y="867"/>
      <point x="186" y="969" type="qcurve" smooth="yes"/>
      <point x="186" y="1101"/>
      <point x="331" y="1295"/>
      <point x="574" y="1400"/>
      <point x="722" y="1400" type="qcurve" smooth="yes"/>
      <point x="1413" y="1400" type="line"/>
      <point x="1384" y="1266" type="line"/>
      <point x="1167" y="1266" type="line"/>
      <point x="808" y="-420" type="line"/>
      <point x="657" y="-420" type="line"/>
      <point x="1016" y="1266" type="line"/>
      <point x="832" y="1266" type="line"/>
      <point x="474" y="-420" type="line"/>
    </contour>
  </outline>
</glyph>
<glyph name="onesuperior" format="2">
  <advance width="652"/>
  <unicode hex="00B9"/>
  <outline>
    <contour>
      <point x="397" y="722" type="line"/>
      <point x="558" y="1467" type="line"/>
      <point x="298" y="1386" type="line"/>
      <point x="261" y="1501" type="line"/>
      <point x="724" y="1652" type="line"/>
      <point x="737" y="1652" type="line"/>
      <point x="539" y="722" type="line"/>
    </contour>
  </outline>
</glyph>
<glyph name="ordmasculine" format="2">
  <advance width="844"/>
  <unicode hex="00BA"/>
  <anchor x="590" y="1354" name="top"/>
  <anchor x="852" y="1354" name="horn"/>
  <anchor x="492" y="722" name="bottom"/>
  <outline>
    <contour>
      <point x="508" y="702" type="qcurve"/>
      <point x="413" y="702"/>
      <point x="270" y="783"/>
      <point x="190" y="920"/>
      <point x="190" y="1004" type="qcurve"/>
      <point x="190" y="1103"/>
      <point x="296" y="1272"/>
      <point x="471" y="1374"/>
      <point x="574" y="1374" type="qcurve"/>
      <point x="669" y="1374"/>
      <point x="812" y="1292"/>
      <point x="892" y="1156"/>
      <point x="892" y="1074" type="qcurve"/>
      <point x="892" y="973"/>
      <point x="786" y="804"/>
      <point x="611" y="702"/>
    </contour>
    <contour>
      <point x="518" y="796" type="qcurve"/>
      <point x="598" y="796"/>
      <point x="719" y="871"/>
      <point x="786" y="997"/>
      <point x="786" y="1072" type="qcurve"/>
      <point x="786" y="1168"/>
      <point x="663" y="1280"/>
      <point x="564" y="1280" type="qcurve"/>
      <point x="483" y="1280"/>
      <point x="363" y="1204"/>
      <point x="296" y="1078"/>
      <point x="296" y="1004" type="qcurve"/>
      <point x="296" y="908"/>
      <point x="418" y="796"/>
    </contour>
  </outline>
</glyph>
<glyph name="guillemetright" format="2">
  <advance width="951"/>
  <unicode hex="00BB"/>
  <outline>
    <contour>
      <point x="898" y="498" type="line"/>
      <point x="674" y="886" type="line"/>
      <point x="594" y="838" type="line"/>
      <point x="777" y="507" type="line"/>
      <point x="386" y="172" type="line"/>
      <point x="438" y="110" type="line"/>
    </contour>
    <contour>
      <point x="518" y="498" type="line"/>
      <point x="294" y="886" type="line"/>
      <point x="214" y="838" type="line"/>
      <point x="397" y="507" type="line"/>
      <point x="6" y="172" type="line"/>
      <point x="58" y="110" type="line"/>
    </contour>
  </outline>
</glyph>
<glyph name="onequarter" format="2">
  <advance width="1842"/>
  <unicode hex="00BC"/>
  <outline>
    <contour>
      <point x="347" y="490" type="line"/>
      <point x="508" y="1235" type="line"/>
      <point x="248" y="1154" type="line"/>
      <point x="211" y="1269" type="line"/>
      <point x="674" y="1420" type="line"/>
      <point x="687" y="1420" type="line"/>
      <point x="489" y="490" type="line"/>
    </contour>
    <contour>
      <point x="1403" y="0" type="line"/>
      <point x="1443" y="185" type="line"/>
      <point x="977" y="185" type="line"/>
      <point x="999" y="298" type="line"/>
      <point x="1460" y="910" type="line"/>
      <point x="1621" y="910" type="line"/>
      <point x="1168" y="311" type="line"/>
      <point x="1468" y="311" type="line"/>
      <point x="1511" y="511" type="line"/>
      <point x="1642" y="511" type="line"/>
      <point x="1599" y="311" type="line"/>
      <point x="1744" y="311" type="line"/>
      <point x="1717" y="185" type="line"/>
      <point x="1574" y="185" type="line"/>
      <point x="1535" y="0" type="line"/>
    </contour>
    <contour>
      <point x="404" y="-33" type="line"/>
      <point x="306" y="43" type="line"/>
      <point x="1384" y="1433" type="line"/>
      <point x="1479" y="1359" type="line"/>
    </contour>
  </outline>
</glyph>
<glyph name="threequarters" format="2">
  <advance width="1990"/>
  <unicode hex="00BE"/>
  <outline>
    <contour>
      <point x="406" y="470" type="qcurve"/>
      <point x="319" y="470"/>
      <point x="149" y="529"/>
      <point x="106" y="572" type="qcurve"/>
      <point x="160" y="656" type="line"/>
      <point x="202" y="617"/>
      <point x="337" y="566"/>
      <point x="410" y="566" type="qcurve"/>
      <point x="518" y="566"/>
      <point x="658" y="683"/>
      <point x="658" y="780" type="qcurve"/>
      <point x="658" y="858"/>
      <point x="526" y="948"/>
      <point x="412" y="948" type="qcurve"/>
      <point x="393" y="948"/>
      <point x="350" y="945"/>
      <point x="332" y="942" type="qcurve"/>
      <point x="316" y="1006" type="line"/>
      <point x="698" y="1308" type="line"/>
      <point x="260" y="1308" type="line"/>
      <point x="280" y="1400" type="line"/>
      <point x="856" y="1400" type="line"/>
      <point x="840" y="1316" type="line"/>
      <point x="466" y="1022" type="line"/>
      <point x="548" y="1018"/>
      <point x="684" y="963"/>
      <point x="766" y="860"/>
      <point x="766" y="784" type="qcurve"/>
      <point x="766" y="692"/>
      <point x="669" y="550"/>
      <point x="506" y="470"/>
    </contour>
    <contour>
      <point x="1570" y="0" type="line"/>
      <point x="1612" y="196" type="line"/>
      <point x="1132" y="196" type="line"/>
      <point x="1148" y="280" type="line"/>
      <point x="1642" y="910" type="line"/>
      <point x="1758" y="910" type="line"/>
      <point x="1268" y="288" type="line"/>
      <point x="1630" y="288" type="line"/>
      <point x="1676" y="504" type="line"/>
      <point x="1772" y="504" type="line"/>
      <point x="1726" y="288" type="line"/>
      <point x="1882" y="288" type="line"/>
      <point x="1862" y="196" type="line"/>
      <point x="1708" y="196" type="line"/>
      <point x="1666" y="0" type="line"/>
    </contour>
    <contour>
      <point x="548" y="-30" type="line"/>
      <point x="482" y="20" type="line"/>
      <point x="1570" y="1430" type="line"/>
      <point x="1632" y="1382" type="line"/>
    </contour>
  </outline>
</glyph>
<glyph name="questiondown" format="2">
  <advance width="983"/>
  <unicode hex="00BF"/>
  <outline>
    <contour>
      <point x="387" y="-439" type="qcurve" smooth="yes"/>
      <point x="264" y="-439"/>
      <point x="75" y="-362"/>
      <point x="-32" y="-222"/>
      <point x="-32" y="-126" type="qcurve" smooth="yes"/>
      <point x="-32" y="-42"/>
      <point x="42" y="83"/>
      <point x="176" y="186"/>
      <point x="267" y="238" type="qcurve" smooth="yes"/>
      <point x="336" y="277"/>
      <point x="422" y="358"/>
      <point x="466" y="474"/>
      <point x="473" y="569" type="qcurve"/>
      <point x="663" y="569" type="line"/>
      <point x="660" y="450"/>
      <point x="611" y="302"/>
      <point x="506" y="202"/>
      <point x="421" y="152" type="qcurve" smooth="yes"/>
      <point x="311" y="87"/>
      <point x="198" y="-7"/>
      <point x="198" y="-82" type="qcurve" smooth="yes"/>
      <point x="198" y="-165"/>
      <point x="325" y="-251"/>
      <point x="441" y="-251" type="qcurve" smooth="yes"/>
      <point x="517" y="-251"/>
      <point x="654" y="-215"/>
      <point x="710" y="-180" type="qcurve"/>
      <point x="733" y="-352" type="line"/>
      <point x="686" y="-380"/>
      <point x="577" y="-418"/>
      <point x="454" y="-439"/>
    </contour>
    <contour>
      <point x="588" y="742" type="qcurve" smooth="yes"/>
      <point x="529" y="742"/>
      <point x="456" y="810"/>
      <point x="456" y="867" type="qcurve" smooth="yes"/>
      <point x="456" y="911"/>
      <point x="501" y="981"/>
      <point x="576" y="1021"/>
      <point x="620" y="1021" type="qcurve" smooth="yes"/>
      <point x="679" y="1021"/>
      <point x="754" y="952"/>
      <point x="754" y="895" type="qcurve" smooth="yes"/>
      <point x="754" y="850"/>
      <point x="708" y="781"/>
      <point x="633" y="742"/>
    </contour>
  </outline>
</glyph>
<glyph name="AE" format="2">
  <advance width="1739"/>
  <unicode hex="00C6"/>
  <anchor x="1428" y="1400" name="top"/>
  <outline>
    <contour>
      <point x="-31" y="0" type="line"/>
      <point x="274" y="380" type="line"/>
      <point x="735" y="380" type="line"/>
      <point x="610" y="0" type="line"/>
      <point x="1430" y="0" type="line"/>
      <point x="1464" y="108" type="line"/>
      <point x="760" y="108" type="line"/>
      <point x="954" y="688" type="line"/>
      <point x="1582" y="688" type="line"/>
      <point x="1616" y="796" type="line"/>
      <point x="988" y="796" type="line"/>
      <point x="1154" y="1292" type="line"/>
      <point x="1850" y="1292" type="line"/>
      <point x="1884" y="1400" type="line"/>
      <point x="1002" y="1400" type="line"/>
      <point x="-169" y="0" type="line"/>
    </contour>
    <contour>
      <point x="1041" y="1296" type="line"/>
      <point x="769" y="484" type="line"/>
      <point x="354" y="484" type="line"/>
    </contour>
  </outline>
</glyph>
<glyph name="Eth" format="2">
  <advance width="1474"/>
  <unicode hex="00D0"/>
  <anchor x="924" y="1400" name="top"/>
  <anchor x="529" y="733" name="strokeshort"/>
  <outline>
    <contour>
      <point x="75" y="656" type="line"/>
      <point x="107" y="810" type="line"/>
      <point x="950" y="810" type="line"/>
      <point x="917" y="656" type="line"/>
    </contour>
    <contour>
      <point x="124" y="0" type="line"/>
      <point x="420" y="1400" type="line"/>
      <point x="709" y="1400" type="line" smooth="yes"/>
      <point x="913" y="1400"/>
      <point x="1233" y="1260"/>
      <point x="1417" y="989"/>
      <point x="1417" y="792" type="qcurve" smooth="yes"/>
      <point x="1417" y="616"/>
      <point x="1299" y="325"/>
      <point x="1081" y="114"/>
      <point x="781" y="0"/>
      <point x="599" y="0" type="qcurve" smooth="yes"/>
    </contour>
    <contour>
      <point x="366" y="188" type="line"/>
      <point x="632" y="188" type="line" smooth="yes"/>
      <point x="761" y="188"/>
      <point x="971" y="277"/>
      <point x="1123" y="435"/>
      <point x="1205" y="647"/>
      <point x="1205" y="771" type="qcurve" smooth="yes"/>
      <point x="1205" y="906"/>
      <point x="1086" y="1104"/>
      <point x="867" y="1212"/>
      <point x="716" y="1212" type="qcurve" smooth="yes"/>
      <point x="583" y="1212" type="line"/>
    </contour>
  </outline>
</glyph>
<glyph name="multiply" format="2">
  <advance width="1296"/>
  <unicode hex="00D7"/>
  <outline>
    <contour>
      <point x="692" y="595" type="line"/>
      <point x="915" y="274" type="line"/>
      <point x="998" y="339" type="line"/>
      <point x="781" y="659" type="line"/>
      <point x="1217" y="980" type="line"/>
      <point x="1171" y="1055" type="line"/>
      <point x="729" y="732" type="line"/>
      <point x="508" y="1052" type="line"/>
      <point x="423" y="985" type="line"/>
      <point x="643" y="667" type="line"/>
      <point x="201" y="344" type="line"/>
      <point x="252" y="271" type="line"/>
    </contour>
  </outline>
</glyph>
<glyph name="Oslash" format="2">
  <advance width="1707"/>
  <unicode hex="00D8"/>
  <anchor x="1102" y="1400" name="top"/>
  <outline>
    <contour>
      <point x="354" y="143" type="line"/>
      <point x="466" y="34"/>
      <point x="621" y="-30"/>
      <point x="811" y="-30" type="curve" smooth="yes"/>
      <point x="1269" y="-30"/>
      <point x="1669" y="377"/>
      <point x="1669" y="825" type="curve" smooth="yes"/>
      <point x="1669" y="958"/>
      <point x="1634" y="1078"/>
      <point x="1566" y="1179" type="curve"/>
      <point x="1736" y="1322" type="line"/>
      <point x="1669" y="1400" type="line"/>
      <point x="1500" y="1255" type="line"/>
      <point x="1386" y="1364"/>
      <point x="1231" y="1430"/>
      <point x="1040" y="1430" type="curve" smooth="yes"/>
      <point x="581" y="1430"/>
      <point x="185" y="1025"/>
      <point x="185" y="572" type="curve" smooth="yes"/>
      <point x="185" y="438"/>
      <point x="221" y="317"/>
      <point x="286" y="219" type="curve"/>
      <point x="118" y="78" type="line"/>
      <point x="186" y="0" type="line"/>
    </contour>
    <contour>
      <point x="382" y="301" type="line"/>
      <point x="332" y="375"/>
      <point x="309" y="468"/>
      <point x="309" y="575" type="curve" smooth="yes"/>
      <point x="309" y="969"/>
      <point x="616" y="1318"/>
      <point x="1024" y="1318" type="curve" smooth="yes"/>
      <point x="1178" y="1318"/>
      <point x="1314" y="1268"/>
      <point x="1406" y="1176" type="curve"/>
    </contour>
    <contour>
      <point x="830" y="82" type="curve" smooth="yes"/>
      <point x="676" y="82"/>
      <point x="540" y="133"/>
      <point x="448" y="224" type="curve"/>
      <point x="1472" y="1099" type="line"/>
      <point x="1522" y="1025"/>
      <point x="1546" y="932"/>
      <point x="1546" y="825" type="curve" smooth="yes"/>
      <point x="1546" y="431"/>
      <point x="1238" y="82"/>
    </contour>
  </outline>
</glyph>
<glyph name="Thorn" format="2">
  <advance width="1285"/>
  <unicode hex="00DE"/>
  <outline>
    <contour>
      <point x="84" y="0" type="line"/>
      <point x="380" y="1400" type="line"/>
      <point x="583" y="1400" type="line"/>
      <point x="529" y="1144" type="line"/>
      <point x="778" y="1144" type="line" smooth="yes"/>
      <point x="927" y="1144"/>
      <point x="1143" y="1052"/>
      <point x="1260" y="883"/>
      <point x="1260" y="766" type="qcurve" smooth="yes"/>
      <point x="1260" y="619"/>
      <point x="1122" y="408"/>
      <point x="880" y="296"/>
      <point x="722" y="296" type="qcurve" smooth="yes"/>
      <point x="349" y="296" type="line"/>
      <point x="287" y="0" type="line"/>
    </contour>
    <contour>
      <point x="386" y="472" type="line"/>
      <point x="746" y="472" type="line" smooth="yes"/>
      <point x="886" y="472"/>
      <point x="1055" y="619"/>
      <point x="1055" y="744" type="qcurve" smooth="yes"/>
      <point x="1055" y="851"/>
      <point x="904" y="965"/>
      <point x="761" y="965" type="qcurve" smooth="yes"/>
      <point x="491" y="965" type="line"/>
    </contour>
  </outline>
</glyph>
<glyph name="germandbls" format="2">
  <advance width="1207"/>
  <unicode hex="00DF"/>
  <outline>
    <contour>
      <point x="626" y="-30" type="curve" smooth="yes"/>
      <point x="879" y="-30"/>
      <point x="1054" y="102"/>
      <point x="1054" y="311" type="curve" smooth="yes"/>
      <point x="1054" y="426"/>
      <point x="981" y="498"/>
      <point x="902" y="561" type="curve" smooth="yes"/>
      <point x="846" y="604"/>
      <point x="782" y="648"/>
      <point x="782" y="720" type="curve" smooth="yes"/>
      <point x="782" y="794"/>
      <point x="858" y="842"/>
      <point x="933" y="900" type="curve" smooth="yes"/>
      <point x="1037" y="980"/>
      <point x="1159" y="1042"/>
      <point x="1159" y="1207" type="curve" smooth="yes"/>
      <point x="1159" y="1360"/>
      <point x="1025" y="1470"/>
      <point x="798" y="1470" type="curve" smooth="yes"/>
      <point x="579" y="1470"/>
      <point x="451" y="1326"/>
      <point x="376" y="1092" type="curve"/>
      <point x="11" y="0" type="line"/>
      <point x="123" y="0" type="line"/>
      <point x="476" y="1060" type="line"/>
      <point x="538" y="1256"/>
      <point x="613" y="1362"/>
      <point x="777" y="1362" type="curve" smooth="yes"/>
      <point x="934" y="1362"/>
      <point x="1037" y="1301"/>
      <point x="1037" y="1196" type="curve" smooth="yes"/>
      <point x="1037" y="1084"/>
      <point x="949" y="1040"/>
      <point x="852" y="963" type="curve" smooth="yes"/>
      <point x="774" y="902"/>
      <point x="654" y="832"/>
      <point x="654" y="703" type="curve" smooth="yes"/>
      <point x="654" y="600"/>
      <point x="740" y="527"/>
      <point x="808" y="471" type="curve" smooth="yes"/>
      <point x="872" y="418"/>
      <point x="929" y="376"/>
      <point x="929" y="285" type="curve" smooth="yes"/>
      <point x="929" y="148"/>
      <point x="816" y="74"/>
      <point x="660" y="74" type="curve" smooth="yes"/>
      <point x="594" y="74"/>
      <point x="508" y="87"/>
      <point x="439" y="131" type="curve"/>
      <point x="363" y="44" type="line"/>
      <point x="446" y="-19"/>
      <point x="564" y="-30"/>
    </contour>
  </outline>
</glyph>
<glyph name="ae" format="2">
  <advance width="1762"/>
  <unicode hex="00E6"/>
  <anchor x="935" y="960" name="top"/>
  <outline>
    <contour>
      <point x="361" y="-30" type="qcurve"/>
      <point x="222" y="-30"/>
      <point x="51" y="111"/>
      <point x="51" y="228" type="qcurve"/>
      <point x="51" y="363"/>
      <point x="237" y="531"/>
      <point x="586" y="587"/>
      <point x="829" y="554" type="qcurve"/>
      <point x="809" y="460" type="line"/>
      <point x="603" y="485"/>
      <point x="315" y="452"/>
      <point x="165" y="340"/>
      <point x="165" y="246" type="qcurve"/>
      <point x="165" y="170"/>
      <point x="282" y="78"/>
      <point x="379" y="78" type="qcurve"/>
      <point x="472" y="78"/>
      <point x="631" y="152"/>
      <point x="740" y="284"/>
      <point x="759" y="370" type="qcurve"/>
      <point x="809" y="604" type="line"/>
      <point x="838" y="739"/>
      <point x="709" y="892"/>
      <point x="565" y="892" type="qcurve"/>
      <point x="493" y="892"/>
      <point x="331" y="839"/>
      <point x="263" y="792" type="qcurve"/>
      <point x="245" y="894" type="line"/>
      <point x="314" y="945"/>
      <point x="489" y="1000"/>
      <point x="577" y="1000" type="qcurve"/>
      <point x="732" y="1000"/>
      <point x="915" y="878"/>
      <point x="933" y="764" type="qcurve"/>
      <point x="885" y="766" type="line"/>
      <point x="966" y="877"/>
      <point x="1176" y="990"/>
      <point x="1303" y="990" type="qcurve"/>
      <point x="1445" y="990"/>
      <point x="1636" y="856"/>
      <point x="1711" y="620"/>
      <point x="1679" y="468" type="qcurve"/>
      <point x="897" y="468" type="line"/>
      <point x="870" y="293"/>
      <point x="1062" y="78"/>
      <point x="1243" y="78" type="qcurve"/>
      <point x="1309" y="78"/>
      <point x="1441" y="124"/>
      <point x="1495" y="166" type="qcurve"/>
      <point x="1543" y="66" type="line"/>
      <point x="1497" y="35"/>
      <point x="1392" y="-8"/>
      <point x="1281" y="-30"/>
      <point x="1225" y="-30" type="qcurve"/>
      <point x="1069" y="-30"/>
      <point x="836" y="128"/>
      <point x="791" y="264" type="qcurve"/>
      <point x="863" y="370" type="line"/>
      <point x="838" y="255"/>
      <point x="690" y="74"/>
      <point x="480" y="-30"/>
    </contour>
    <contour>
      <point x="919" y="572" type="qcurve"/>
      <point x="1575" y="572" type="line"/>
      <point x="1581" y="721"/>
      <point x="1440" y="882"/>
      <point x="1285" y="882" type="qcurve"/>
      <point x="1140" y="882"/>
      <point x="949" y="713"/>
    </contour>
  </outline>
</glyph>
<glyph name="eth" format="2">
  <advance width="1157"/>
  <unicode hex="00F0"/>
  <outline>
    <contour>
      <point x="499" y="-30" type="curve" smooth="yes"/>
      <point x="841" y="-30"/>
      <point x="1084" y="259"/>
      <point x="1084" y="637" type="curve" smooth="yes"/>
      <point x="1084" y="924"/>
      <point x="940" y="1205"/>
      <point x="653" y="1470" type="curve"/>
      <point x="542" y="1407" type="line"/>
      <point x="750" y="1234"/>
      <point x="878" y="1039"/>
      <point x="941" y="834" type="curve"/>
      <point x="959" y="829" type="line"/>
      <point x="882" y="915"/>
      <point x="771" y="970"/>
      <point x="636" y="970" type="curve" smooth="yes"/>
      <point x="337" y="970"/>
      <point x="76" y="702"/>
      <point x="76" y="394" type="curve" smooth="yes"/>
      <point x="76" y="160"/>
      <point x="239" y="-30"/>
    </contour>
    <contour>
      <point x="522" y="78" type="curve" smooth="yes"/>
      <point x="323" y="78"/>
      <point x="194" y="197"/>
      <point x="194" y="384" type="curve" smooth="yes"/>
      <point x="194" y="629"/>
      <point x="358" y="862"/>
      <point x="618" y="862" type="curve" smooth="yes"/>
      <point x="823" y="862"/>
      <point x="951" y="738"/>
      <point x="951" y="543" type="curve" smooth="yes"/>
      <point x="951" y="296"/>
      <point x="785" y="78"/>
    </contour>
    <contour>
      <point x="747" y="1232" type="line"/>
      <point x="750" y="1234" type="line"/>
      <point x="1031" y="1351" type="line"/>
      <point x="1057" y="1454" type="line"/>
      <point x="765" y="1332" type="line"/>
      <point x="765" y="1330" type="line"/>
      <point x="464" y="1209" type="line"/>
      <point x="439" y="1109" type="line"/>
    </contour>
  </outline>
</glyph>
<glyph name="divide" format="2">
  <advance width="1296"/>
  <unicode hex="00F7"/>
  <outline>
    <contour>
      <point x="1159" y="616" type="line"/>
      <point x="1191" y="712" type="line"/>
      <point x="257" y="712" type="line"/>
      <point x="225" y="616" type="line"/>
    </contour>
    <contour>
      <point x="568" y="200" type="curve" smooth="yes"/>
      <point x="629" y="200"/>
      <point x="692" y="249"/>
      <point x="692" y="312" type="curve" smooth="yes"/>
      <point x="692" y="358"/>
      <point x="654" y="392"/>
      <point x="606" y="392" type="curve" smooth="yes"/>
      <point x="544" y="392"/>
      <point x="484" y="343"/>
      <point x="484" y="280" type="curve" smooth="yes"/>
      <point x="484" y="234"/>
      <point x="519" y="200"/>
    </contour>
    <contour>
      <point x="812" y="932" type="curve" smooth="yes"/>
      <point x="876" y="932"/>
      <point x="936" y="983"/>
      <point x="936" y="1044" type="curve" smooth="yes"/>
      <point x="936" y="1090"/>
      <point x="901" y="1124"/>
      <point x="850" y="1124" type="curve" smooth="yes"/>
      <point x="787" y="1124"/>
      <point x="728" y="1075"/>
      <point x="728" y="1009" type="curve" smooth="yes"/>
      <point x="728" y="966"/>
      <point x="762" y="932"/>
    </contour>
  </outline>
</glyph>
<glyph name="oslash" format="2">
  <advance width="1216"/>
  <unicode hex="00F8"/>
  <anchor x="712" y="984" name="top"/>
  <outline>
    <contour>
      <point x="145" y="-52" type="line"/>
      <point x="50" y="44" type="line"/>
      <point x="162" y="155" type="line"/>
      <point x="118" y="214"/>
      <point x="71" y="358"/>
      <point x="71" y="438" type="qcurve" smooth="yes"/>
      <point x="71" y="555"/>
      <point x="165" y="763"/>
      <point x="329" y="923"/>
      <point x="542" y="1014"/>
      <point x="660" y="1014" type="qcurve" smooth="yes"/>
      <point x="746" y="1014"/>
      <point x="896" y="967"/>
      <point x="953" y="923" type="qcurve"/>
      <point x="1070" y="1037" type="line"/>
      <point x="1165" y="940" type="line"/>
      <point x="1052" y="830" type="line"/>
      <point x="1098" y="772"/>
      <point x="1144" y="627"/>
      <point x="1144" y="545" type="qcurve" smooth="yes"/>
      <point x="1144" y="429"/>
      <point x="1050" y="221"/>
      <point x="886" y="61"/>
      <point x="673" y="-30"/>
      <point x="556" y="-30" type="qcurve" smooth="yes"/>
      <point x="469" y="-30"/>
      <point x="320" y="18"/>
      <point x="262" y="61" type="qcurve"/>
    </contour>
    <contour>
      <point x="305" y="288" type="qcurve"/>
      <point x="823" y="791" type="line"/>
      <point x="788" y="817"/>
      <point x="699" y="845"/>
      <point x="646" y="845" type="qcurve" smooth="yes"/>
      <point x="531" y="845"/>
      <point x="360" y="733"/>
      <point x="264" y="548"/>
      <point x="264" y="437" type="qcurve" smooth="yes"/>
      <point x="264" y="393"/>
      <point x="285" y="317"/>
    </contour>
    <contour>
      <point x="565" y="139" type="qcurve" smooth="yes"/>
      <point x="680" y="139"/>
      <point x="855" y="250"/>
      <point x="952" y="437"/>
      <point x="952" y="550" type="qcurve" smooth="yes"/>
      <point x="952" y="594"/>
      <point x="932" y="669"/>
      <point x="911" y="698" type="qcurve"/>
      <point x="390" y="192" type="line"/>
      <point x="424" y="167"/>
      <point x="512" y="139"/>
    </contour>
  </outline>
</glyph>
<glyph name="thorn" format="2">
  <advance width="1294"/>
  <unicode hex="00FE"/>
  <outline>
    <contour>
      <point x="-35" y="-420" type="line"/>
      <point x="360" y="1440" type="line"/>
      <point x="558" y="1440" type="line"/>
      <point x="438" y="875" type="line"/>
      <point x="502" y="936"/>
      <point x="664" y="1014"/>
      <point x="771" y="1014" type="qcurve" smooth="yes"/>
      <point x="911" y="1014"/>
      <point x="1115" y="894"/>
      <point x="1224" y="690"/>
      <point x="1224" y="563" type="qcurve" smooth="yes"/>
      <point x="1224" y="445"/>
      <point x="1140" y="231"/>
      <point x="988" y="65"/>
      <point x="785" y="-30"/>
      <point x="667" y="-30" type="qcurve" smooth="yes"/>
      <point x="533" y="-30"/>
      <point x="340" y="72"/>
      <point x="285" y="154" type="qcurve"/>
      <point x="162" y="-420" type="line"/>
    </contour>
    <contour>
      <point x="653" y="148" type="qcurve" smooth="yes"/>
      <point x="763" y="148"/>
      <point x="929" y="257"/>
      <point x="1022" y="438"/>
      <point x="1022" y="548" type="qcurve" smooth="yes"/>
      <point x="1022" y="636"/>
      <point x="946" y="766"/>
      <point x="810" y="836"/>
      <point x="720" y="836" type="qcurve" smooth="yes"/>
      <point x="608" y="836"/>
      <point x="442" y="726"/>
      <point x="349" y="546"/>
      <point x="349" y="440" type="qcurve" smooth="yes"/>
      <point x="349" y="351"/>
      <point x="426" y="220"/>
      <point x="562" y="148"/>
    </contour>
  </outline>
</glyph>
<glyph name="dcroat" format="2">
  <advance width="1267"/>
  <unicode hex="0111"/>
  <anchor x="1224" y="1204" name="bar"/>
  <anchor x="1414" y="1440" name="caron"/>
  <outline>
    <component base="d"/>
    <contour>
      <point x="1456" y="1152" type="line"/>
      <point x="1491" y="1256" type="line"/>
      <point x="871" y="1256" type="line"/>
      <point x="836" y="1152" type="line"/>
    </contour>
  </outline>
</glyph>
<glyph name="Hbar" format="2">
  <advance width="1478"/>
  <unicode hex="0126"/>
  <outline>
    <contour>
      <point x="1100" y="0" type="line"/>
      <point x="1562" y="1400" type="line"/>
      <point x="1446" y="1400" type="line"/>
      <point x="984" y="0" type="line"/>
    </contour>
    <contour>
      <point x="180" y="0" type="line"/>
      <point x="642" y="1400" type="line"/>
      <point x="526" y="1400" type="line"/>
      <point x="64" y="0" type="line"/>
    </contour>
    <contour>
      <point x="1231" y="658" type="line"/>
      <point x="1265" y="766" type="line"/>
      <point x="407" y="766" type="line"/>
      <point x="373" y="658" type="line"/>
    </contour>
    <contour>
      <point x="1640" y="1030" type="line"/>
      <point x="1669" y="1118" type="line"/>
      <point x="233" y="1118" type="line"/>
      <point x="204" y="1030" type="line"/>
    </contour>
  </outline>
</glyph>
<glyph name="idotless" format="2">
  <advance width="452"/>
  <unicode hex="0131"/>
  <anchor x="67" y="0" name="bottom"/>
  <anchor x="123" y="0" name="ogonek"/>
  <anchor x="385" y="960" name="top"/>
  <outline>
    <contour>
      <point x="123" y="0" type="line"/>
      <point x="441" y="960" type="line"/>
      <point x="329" y="960" type="line"/>
      <point x="11" y="0" type="line"/>
    </contour>
  </outline>
</glyph>
<glyph name="kgreenlandic" format="2">
  <advance width="1029"/>
  <unicode hex="0138"/>
  <outline>
    <contour>
      <point x="123" y="0" type="line"/>
      <point x="241" y="356" type="line"/>
      <point x="489" y="542" type="line"/>
      <point x="679" y="0" type="line"/>
      <point x="810" y="0" type="line"/>
      <point x="593" y="608" type="line"/>
      <point x="1053" y="960" type="line"/>
      <point x="904" y="960" type="line"/>
      <point x="291" y="503" type="line"/>
      <point x="445" y="960" type="line"/>
      <point x="329" y="960" type="line"/>
      <point x="11" y="0" type="line"/>
    </contour>
  </outline>
</glyph>
<glyph name="Lslash" format="2">
  <advance width="1097"/>
  <unicode hex="0141"/>
  <anchor x="472" y="0" name="bottom"/>
  <anchor x="683" y="1440" name="caron"/>
  <anchor x="609" y="1400" name="top"/>
  <outline>
    <component base="L" yxScale="0.00367187" xOffset="40"/>
    <contour>
      <point x="344" y="614" type="line"/>
      <point x="341" y="604" type="line"/>
      <point x="1079" y="905" type="line"/>
      <point x="1049" y="978" type="line"/>
      <point x="372" y="702" type="line"/>
      <point x="375" y="712" type="line"/>
      <point x="81" y="590" type="line"/>
      <point x="110" y="518" type="line"/>
    </contour>
  </outline>
</glyph>
<glyph name="lslash" format="2">
  <advance width="710"/>
  <unicode hex="0142"/>
  <anchor x="134" y="0" name="bottom"/>
  <anchor x="676" y="1440" name="caron"/>
  <anchor x="620" y="1440" name="top"/>
  <outline>
    <component base="l" yxScale="0.00367187" xOffset="76"/>
    <contour>
      <point x="343" y="602" type="line"/>
      <point x="340" y="592" type="line"/>
      <point x="623" y="706" type="line"/>
      <point x="593" y="783" type="line"/>
      <point x="362" y="690" type="line"/>
      <point x="365" y="700" type="line"/>
      <point x="81" y="582" type="line"/>
      <point x="109" y="508" type="line"/>
    </contour>
  </outline>
</glyph>
<glyph name="Eng" format="2">
  <advance width="1453"/>
  <unicode hex="014A"/>
  <outline>
    <contour>
      <point x="1091" y="158" type="line"/>
      <point x="553" y="1400" type="line"/>
      <point x="448" y="1400" type="line"/>
      <point x="73" y="0" type="line"/>
      <point x="189" y="0" type="line"/>
      <point x="511" y="1201" type="line"/>
      <point x="1040" y="-37" type="line"/>
    </contour>
    <contour>
      <point x="800" y="-450" type="curve" smooth="yes"/>
      <point x="931" y="-450"/>
      <point x="1027" y="-364"/>
      <point x="1072" y="-194" type="curve" smooth="yes"/>
      <point x="1500" y="1400" type="line"/>
      <point x="1384" y="1400" type="line"/>
      <point x="961" y="-174" type="line" smooth="yes"/>
      <point x="931" y="-287"/>
      <point x="886" y="-342"/>
      <point x="799" y="-342" type="curve" smooth="yes"/>
      <point x="735" y="-342"/>
      <point x="707" y="-330"/>
      <point x="677" y="-311" type="curve"/>
      <point x="619" y="-402" type="line"/>
      <point x="659" y="-425"/>
      <point x="724" y="-450"/>
    </contour>
  </outline>
</glyph>
<glyph name="eng" format="2">
  <advance width="1148"/>
  <unicode hex="014B"/>
  <outline>
    <contour>
      <point x="477" y="-450" type="curve" smooth="yes"/>
      <point x="606" y="-450"/>
      <point x="708" y="-369"/>
      <point x="764" y="-194" type="curve"/>
      <point x="1042" y="646" type="line" smooth="yes"/>
      <point x="1108" y="846"/>
      <point x="954" y="990"/>
      <point x="755" y="990" type="curve" smooth="yes"/>
      <point x="640" y="990"/>
      <point x="509" y="943"/>
      <point x="398" y="822" type="curve"/>
      <point x="441" y="960" type="line"/>
      <point x="329" y="960" type="line"/>
      <point x="11" y="0" type="line"/>
      <point x="123" y="0" type="line"/>
      <point x="313" y="570" type="line"/>
      <point x="379" y="775"/>
      <point x="537" y="885"/>
      <point x="697" y="885" type="curve" smooth="yes"/>
      <point x="871" y="885"/>
      <point x="971" y="781"/>
      <point x="918" y="612" type="curve"/>
      <point x="658" y="-174" type="line"/>
      <point x="624" y="-287"/>
      <point x="573" y="-342"/>
      <point x="489" y="-342" type="curve" smooth="yes"/>
      <point x="438" y="-342"/>
      <point x="410" y="-333"/>
      <point x="369" y="-308" type="curve"/>
      <point x="303" y="-401" type="line"/>
      <point x="361" y="-433"/>
      <point x="424" y="-450"/>
    </contour>
  </outline>
</glyph>
<glyph name="OE" format="2">
  <advance width="2440"/>
  <unicode hex="0152"/>
  <outline>
    <contour>
      <point x="798" y="-30" type="curve" smooth="yes"/>
      <point x="1028" y="-30"/>
      <point x="1244" y="52"/>
      <point x="1404" y="217" type="curve"/>
      <point x="1394" y="242" type="line"/>
      <point x="1300" y="0" type="line"/>
      <point x="2130" y="0" type="line"/>
      <point x="2165" y="108" type="line"/>
      <point x="1451" y="108" type="line"/>
      <point x="1644" y="688" type="line"/>
      <point x="2272" y="688" type="line"/>
      <point x="2307" y="796" type="line"/>
      <point x="1679" y="796" type="line"/>
      <point x="1844" y="1292" type="line"/>
      <point x="2552" y="1292" type="line"/>
      <point x="2587" y="1400" type="line"/>
      <point x="1763" y="1400" type="line"/>
      <point x="1628" y="962" type="line"/>
      <point x="1654" y="975" type="line"/>
      <point x="1579" y="1284"/>
      <point x="1309" y="1430"/>
      <point x="1032" y="1430" type="curve" smooth="yes"/>
      <point x="574" y="1430"/>
      <point x="184" y="1019"/>
      <point x="184" y="559" type="curve" smooth="yes"/>
      <point x="184" y="224"/>
      <point x="424" y="-30"/>
    </contour>
    <contour>
      <point x="826" y="82" type="curve" smooth="yes"/>
      <point x="518" y="82"/>
      <point x="304" y="275"/>
      <point x="304" y="572" type="curve" smooth="yes"/>
      <point x="304" y="953"/>
      <point x="605" y="1318"/>
      <point x="1026" y="1318" type="curve" smooth="yes"/>
      <point x="1346" y="1318"/>
      <point x="1544" y="1116"/>
      <point x="1544" y="825" type="curve" smooth="yes"/>
      <point x="1544" y="425"/>
      <point x="1233" y="82"/>
    </contour>
  </outline>
</glyph>
<glyph name="oe" format="2">
  <advance width="1998"/>
  <unicode hex="0153"/>
  <outline>
    <contour>
      <point x="540" y="-30" type="qcurve"/>
      <point x="401" y="-30"/>
      <point x="194" y="92"/>
      <point x="80" y="298"/>
      <point x="80" y="424" type="qcurve"/>
      <point x="80" y="538"/>
      <point x="170" y="742"/>
      <point x="327" y="900"/>
      <point x="531" y="990"/>
      <point x="644" y="990" type="qcurve"/>
      <point x="782" y="990"/>
      <point x="987" y="867"/>
      <point x="1100" y="662"/>
      <point x="1100" y="538" type="qcurve"/>
      <point x="1100" y="423"/>
      <point x="1011" y="218"/>
      <point x="855" y="60"/>
      <point x="653" y="-30"/>
    </contour>
    <contour>
      <point x="554" y="78" type="qcurve"/>
      <point x="683" y="78"/>
      <point x="877" y="204"/>
      <point x="984" y="414"/>
      <point x="984" y="540" type="qcurve"/>
      <point x="984" y="645"/>
      <point x="896" y="799"/>
      <point x="737" y="882"/>
      <point x="630" y="882" type="qcurve"/>
      <point x="501" y="882"/>
      <point x="308" y="756"/>
      <point x="200" y="546"/>
      <point x="200" y="420" type="qcurve"/>
      <point x="200" y="315"/>
      <point x="287" y="162"/>
      <point x="446" y="78"/>
    </contour>
    <contour>
      <point x="1444" y="-30" type="qcurve"/>
      <point x="1302" y="-30"/>
      <point x="1092" y="79"/>
      <point x="976" y="274"/>
      <point x="976" y="404" type="qcurve"/>
      <point x="976" y="526"/>
      <point x="1062" y="738"/>
      <point x="1214" y="899"/>
      <point x="1413" y="990"/>
      <point x="1526" y="990" type="qcurve"/>
      <point x="1677" y="990"/>
      <point x="1878" y="843"/>
      <point x="1953" y="605"/>
      <point x="1914" y="468" type="qcurve"/>
      <point x="1098" y="468" type="line"/>
      <point x="1075" y="349"/>
      <point x="1157" y="174"/>
      <point x="1337" y="78"/>
      <point x="1462" y="78" type="qcurve"/>
      <point x="1533" y="78"/>
      <point x="1676" y="122"/>
      <point x="1734" y="164" type="qcurve"/>
      <point x="1782" y="66" type="line"/>
      <point x="1731" y="33"/>
      <point x="1617" y="-9"/>
      <point x="1500" y="-30"/>
    </contour>
    <contour>
      <point x="1118" y="572" type="qcurve"/>
      <point x="1812" y="572" type="line"/>
      <point x="1823" y="724"/>
      <point x="1667" y="882"/>
      <point x="1506" y="882" type="qcurve"/>
      <point x="1361" y="882"/>
      <point x="1154" y="719"/>
    </contour>
  </outline>
</glyph>
<glyph name="Uogonek" format="2">
  <advance width="1444"/>
  <unicode hex="0172"/>
  <anchor x="918" y="1400" name="top"/>
  <outline>
    <contour>
      <point x="698" y="-450" type="qcurve"/>
      <point x="616" y="-450"/>
      <point x="518" y="-360"/>
      <point x="518" y="-276" type="qcurve"/>
      <point x="518" y="-210"/>
      <point x="591" y="-82"/>
      <point x="652" y="-30" type="qcurve"/>
      <point x="480" y="-29"/>
      <point x="253" y="112"/>
      <point x="164" y="358"/>
      <point x="198" y="516" type="qcurve"/>
      <point x="386" y="1400" type="line"/>
      <point x="502" y="1400" type="line"/>
      <point x="318" y="532" type="line"/>
      <point x="273" y="321"/>
      <point x="454" y="82"/>
      <point x="668" y="82" type="qcurve"/>
      <point x="845" y="82"/>
      <point x="1101" y="298"/>
      <point x="1150" y="532" type="qcurve"/>
      <point x="1334" y="1400" type="line"/>
      <point x="1450" y="1400" type="line"/>
      <point x="1262" y="516" type="line"/>
      <point x="1225" y="338"/>
      <point x="1030" y="68"/>
      <point x="876" y="9" type="qcurve"/>
      <point x="769" y="-36"/>
      <point x="644" y="-172"/>
      <point x="644" y="-253" type="qcurve"/>
      <point x="644" y="-302"/>
      <point x="689" y="-343"/>
      <point x="730" y="-343" type="qcurve"/>
      <point x="760" y="-343"/>
      <point x="810" y="-328"/>
      <point x="831" y="-313" type="qcurve"/>
      <point x="853" y="-409" type="line"/>
      <point x="819" y="-429"/>
      <point x="740" y="-450"/>
    </contour>
  </outline>
</glyph>
<glyph name="Schwa" format="2">
  <advance width="1619"/>
  <unicode hex="018F"/>
  <outline>
    <contour>
      <point x="743" y="-30" type="curve" smooth="yes"/>
      <point x="1217" y="-30"/>
      <point x="1587" y="394"/>
      <point x="1587" y="870" type="curve" smooth="yes"/>
      <point x="1587" y="1201"/>
      <point x="1358" y="1430"/>
      <point x="963" y="1430" type="curve" smooth="yes"/>
      <point x="779" y="1430"/>
      <point x="601" y="1373"/>
      <point x="452" y="1291" type="curve"/>
      <point x="495" y="1194" type="line"/>
      <point x="616" y="1274"/>
      <point x="774" y="1318"/>
      <point x="929" y="1318" type="curve" smooth="yes"/>
      <point x="1275" y="1318"/>
      <point x="1467" y="1143"/>
      <point x="1467" y="864" type="curve" smooth="yes"/>
      <point x="1467" y="465"/>
      <point x="1184" y="82"/>
      <point x="768" y="82" type="curve" smooth="yes"/>
      <point x="449" y="82"/>
      <point x="199" y="354"/>
      <point x="310" y="637" type="curve"/>
      <point x="249" y="602" type="line"/>
      <point x="1457" y="602" type="line"/>
      <point x="1491" y="710" type="line"/>
      <point x="188" y="710" type="line"/>
      <point x="93" y="287"/>
      <point x="314" y="-30"/>
    </contour>
  </outline>
</glyph>
<glyph name="florin" format="2">
  <advance width="1298"/>
  <unicode hex="0192"/>
  <outline>
    <contour>
      <point x="200" y="-451" type="qcurve" smooth="yes"/>
      <point x="135" y="-451"/>
      <point x="26" y="-418"/>
      <point x="-19" y="-389" type="qcurve"/>
      <point x="26" y="-221" type="line"/>
      <point x="51" y="-244"/>
      <point x="138" y="-280"/>
      <point x="182" y="-280" type="qcurve" smooth="yes"/>
      <point x="265" y="-280"/>
      <point x="357" y="-190"/>
      <point x="382" y="-78" type="qcurve" smooth="yes"/>
      <point x="640" y="1064" type="line" smooth="yes"/>
      <point x="682" y="1250"/>
      <point x="870" y="1430"/>
      <point x="1021" y="1430" type="qcurve" smooth="yes"/>
      <point x="1087" y="1430"/>
      <point x="1195" y="1397"/>
      <point x="1239" y="1367" type="qcurve"/>
      <point x="1195" y="1200" type="line"/>
      <point x="1171" y="1223"/>
      <point x="1083" y="1258"/>
      <point x="1038" y="1258" type="qcurve" smooth="yes"/>
      <point x="956" y="1258"/>
      <point x="864" y="1169"/>
      <point x="838" y="1056" type="qcurve" smooth="yes"/>
      <point x="580" y="-85" type="line" smooth="yes"/>
      <point x="539" y="-270"/>
      <point x="349" y="-451"/>
    </contour>
    <contour>
      <point x="165" y="615" type="line"/>
      <point x="196" y="760" type="line"/>
      <point x="1163" y="760" type="line"/>
      <point x="1132" y="615" type="line"/>
    </contour>
  </outline>
</glyph>
<glyph name="Oogonek" format="2">
  <advance width="1707"/>
  <unicode hex="01EA"/>
  <anchor x="1102" y="1400" name="top"/>
  <outline>
    <contour>
      <point x="681" y="-450" type="curve" smooth="yes"/>
      <point x="737" y="-450"/>
      <point x="787" y="-437"/>
      <point x="832" y="-409" type="curve"/>
      <point x="821" y="-313" type="line"/>
      <point x="794" y="-335"/>
      <point x="762" y="-345"/>
      <point x="722" y="-345" type="curve" smooth="yes"/>
      <point x="677" y="-345"/>
      <point x="642" y="-333"/>
      <point x="641" y="-267" type="curve" smooth="yes"/>
      <point x="639" y="-185"/>
      <point x="733" y="-90"/>
      <point x="964" y="-16" type="curve"/>
      <point x="946" y="52" type="line"/>
      <point x="664" y="-17"/>
      <point x="510" y="-170"/>
      <point x="512" y="-288" type="curve"/>
      <point x="513" y="-403"/>
      <point x="585" y="-450"/>
    </contour>
    <contour>
      <point x="811" y="-30" type="curve" smooth="yes"/>
      <point x="1269" y="-30"/>
      <point x="1669" y="374"/>
      <point x="1669" y="828" type="curve" smooth="yes"/>
      <point x="1669" y="1171"/>
      <point x="1423" y="1430"/>
      <point x="1040" y="1430" type="curve" smooth="yes"/>
      <point x="581" y="1430"/>
      <point x="185" y="1029"/>
      <point x="185" y="566" type="curve" smooth="yes"/>
      <point x="185" y="224"/>
      <point x="431" y="-30"/>
    </contour>
    <contour>
      <point x="830" y="82" type="curve" smooth="yes"/>
      <point x="522" y="82"/>
      <point x="309" y="278"/>
      <point x="309" y="575" type="curve" smooth="yes"/>
      <point x="309" y="969"/>
      <point x="616" y="1318"/>
      <point x="1024" y="1318" type="curve" smooth="yes"/>
      <point x="1338" y="1318"/>
      <point x="1546" y="1122"/>
      <point x="1546" y="825" type="curve" smooth="yes"/>
      <point x="1546" y="431"/>
      <point x="1238" y="82"/>
    </contour>
  </outline>
</glyph>
<glyph name="oogonek" format="2">
  <advance width="1184"/>
  <unicode hex="01EB"/>
  <anchor x="668" y="960" name="top"/>
  <outline>
    <contour>
      <point x="493" y="-450" type="qcurve"/>
      <point x="411" y="-450"/>
      <point x="313" y="-360"/>
      <point x="313" y="-276" type="qcurve"/>
      <point x="313" y="-209"/>
      <point x="402" y="-79"/>
      <point x="482" y="-27" type="qcurve"/>
      <point x="360" y="-14"/>
      <point x="179" y="112"/>
      <point x="80" y="307"/>
      <point x="80" y="424" type="qcurve"/>
      <point x="80" y="538"/>
      <point x="170" y="742"/>
      <point x="327" y="900"/>
      <point x="531" y="990"/>
      <point x="644" y="990" type="qcurve"/>
      <point x="783" y="990"/>
      <point x="990" y="867"/>
      <point x="1104" y="662"/>
      <point x="1104" y="538" type="qcurve"/>
      <point x="1104" y="414"/>
      <point x="998" y="197"/>
      <point x="818" y="36"/>
      <point x="705" y="-4" type="qcurve"/>
      <point x="571" y="-52"/>
      <point x="439" y="-179"/>
      <point x="439" y="-253" type="qcurve"/>
      <point x="439" y="-302"/>
      <point x="484" y="-343"/>
      <point x="525" y="-343" type="qcurve"/>
      <point x="555" y="-343"/>
      <point x="605" y="-328"/>
      <point x="626" y="-313" type="qcurve"/>
      <point x="648" y="-409" type="line"/>
      <point x="614" y="-429"/>
      <point x="535" y="-450"/>
    </contour>
    <contour>
      <point x="554" y="78" type="qcurve"/>
      <point x="683" y="78"/>
      <point x="877" y="204"/>
      <point x="984" y="414"/>
      <point x="984" y="540" type="qcurve"/>
      <point x="984" y="645"/>
      <point x="896" y="799"/>
      <point x="737" y="882"/>
      <point x="630" y="882" type="qcurve"/>
      <point x="501" y="882"/>
      <point x="308" y="756"/>
      <point x="200" y="546"/>
      <point x="200" y="420" type="qcurve"/>
      <point x="200" y="315"/>
      <point x="287" y="162"/>
      <point x="446" y="78"/>
    </contour>
  </outline>
</glyph>
<glyph name="dotlessj" format="2">
  <advance width="452"/>
  <unicode hex="0237"/>
  <anchor x="328" y="960" name="top"/>
  <outline>
    <contour>
      <point x="-126" y="-450" type="qcurve"/>
      <point x="-180" y="-450"/>
      <point x="-269" y="-420"/>
      <point x="-299" y="-402" type="qcurve"/>
      <point x="-242" y="-310" type="line"/>
      <point x="-221" y="-323"/>
      <point x="-169" y="-342"/>
      <point x="-124" y="-342" type="qcurve"/>
      <point x="-56" y="-342"/>
      <point x="12" y="-258"/>
      <point x="30" y="-174" type="qcurve"/>
      <point x="272" y="960" type="line"/>
      <point x="384" y="960" type="line"/>
      <point x="138" y="-194" type="line"/>
      <point x="120" y="-279"/>
      <point x="47" y="-393"/>
      <point x="-59" y="-450"/>
    </contour>
  </outline>
</glyph>
<glyph name="jdotless" format="2">
  <advance width="452"/>
  <unicode hex="0237"/>
  <anchor x="385" y="960" name="top"/>
  <outline>
    <contour>
      <point x="-227" y="-450" type="curve" smooth="yes"/>
      <point x="-98" y="-450"/>
      <point x="1" y="-369"/>
      <point x="57" y="-194" type="curve"/>
      <point x="441" y="960" type="line"/>
      <point x="329" y="960" type="line"/>
      <point x="-49" y="-174" type="line" smooth="yes"/>
      <point x="-86" y="-287"/>
      <point x="-131" y="-342"/>
      <point x="-215" y="-342" type="curve" smooth="yes"/>
      <point x="-279" y="-342"/>
      <point x="-310" y="-327"/>
      <point x="-335" y="-308" type="curve"/>
      <point x="-403" y="-398" type="line"/>
      <point x="-363" y="-424"/>
      <point x="-301" y="-450"/>
    </contour>
  </outline>
</glyph>
<glyph name="schwa" format="2">
  <advance width="1113"/>
  <unicode hex="0259"/>
  <outline>
    <contour>
      <point x="489" y="-30" type="qcurve"/>
      <point x="376" y="-30"/>
      <point x="203" y="49"/>
      <point x="95" y="193"/>
      <point x="60" y="387"/>
      <point x="85" y="502" type="qcurve"/>
      <point x="931" y="502" type="line"/>
      <point x="905" y="398" type="line"/>
      <point x="147" y="398" type="line"/>
      <point x="201" y="438" type="line"/>
      <point x="182" y="270"/>
      <point x="345" y="78"/>
      <point x="505" y="78" type="qcurve"/>
      <point x="634" y="78"/>
      <point x="815" y="209"/>
      <point x="909" y="418"/>
      <point x="909" y="536" type="qcurve"/>
      <point x="909" y="647"/>
      <point x="821" y="801"/>
      <point x="662" y="882"/>
      <point x="555" y="882" type="qcurve"/>
      <point x="473" y="882"/>
      <point x="326" y="836"/>
      <point x="267" y="794" type="qcurve"/>
      <point x="227" y="886" type="line"/>
      <point x="275" y="921"/>
      <point x="386" y="967"/>
      <point x="508" y="990"/>
      <point x="571" y="990" type="qcurve"/>
      <point x="715" y="990"/>
      <point x="923" y="885"/>
      <point x="1035" y="689"/>
      <point x="1035" y="552" type="qcurve"/>
      <point x="1035" y="438"/>
      <point x="954" y="229"/>
      <point x="807" y="65"/>
      <point x="608" y="-30"/>
    </contour>
  </outline>
</glyph>
<glyph name="gravecomb" format="2">
  <unicode hex="0300"/>
  <anchor x="-678" y="984" name="top"/>
  <outline>
    <contour>
      <point x="-705" y="1170" type="line"/>
      <point x="-842" y="1516" type="line"/>
      <point x="-640" y="1516" type="line"/>
      <point x="-521" y="1170" type="line"/>
    </contour>
  </outline>
</glyph>
<glyph name="acutecomb" format="2">
  <unicode hex="0301"/>
  <anchor x="-678" y="984" name="top"/>
  <outline>
    <contour>
      <point x="-744" y="1170" type="line"/>
      <point x="-489" y="1516" type="line"/>
      <point x="-280" y="1516" type="line"/>
      <point x="-554" y="1170" type="line"/>
    </contour>
  </outline>
</glyph>
<glyph name="circumflexcomb" format="2">
  <unicode hex="0302"/>
  <anchor x="-666" y="960" name="top"/>
  <anchor x="-564" y="1444" name="top.1"/>
  <outline>
    <contour>
      <point x="-938" y="1170" type="line"/>
      <point x="-608" y="1504" type="line"/>
      <point x="-480" y="1504" type="line"/>
      <point x="-314" y="1170" type="line"/>
      <point x="-426" y="1170" type="line"/>
      <point x="-554" y="1426" type="line"/>
      <point x="-806" y="1170" type="line"/>
    </contour>
  </outline>
</glyph>
<glyph name="tildecomb" format="2">
  <unicode hex="0303"/>
  <anchor x="-711" y="960" name="_top"/>
  <anchor x="-583" y="1344" name="top"/>
  <outline>
    <contour>
      <point x="-895" y="1216" type="line"/>
      <point x="-839" y="1296"/>
      <point x="-786" y="1340"/>
      <point x="-730" y="1340" type="curve" smooth="yes"/>
      <point x="-644" y="1340"/>
      <point x="-586" y="1236"/>
      <point x="-476" y="1236" type="curve" smooth="yes"/>
      <point x="-392" y="1236"/>
      <point x="-299" y="1302"/>
      <point x="-219" y="1414" type="curve"/>
      <point x="-277" y="1460" type="line"/>
      <point x="-328" y="1382"/>
      <point x="-386" y="1334"/>
      <point x="-442" y="1334" type="curve" smooth="yes"/>
      <point x="-528" y="1334"/>
      <point x="-586" y="1440"/>
      <point x="-696" y="1440" type="curve" smooth="yes"/>
      <point x="-786" y="1440"/>
      <point x="-879" y="1366"/>
      <point x="-953" y="1260" type="curve"/>
    </contour>
  </outline>
</glyph>
<glyph name="macroncomb" format="2">
  <unicode hex="0304"/>
  <anchor x="-496" y="984" name="top"/>
  <outline>
    <contour>
      <point x="-762" y="1230" type="line"/>
      <point x="-731" y="1372" type="line"/>
      <point x="-95" y="1372" type="line"/>
      <point x="-126" y="1230" type="line"/>
    </contour>
  </outline>
</glyph>
<glyph name="brevecomb" format="2">
  <unicode hex="0306"/>
  <anchor x="-711" y="960" name="_top"/>
  <anchor x="-561" y="1404" name="top"/>
  <outline>
    <contour>
      <point x="-599" y="1160" type="curve" smooth="yes"/>
      <point x="-412" y="1160"/>
      <point x="-247" y="1302"/>
      <point x="-218" y="1504" type="curve"/>
      <point x="-319" y="1504" type="line"/>
      <point x="-342" y="1353"/>
      <point x="-446" y="1256"/>
      <point x="-580" y="1256" type="curve" smooth="yes"/>
      <point x="-720" y="1256"/>
      <point x="-797" y="1340"/>
      <point x="-769" y="1504" type="curve"/>
      <point x="-875" y="1504" type="line"/>
      <point x="-901" y="1287"/>
      <point x="-798" y="1160"/>
    </contour>
  </outline>
</glyph>
<glyph name="dotaccentcomb" format="2">
  <unicode hex="0307"/>
  <anchor x="-495" y="984" name="top"/>
  <anchor x="-419" y="1344" name="top.1"/>
  <outline>
    <contour>
      <point x="-443" y="1166" type="qcurve" smooth="yes"/>
      <point x="-495" y="1166"/>
      <point x="-566" y="1231"/>
      <point x="-566" y="1281" type="qcurve" smooth="yes"/>
      <point x="-566" y="1343"/>
      <point x="-474" y="1424"/>
      <point x="-416" y="1424" type="qcurve" smooth="yes"/>
      <point x="-364" y="1424"/>
      <point x="-293" y="1360"/>
      <point x="-293" y="1309" type="qcurve" smooth="yes"/>
      <point x="-293" y="1249"/>
      <point x="-383" y="1166"/>
    </contour>
  </outline>
</glyph>
<glyph name="dieresiscomb" format="2">
  <unicode hex="0308"/>
  <anchor x="-683" y="960" name="_top"/>
  <anchor x="-577" y="1284" name="top"/>
  <outline>
    <contour>
      <point x="-787" y="1162" type="curve" smooth="yes"/>
      <point x="-732" y="1162"/>
      <point x="-671" y="1213"/>
      <point x="-671" y="1272" type="curve" smooth="yes"/>
      <point x="-671" y="1314"/>
      <point x="-704" y="1350"/>
      <point x="-749" y="1350" type="curve" smooth="yes"/>
      <point x="-804" y="1350"/>
      <point x="-865" y="1299"/>
      <point x="-865" y="1240" type="curve" smooth="yes"/>
      <point x="-865" y="1201"/>
      <point x="-833" y="1162"/>
    </contour>
    <contour>
      <point x="-423" y="1162" type="curve" smooth="yes"/>
      <point x="-368" y="1162"/>
      <point x="-307" y="1213"/>
      <point x="-307" y="1272" type="curve" smooth="yes"/>
      <point x="-307" y="1314"/>
      <point x="-340" y="1350"/>
      <point x="-385" y="1350" type="curve" smooth="yes"/>
      <point x="-440" y="1350"/>
      <point x="-501" y="1299"/>
      <point x="-501" y="1240" type="curve" smooth="yes"/>
      <point x="-501" y="1201"/>
      <point x="-469" y="1162"/>
    </contour>
  </outline>
</glyph>
<glyph name="hookabovecomb" format="2">
  <unicode hex="0309"/>
  <anchor x="-733" y="960" name="_top"/>
  <outline>
    <contour>
      <point x="-613" y="1170" type="line"/>
      <point x="-626" y="1254"/>
      <point x="-608" y="1274"/>
      <point x="-508" y="1308" type="curve"/>
      <point x="-425" y="1334"/>
      <point x="-325" y="1377"/>
      <point x="-325" y="1483" type="curve" smooth="yes"/>
      <point x="-325" y="1591"/>
      <point x="-455" y="1634"/>
      <point x="-587" y="1634" type="curve" smooth="yes"/>
      <point x="-642" y="1634"/>
      <point x="-700" y="1624"/>
      <point x="-751" y="1608" type="curve"/>
      <point x="-745" y="1527" type="line"/>
      <point x="-698" y="1543"/>
      <point x="-642" y="1550"/>
      <point x="-587" y="1550" type="curve" smooth="yes"/>
      <point x="-495" y="1550"/>
      <point x="-428" y="1514"/>
      <point x="-428" y="1459" type="curve" smooth="yes"/>
      <point x="-428" y="1391"/>
      <point x="-493" y="1377"/>
      <point x="-565" y="1360" type="curve" smooth="yes"/>
      <point x="-686" y="1331"/>
      <point x="-731" y="1273"/>
      <point x="-702" y="1170" type="curve"/>
    </contour>
  </outline>
</glyph>
<glyph name="ringcomb" format="2">
  <unicode hex="030A"/>
  <anchor x="-711" y="960" name="_top"/>
  <anchor x="-542" y="1464" name="top"/>
  <outline>
    <contour>
      <point x="-624" y="1100" type="curve" smooth="yes"/>
      <point x="-477" y="1100"/>
      <point x="-337" y="1213"/>
      <point x="-337" y="1363" type="curve" smooth="yes"/>
      <point x="-337" y="1478"/>
      <point x="-424" y="1566"/>
      <point x="-549" y="1566" type="curve" smooth="yes"/>
      <point x="-694" y="1566"/>
      <point x="-837" y="1446"/>
      <point x="-837" y="1298" type="curve" smooth="yes"/>
      <point x="-837" y="1184"/>
      <point x="-753" y="1100"/>
    </contour>
    <contour>
      <point x="-611" y="1188" type="curve" smooth="yes"/>
      <point x="-691" y="1188"/>
      <point x="-733" y="1240"/>
      <point x="-733" y="1307" type="curve" smooth="yes"/>
      <point x="-733" y="1393"/>
      <point x="-660" y="1473"/>
      <point x="-570" y="1473" type="curve" smooth="yes"/>
      <point x="-488" y="1473"/>
      <point x="-441" y="1428"/>
      <point x="-441" y="1357" type="curve" smooth="yes"/>
      <point x="-441" y="1268"/>
      <point x="-519" y="1188"/>
    </contour>
  </outline>
</glyph>
<glyph name="hungarumlautcomb" format="2">
  <unicode hex="030B"/>
  <anchor x="-678" y="984" name="top"/>
  <outline>
    <contour>
      <point x="-536" y="1170" type="line"/>
      <point x="-288" y="1516" type="line"/>
      <point x="-88" y="1516" type="line"/>
      <point x="-356" y="1170" type="line"/>
    </contour>
    <contour>
      <point x="-927" y="1170" type="line"/>
      <point x="-679" y="1516" type="line"/>
      <point x="-479" y="1516" type="line"/>
      <point x="-747" y="1170" type="line"/>
    </contour>
  </outline>
</glyph>
<glyph name="caroncomb" format="2">
  <unicode hex="030C"/>
  <anchor x="-711" y="960" name="_top"/>
  <outline>
    <contour>
      <point x="-588" y="1170" type="line"/>
      <point x="-213" y="1504" type="line"/>
      <point x="-344" y="1504" type="line"/>
      <point x="-633" y="1248" type="line"/>
      <point x="-730" y="1504" type="line"/>
      <point x="-838" y="1504" type="line"/>
      <point x="-707" y="1170" type="line"/>
    </contour>
  </outline>
</glyph>
<glyph name="dblgravecomb" format="2">
  <unicode hex="030F"/>
  <anchor x="-711" y="960" name="_top"/>
  <outline>
    <contour>
      <point x="-418" y="1170" type="line"/>
      <point x="-494" y="1504" type="line"/>
      <point x="-608" y="1504" type="line"/>
      <point x="-520" y="1170" type="line"/>
    </contour>
    <contour>
      <point x="-755" y="1170" type="line"/>
      <point x="-837" y="1504" type="line"/>
      <point x="-951" y="1504" type="line"/>
      <point x="-857" y="1170" type="line"/>
    </contour>
  </outline>
</glyph>
<glyph name="breveinvertedcomb" format="2">
  <unicode hex="0311"/>
  <anchor x="-668" y="960" name="top"/>
  <outline>
    <contour>
      <point x="-940" y="1170" type="line"/>
      <point x="-933" y="1271"/>
      <point x="-834" y="1426"/>
      <point x="-676" y="1514"/>
      <point x="-580" y="1514" type="qcurve"/>
      <point x="-480" y="1514"/>
      <point x="-339" y="1421"/>
      <point x="-274" y="1265"/>
      <point x="-288" y="1170" type="qcurve"/>
      <point x="-392" y="1170" type="line"/>
      <point x="-374" y="1278"/>
      <point x="-478" y="1418"/>
      <point x="-592" y="1418" type="qcurve"/>
      <point x="-692" y="1418"/>
      <point x="-831" y="1283"/>
      <point x="-840" y="1170" type="qcurve"/>
    </contour>
  </outline>
</glyph>
<glyph name="commaturnedabovecomb" format="2">
  <unicode hex="0312"/>
  <anchor x="-742" y="960" name="_top"/>
  <outline>
    <contour>
      <point x="-603" y="1244" type="curve" smooth="yes"/>
      <point x="-541" y="1244"/>
      <point x="-498" y="1280"/>
      <point x="-498" y="1336" type="curve" smooth="yes"/>
      <point x="-498" y="1379"/>
      <point x="-534" y="1406"/>
      <point x="-588" y="1410" type="curve"/>
      <point x="-559" y="1453"/>
      <point x="-492" y="1504"/>
      <point x="-381" y="1544" type="curve"/>
      <point x="-417" y="1609" type="line"/>
      <point x="-554" y="1565"/>
      <point x="-704" y="1472"/>
      <point x="-704" y="1342" type="curve" smooth="yes"/>
      <point x="-704" y="1274"/>
      <point x="-661" y="1244"/>
    </contour>
  </outline>
</glyph>
<glyph name="horncomb" format="2">
  <unicode hex="031B"/>
  <anchor x="-208" y="960" name="horn"/>
  <outline>
    <contour>
      <point x="-170" y="836" type="qcurve"/>
      <point x="-211" y="836"/>
      <point x="-310" y="864"/>
      <point x="-425" y="900"/>
      <point x="-558" y="925"/>
      <point x="-634" y="922" type="qcurve"/>
      <point x="-620" y="990" type="line"/>
      <point x="-529" y="990"/>
      <point x="-363" y="957"/>
      <point x="-231" y="923"/>
      <point x="-190" y="920" type="qcurve"/>
      <point x="-139" y="917"/>
      <point x="-72" y="957"/>
      <point x="-72" y="1002" type="qcurve"/>
      <point x="-72" y="1028"/>
      <point x="-92" y="1092"/>
      <point x="-118" y="1126" type="qcurve"/>
      <point x="-22" y="1166" type="line"/>
      <point x="8" y="1127"/>
      <point x="36" y="1050"/>
      <point x="36" y="1014" type="qcurve"/>
      <point x="36" y="966"/>
      <point x="-12" y="885"/>
      <point x="-104" y="836"/>
    </contour>
  </outline>
</glyph>
<glyph name="dotbelowcomb" format="2">
  <unicode hex="0323"/>
  <anchor x="-461" y="0" name="_bottom"/>
  <outline>
    <contour>
      <point x="-605" y="-472" type="curve" smooth="yes"/>
      <point x="-550" y="-472"/>
      <point x="-489" y="-421"/>
      <point x="-489" y="-362" type="curve" smooth="yes"/>
      <point x="-489" y="-320"/>
      <point x="-522" y="-284"/>
      <point x="-567" y="-284" type="curve" smooth="yes"/>
      <point x="-622" y="-284"/>
      <point x="-683" y="-335"/>
      <point x="-683" y="-394" type="curve" smooth="yes"/>
      <point x="-683" y="-433"/>
      <point x="-651" y="-472"/>
    </contour>
  </outline>
</glyph>
<glyph name="dieresisbelowcomb" format="2">
  <unicode hex="0324"/>
  <anchor x="-489" y="0" name="_bottom"/>
  <outline>
    <contour>
      <point x="-995" y="-390" type="curve" smooth="yes"/>
      <point x="-940" y="-390"/>
      <point x="-879" y="-339"/>
      <point x="-879" y="-280" type="curve" smooth="yes"/>
      <point x="-879" y="-238"/>
      <point x="-911" y="-202"/>
      <point x="-957" y="-202" type="curve" smooth="yes"/>
      <point x="-1012" y="-202"/>
      <point x="-1073" y="-253"/>
      <point x="-1073" y="-312" type="curve" smooth="yes"/>
      <point x="-1073" y="-351"/>
      <point x="-1040" y="-390"/>
    </contour>
    <contour>
      <point x="-221" y="-390" type="curve" smooth="yes"/>
      <point x="-166" y="-390"/>
      <point x="-105" y="-339"/>
      <point x="-105" y="-280" type="curve" smooth="yes"/>
      <point x="-105" y="-238"/>
      <point x="-138" y="-202"/>
      <point x="-184" y="-202" type="curve" smooth="yes"/>
      <point x="-239" y="-202"/>
      <point x="-300" y="-253"/>
      <point x="-300" y="-312" type="curve" smooth="yes"/>
      <point x="-300" y="-351"/>
      <point x="-267" y="-390"/>
    </contour>
  </outline>
</glyph>
<glyph name="commaaccentcomb" format="2">
  <unicode hex="0326"/>
  <anchor x="-503" y="-0" name="bottom"/>
  <outline>
    <contour>
      <point x="-773" y="-724" type="qcurve"/>
      <point x="-825" y="-636" type="line"/>
      <point x="-744" y="-603"/>
      <point x="-625" y="-522"/>
      <point x="-602" y="-481" type="qcurve"/>
      <point x="-639" y="-480"/>
      <point x="-697" y="-452"/>
      <point x="-731" y="-402"/>
      <point x="-731" y="-368" type="qcurve" smooth="yes"/>
      <point x="-731" y="-312"/>
      <point x="-651" y="-239"/>
      <point x="-591" y="-239" type="qcurve" smooth="yes"/>
      <point x="-528" y="-239"/>
      <point x="-448" y="-314"/>
      <point x="-448" y="-381" type="qcurve" smooth="yes"/>
      <point x="-448" y="-456"/>
      <point x="-539" y="-583"/>
      <point x="-687" y="-686"/>
    </contour>
  </outline>
</glyph>
<glyph name="cedillacomb" format="2">
  <unicode hex="0327"/>
  <anchor x="-542" y="0" name="bottom"/>
  <outline>
    <contour>
      <point x="-626" y="-448" type="qcurve"/>
      <point x="-692" y="-448"/>
      <point x="-797" y="-413"/>
      <point x="-838" y="-382" type="qcurve"/>
      <point x="-786" y="-302" type="line"/>
      <point x="-769" y="-324"/>
      <point x="-674" y="-360"/>
      <point x="-626" y="-360" type="qcurve"/>
      <point x="-579" y="-360"/>
      <point x="-488" y="-319"/>
      <point x="-488" y="-264" type="qcurve"/>
      <point x="-488" y="-220"/>
      <point x="-587" y="-181"/>
      <point x="-646" y="-184" type="qcurve"/>
      <point x="-668" y="-126" type="line"/>
      <point x="-578" y="40" type="line"/>
      <point x="-496" y="40" type="line"/>
      <point x="-570" y="-96" type="line"/>
      <point x="-486" y="-106"/>
      <point x="-378" y="-186"/>
      <point x="-378" y="-254" type="qcurve"/>
      <point x="-378" y="-316"/>
      <point x="-449" y="-403"/>
      <point x="-563" y="-448"/>
    </contour>
  </outline>
</glyph>
<glyph name="ogonekcomb" format="2">
  <unicode hex="0328"/>
  <outline>
    <contour>
      <point x="-695" y="-450" type="qcurve" smooth="yes"/>
      <point x="-784" y="-450"/>
      <point x="-892" y="-352"/>
      <point x="-892" y="-264" type="qcurve" smooth="yes"/>
      <point x="-892" y="-182"/>
      <point x="-781" y="-43"/>
      <point x="-587" y="58"/>
      <point x="-464" y="82" type="qcurve"/>
      <point x="-446" y="0" type="line"/>
      <point x="-534" y="-23"/>
      <point x="-663" y="-86"/>
      <point x="-733" y="-170"/>
      <point x="-733" y="-225" type="qcurve" smooth="yes"/>
      <point x="-733" y="-269"/>
      <point x="-688" y="-309"/>
      <point x="-650" y="-309" type="qcurve" smooth="yes"/>
      <point x="-621" y="-309"/>
      <point x="-568" y="-293"/>
      <point x="-546" y="-277" type="qcurve"/>
      <point x="-518" y="-403" type="line"/>
      <point x="-559" y="-427"/>
      <point x="-649" y="-450"/>
    </contour>
  </outline>
</glyph>
<glyph name="brevebelowcomb" format="2">
  <unicode hex="032E"/>
  <anchor x="-458" y="0" name="_bottom"/>
  <outline>
    <contour>
      <point x="-599" y="-554" type="curve" smooth="yes"/>
      <point x="-412" y="-554"/>
      <point x="-247" y="-412"/>
      <point x="-218" y="-210" type="curve"/>
      <point x="-319" y="-210" type="line"/>
      <point x="-342" y="-361"/>
      <point x="-446" y="-458"/>
      <point x="-580" y="-458" type="curve" smooth="yes"/>
      <point x="-729" y="-458"/>
      <point x="-797" y="-364"/>
      <point x="-769" y="-210" type="curve"/>
      <point x="-871" y="-210" type="line"/>
      <point x="-917" y="-402"/>
      <point x="-804" y="-554"/>
    </contour>
  </outline>
</glyph>
<glyph name="macronbelowcomb" format="2">
  <unicode hex="0331"/>
  <anchor x="-705" y="-0" name="bottom"/>
  <outline>
    <contour>
      <point x="-1106" y="-388" type="line"/>
      <point x="-1075" y="-246" type="line"/>
      <point x="-439" y="-246" type="line"/>
      <point x="-470" y="-388" type="line"/>
    </contour>
  </outline>
</glyph>
<glyph name="strokeshortcomb" format="2">
  <unicode hex="0335"/>
  <anchor x="-586" y="520" name="_bar"/>
  <outline>
    <contour>
      <point x="-291" y="468" type="line"/>
      <point x="-263" y="572" type="line"/>
      <point x="-883" y="572" type="line"/>
      <point x="-911" y="468" type="line"/>
    </contour>
  </outline>
</glyph>
<glyph name="lowernumeral-greek" format="2">
  <advance width="422"/>
  <unicode hex="0375"/>
  <outline>
    <contour>
      <point x="-126" y="-420" type="line"/>
      <point x="100" y="-12" type="line"/>
      <point x="12" y="-12" type="line"/>
      <point x="-236" y="-420" type="line"/>
    </contour>
  </outline>
</glyph>
<glyph name="tonos" format="2">
  <advance width="454"/>
  <unicode hex="0384"/>
  <outline>
    <contour>
      <point x="284" y="1170" type="line"/>
      <point x="486" y="1504" type="line"/>
      <point x="606" y="1504" type="line"/>
      <point x="392" y="1170" type="line"/>
    </contour>
  </outline>
</glyph>
<glyph name="dieresistonos" format="2">
  <unicode hex="0385"/>
  <outline>
    <contour>
      <point x="-627" y="1250" type="line"/>
      <point x="-499" y="1564" type="line"/>
      <point x="-329" y="1564" type="line"/>
      <point x="-488" y="1250" type="line"/>
    </contour>
    <contour>
      <point x="-809" y="1170" type="qcurve" smooth="yes"/>
      <point x="-856" y="1170"/>
      <point x="-916" y="1232"/>
      <point x="-916" y="1278" type="qcurve" smooth="yes"/>
      <point x="-916" y="1336"/>
      <point x="-834" y="1413"/>
      <point x="-782" y="1413" type="qcurve" smooth="yes"/>
      <point x="-735" y="1413"/>
      <point x="-676" y="1352"/>
      <point x="-676" y="1305" type="qcurve" smooth="yes"/>
      <point x="-676" y="1247"/>
      <point x="-757" y="1170"/>
    </contour>
    <contour>
      <point x="-276" y="1170" type="qcurve" smooth="yes"/>
      <point x="-323" y="1170"/>
      <point x="-383" y="1232"/>
      <point x="-383" y="1278" type="qcurve" smooth="yes"/>
      <point x="-383" y="1336"/>
      <point x="-301" y="1413"/>
      <point x="-249" y="1413" type="qcurve" smooth="yes"/>
      <point x="-202" y="1413"/>
      <point x="-142" y="1352"/>
      <point x="-142" y="1305" type="qcurve" smooth="yes"/>
      <point x="-142" y="1247"/>
      <point x="-224" y="1170"/>
    </contour>
  </outline>
</glyph>
<glyph name="Delta" format="2">
  <advance width="1322"/>
  <unicode hex="0394"/>
  <outline>
    <contour>
      <point x="1123" y="0" type="line"/>
      <point x="1154" y="98" type="line"/>
      <point x="1003" y="1400" type="line"/>
      <point x="903" y="1400" type="line"/>
      <point x="-86" y="98" type="line"/>
      <point x="-117" y="0" type="line"/>
    </contour>
    <contour>
      <point x="905" y="1228" type="line"/>
      <point x="1027" y="108" type="line"/>
      <point x="61" y="108" type="line"/>
    </contour>
  </outline>
</glyph>
<glyph name="Theta" format="2">
  <advance width="1707"/>
  <unicode hex="0398"/>
  <outline>
    <contour>
      <point x="811" y="-30" type="curve" smooth="yes"/>
      <point x="1269" y="-30"/>
      <point x="1669" y="374"/>
      <point x="1669" y="828" type="curve" smooth="yes"/>
      <point x="1669" y="1171"/>
      <point x="1423" y="1430"/>
      <point x="1040" y="1430" type="curve" smooth="yes"/>
      <point x="581" y="1430"/>
      <point x="185" y="1029"/>
      <point x="185" y="566" type="curve" smooth="yes"/>
      <point x="185" y="224"/>
      <point x="431" y="-30"/>
    </contour>
    <contour>
      <point x="1242" y="652" type="line"/>
      <point x="1276" y="760" type="line"/>
      <point x="584" y="760" type="line"/>
      <point x="550" y="652" type="line"/>
    </contour>
    <contour>
      <point x="830" y="82" type="curve" smooth="yes"/>
      <point x="522" y="82"/>
      <point x="309" y="278"/>
      <point x="309" y="575" type="curve" smooth="yes"/>
      <point x="309" y="969"/>
      <point x="616" y="1318"/>
      <point x="1024" y="1318" type="curve" smooth="yes"/>
      <point x="1338" y="1318"/>
      <point x="1546" y="1122"/>
      <point x="1546" y="825" type="curve" smooth="yes"/>
      <point x="1546" y="431"/>
      <point x="1238" y="82"/>
    </contour>
  </outline>
</glyph>
<glyph name="Lambda" format="2">
  <advance width="1278"/>
  <unicode hex="039B"/>
  <outline>
    <contour>
      <point x="50" y="0" type="line"/>
      <point x="830" y="1218" type="line"/>
      <point x="982" y="0" type="line"/>
      <point x="1108" y="0" type="line"/>
      <point x="923" y="1400" type="line"/>
      <point x="823" y="1400" type="line"/>
      <point x="-88" y="0" type="line"/>
    </contour>
  </outline>
</glyph>
<glyph name="Xi" format="2">
  <advance width="1234"/>
  <unicode hex="039E"/>
  <outline>
    <contour>
      <point x="924" y="0" type="line"/>
      <point x="959" y="108" type="line"/>
      <point x="27" y="108" type="line"/>
      <point x="-8" y="0" type="line"/>
    </contour>
    <contour>
      <point x="1046" y="674" type="line"/>
      <point x="1084" y="782" type="line"/>
      <point x="352" y="782" type="line"/>
      <point x="314" y="674" type="line"/>
    </contour>
    <contour>
      <point x="1342" y="1292" type="line"/>
      <point x="1377" y="1400" type="line"/>
      <point x="465" y="1400" type="line"/>
      <point x="430" y="1292" type="line"/>
    </contour>
  </outline>
</glyph>
<glyph name="Sigma" format="2">
  <advance width="1118"/>
  <unicode hex="03A3"/>
  <outline>
    <contour>
      <point x="852" y="0" type="line"/>
      <point x="887" y="108" type="line"/>
      <point x="132" y="108" type="line"/>
      <point x="753" y="724" type="line"/>
      <point x="502" y="1292" type="line"/>
      <point x="1256" y="1292" type="line"/>
      <point x="1291" y="1400" type="line"/>
      <point x="409" y="1400" type="line"/>
      <point x="377" y="1302" type="line"/>
      <point x="623" y="740" type="line"/>
      <point x="-33" y="98" type="line"/>
      <point x="-64" y="0" type="line"/>
    </contour>
  </outline>
</glyph>
<glyph name="Psi" format="2">
  <advance width="1518"/>
  <unicode hex="03A8"/>
  <outline>
    <contour>
      <point x="659" y="0" type="line"/>
      <point x="780" y="360" type="line"/>
      <point x="1318" y="356"/>
      <point x="1576" y="708"/>
      <point x="1576" y="1413" type="curve" smooth="yes"/>
      <point x="1576" y="1417"/>
      <point x="1580" y="1421"/>
      <point x="1607" y="1420" type="curve"/>
      <point x="1484" y="1390" type="line"/>
      <point x="1457" y="1385"/>
      <point x="1452" y="1375"/>
      <point x="1452" y="1359" type="curve" smooth="yes"/>
      <point x="1452" y="851"/>
      <point x="1306" y="471"/>
      <point x="815" y="470" type="curve"/>
      <point x="1125" y="1400" type="line"/>
      <point x="1009" y="1400" type="line"/>
      <point x="701" y="478" type="line"/>
      <point x="535" y="507"/>
      <point x="397" y="582"/>
      <point x="397" y="756" type="curve" smooth="yes"/>
      <point x="397" y="975"/>
      <point x="498" y="1249"/>
      <point x="644" y="1390" type="curve"/>
      <point x="539" y="1420" type="line"/>
      <point x="388" y="1291"/>
      <point x="277" y="954"/>
      <point x="277" y="718" type="curve" smooth="yes"/>
      <point x="277" y="507"/>
      <point x="447" y="409"/>
      <point x="665" y="370" type="curve"/>
      <point x="543" y="0" type="line"/>
    </contour>
  </outline>
</glyph>
<glyph name="Omega" format="2">
  <advance width="1576"/>
  <unicode hex="03A9"/>
  <anchor x="629" y="0" name="bottom"/>
  <anchor x="450" y="1400" name="topleft"/>
  <outline>
    <contour>
      <point x="467" y="0" type="line"/>
      <point x="501" y="108" type="line"/>
      <point x="352" y="165"/>
      <point x="258" y="360"/>
      <point x="258" y="587" type="curve" smooth="yes"/>
      <point x="258" y="966"/>
      <point x="590" y="1318"/>
      <point x="1013" y="1318" type="curve" smooth="yes"/>
      <point x="1324" y="1318"/>
      <point x="1483" y="1144"/>
      <point x="1483" y="887" type="curve" smooth="yes"/>
      <point x="1483" y="532"/>
      <point x="1196" y="218"/>
      <point x="825" y="108" type="curve"/>
      <point x="791" y="0" type="line"/>
      <point x="1385" y="0" type="line"/>
      <point x="1419" y="108" type="line"/>
      <point x="1033" y="104" type="line"/>
      <point x="1354" y="234"/>
      <point x="1607" y="527"/>
      <point x="1607" y="900" type="curve" smooth="yes"/>
      <point x="1607" y="1200"/>
      <point x="1400" y="1430"/>
      <point x="1051" y="1430" type="curve" smooth="yes"/>
      <point x="535" y="1430"/>
      <point x="135" y="1035"/>
      <point x="135" y="569" type="curve" smooth="yes"/>
      <point x="135" y="386"/>
      <point x="191" y="193"/>
      <point x="346" y="104" type="curve"/>
      <point x="-93" y="108" type="line"/>
      <point x="-127" y="0" type="line"/>
    </contour>
  </outline>
</glyph>
<glyph name="alpha" format="2">
  <advance width="1312"/>
  <unicode hex="03B1"/>
  <anchor x="780" y="960" name="top"/>
  <outline>
    <contour>
      <point x="492" y="-30" type="qcurve"/>
      <point x="359" y="-30"/>
      <point x="174" y="84"/>
      <point x="78" y="282"/>
      <point x="78" y="408" type="qcurve"/>
      <point x="78" y="517"/>
      <point x="158" y="724"/>
      <point x="305" y="891"/>
      <point x="508" y="990"/>
      <point x="632" y="990" type="qcurve"/>
      <point x="752" y="990"/>
      <point x="915" y="906"/>
      <point x="1005" y="767"/>
      <point x="1014" y="684" type="qcurve"/>
      <point x="1128" y="960" type="line"/>
      <point x="1236" y="960" type="line"/>
      <point x="1056" y="520" type="line"/>
      <point x="1016" y="420"/>
      <point x="966" y="244"/>
      <point x="971" y="118"/>
      <point x="1055" y="67"/>
      <point x="1148" y="92" type="qcurve"/>
      <point x="1148" y="-8" type="line"/>
      <point x="1053" y="-37"/>
      <point x="921" y="-18"/>
      <point x="858" y="83"/>
      <point x="868" y="178" type="qcurve"/>
      <point x="802" y="76"/>
      <point x="609" y="-30"/>
    </contour>
    <contour>
      <point x="504" y="78" type="qcurve"/>
      <point x="613" y="78"/>
      <point x="772" y="190"/>
      <point x="889" y="377"/>
      <point x="934" y="490" type="qcurve"/>
      <point x="931" y="515"/>
      <point x="923" y="609"/>
      <point x="894" y="719"/>
      <point x="830" y="818"/>
      <point x="714" y="882"/>
      <point x="622" y="882" type="qcurve"/>
      <point x="493" y="882"/>
      <point x="303" y="744"/>
      <point x="198" y="527"/>
      <point x="198" y="408" type="qcurve"/>
      <point x="198" y="255"/>
      <point x="351" y="78"/>
    </contour>
  </outline>
</glyph>
<glyph name="beta" format="2">
  <advance width="1165"/>
  <unicode hex="03B2"/>
  <outline>
    <contour>
      <point x="-16" y="-420" type="line"/>
      <point x="177" y="175" type="line"/>
      <point x="207" y="41"/>
      <point x="391" y="-20"/>
      <point x="552" y="-20" type="curve" smooth="yes"/>
      <point x="865" y="-20"/>
      <point x="1055" y="192"/>
      <point x="1055" y="475" type="curve" smooth="yes"/>
      <point x="1055" y="632"/>
      <point x="992" y="731"/>
      <point x="882" y="768" type="curve"/>
      <point x="1069" y="835"/>
      <point x="1213" y="976"/>
      <point x="1213" y="1175" type="curve" smooth="yes"/>
      <point x="1213" y="1357"/>
      <point x="1086" y="1470"/>
      <point x="859" y="1470" type="curve" smooth="yes"/>
      <point x="633" y="1470"/>
      <point x="453" y="1351"/>
      <point x="368" y="1102" type="curve"/>
      <point x="-128" y="-420" type="line"/>
    </contour>
    <contour>
      <point x="574" y="88" type="curve" smooth="yes"/>
      <point x="325" y="88"/>
      <point x="193" y="239"/>
      <point x="271" y="461" type="curve"/>
      <point x="480" y="1093" type="line"/>
      <point x="549" y="1288"/>
      <point x="657" y="1362"/>
      <point x="843" y="1362" type="curve" smooth="yes"/>
      <point x="997" y="1362"/>
      <point x="1091" y="1298"/>
      <point x="1091" y="1161" type="curve" smooth="yes"/>
      <point x="1091" y="964"/>
      <point x="907" y="824"/>
      <point x="713" y="824" type="curve" smooth="yes"/>
      <point x="620" y="824" type="line"/>
      <point x="586" y="720" type="line"/>
      <point x="704" y="720" type="line" smooth="yes"/>
      <point x="847" y="720"/>
      <point x="935" y="636"/>
      <point x="935" y="460" type="curve" smooth="yes"/>
      <point x="935" y="252"/>
      <point x="828" y="88"/>
    </contour>
  </outline>
</glyph>
<glyph name="gamma" format="2">
  <advance width="1028"/>
  <unicode hex="03B3"/>
  <outline>
    <contour>
      <point x="259" y="-420" type="line"/>
      <point x="403" y="12" type="line"/>
      <point x="653" y="244"/>
      <point x="906" y="563"/>
      <point x="1110" y="960" type="curve"/>
      <point x="983" y="980" type="line"/>
      <point x="796" y="588"/>
      <point x="562" y="297"/>
      <point x="357" y="104" type="curve"/>
      <point x="387" y="104" type="line"/>
      <point x="319" y="960" type="line"/>
      <point x="201" y="960" type="line"/>
      <point x="285" y="-6" type="line"/>
      <point x="147" y="-420" type="line"/>
    </contour>
  </outline>
</glyph>
<glyph name="delta" format="2">
  <advance width="1127"/>
  <unicode hex="03B4"/>
  <outline>
    <contour>
      <point x="473" y="-30" type="curve" smooth="yes"/>
      <point x="810" y="-30"/>
      <point x="1043" y="236"/>
      <point x="1043" y="546" type="curve" smooth="yes"/>
      <point x="1043" y="794"/>
      <point x="903" y="886"/>
      <point x="774" y="954" type="curve" smooth="yes"/>
      <point x="655" y="1017"/>
      <point x="544" y="1082"/>
      <point x="544" y="1192" type="curve" smooth="yes"/>
      <point x="544" y="1315"/>
      <point x="682" y="1362"/>
      <point x="837" y="1362" type="curve" smooth="yes"/>
      <point x="933" y="1362"/>
      <point x="1016" y="1341"/>
      <point x="1095" y="1277" type="curve"/>
      <point x="1156" y="1382" type="line"/>
      <point x="1069" y="1446"/>
      <point x="965" y="1470"/>
      <point x="853" y="1470" type="curve" smooth="yes"/>
      <point x="575" y="1470"/>
      <point x="433" y="1327"/>
      <point x="433" y="1184" type="curve" smooth="yes"/>
      <point x="433" y="1082"/>
      <point x="506" y="1008"/>
      <point x="589" y="950" type="curve"/>
      <point x="293" y="877"/>
      <point x="71" y="674"/>
      <point x="71" y="358" type="curve" smooth="yes"/>
      <point x="71" y="122"/>
      <point x="220" y="-30"/>
    </contour>
    <contour>
      <point x="495" y="78" type="curve" smooth="yes"/>
      <point x="308" y="78"/>
      <point x="191" y="169"/>
      <point x="191" y="373" type="curve" smooth="yes"/>
      <point x="191" y="663"/>
      <point x="368" y="815"/>
      <point x="676" y="880" type="curve"/>
      <point x="802" y="823"/>
      <point x="921" y="749"/>
      <point x="921" y="533" type="curve" smooth="yes"/>
      <point x="921" y="301"/>
      <point x="763" y="78"/>
    </contour>
  </outline>
</glyph>
<glyph name="epsilon" format="2">
  <advance width="1007"/>
  <unicode hex="03B5"/>
  <anchor x="595" y="960" name="top"/>
  <outline>
    <contour>
      <point x="420" y="-30" type="curve" smooth="yes"/>
      <point x="551" y="-30"/>
      <point x="686" y="-4"/>
      <point x="834" y="71" type="curve"/>
      <point x="786" y="173" type="line"/>
      <point x="692" y="112"/>
      <point x="560" y="78"/>
      <point x="430" y="78" type="curve" smooth="yes"/>
      <point x="257" y="78"/>
      <point x="161" y="149"/>
      <point x="161" y="253" type="curve" smooth="yes"/>
      <point x="161" y="390"/>
      <point x="326" y="440"/>
      <point x="508" y="440" type="curve" smooth="yes"/>
      <point x="676" y="440" type="line"/>
      <point x="704" y="544" type="line"/>
      <point x="536" y="544" type="line" smooth="yes"/>
      <point x="400" y="544"/>
      <point x="307" y="597"/>
      <point x="307" y="699" type="curve" smooth="yes"/>
      <point x="307" y="827"/>
      <point x="455" y="880"/>
      <point x="625" y="880" type="curve" smooth="yes"/>
      <point x="753" y="880"/>
      <point x="854" y="858"/>
      <point x="917" y="808" type="curve"/>
      <point x="1000" y="906" type="line"/>
      <point x="910" y="964"/>
      <point x="768" y="988"/>
      <point x="633" y="988" type="curve" smooth="yes"/>
      <point x="395" y="988"/>
      <point x="189" y="889"/>
      <point x="189" y="710" type="curve" smooth="yes"/>
      <point x="189" y="608"/>
      <point x="256" y="553"/>
      <point x="342" y="510" type="curve"/>
      <point x="182" y="477"/>
      <point x="41" y="387"/>
      <point x="41" y="227" type="curve" smooth="yes"/>
      <point x="41" y="67"/>
      <point x="184" y="-30"/>
    </contour>
  </outline>
</glyph>
<glyph name="zeta" format="2">
  <advance width="886"/>
  <unicode hex="03B6"/>
  <outline>
    <contour>
      <point x="455" y="-436" type="line"/>
      <point x="577" y="-339"/>
      <point x="644" y="-225"/>
      <point x="644" y="-122" type="curve" smooth="yes"/>
      <point x="644" y="101"/>
      <point x="216" y="183"/>
      <point x="216" y="452" type="curve" smooth="yes"/>
      <point x="216" y="765"/>
      <point x="791" y="1126"/>
      <point x="1146" y="1344" type="curve"/>
      <point x="1181" y="1440" type="line"/>
      <point x="437" y="1440" type="line"/>
      <point x="402" y="1336" type="line"/>
      <point x="993" y="1336" type="line"/>
      <point x="614" y="1109"/>
      <point x="90" y="770"/>
      <point x="90" y="433" type="curve" smooth="yes"/>
      <point x="90" y="116"/>
      <point x="521" y="24"/>
      <point x="521" y="-162" type="curve" smooth="yes"/>
      <point x="521" y="-226"/>
      <point x="459" y="-316"/>
      <point x="352" y="-400" type="curve"/>
    </contour>
  </outline>
</glyph>
<glyph name="eta" format="2">
  <advance width="1156"/>
  <unicode hex="03B7"/>
  <anchor x="737" y="960" name="top"/>
  <outline>
    <contour>
      <point x="694" y="-420" type="line"/>
      <point x="1050" y="646" type="line"/>
      <point x="1116" y="858"/>
      <point x="941" y="990"/>
      <point x="750" y="990" type="curve" smooth="yes"/>
      <point x="636" y="990"/>
      <point x="504" y="940"/>
      <point x="398" y="822" type="curve"/>
      <point x="441" y="960" type="line"/>
      <point x="329" y="960" type="line"/>
      <point x="11" y="0" type="line"/>
      <point x="123" y="0" type="line"/>
      <point x="313" y="570" type="line"/>
      <point x="379" y="775"/>
      <point x="539" y="882"/>
      <point x="701" y="882" type="curve" smooth="yes"/>
      <point x="874" y="882"/>
      <point x="979" y="775"/>
      <point x="926" y="612" type="curve"/>
      <point x="582" y="-420" type="line"/>
    </contour>
  </outline>
</glyph>
<glyph name="theta" format="2">
  <advance width="1215"/>
  <unicode hex="03B8"/>
  <outline>
    <contour>
      <point x="519" y="-30" type="qcurve" smooth="yes"/>
      <point x="399" y="-30"/>
      <point x="223" y="80"/>
      <point x="127" y="295"/>
      <point x="127" y="453" type="qcurve" smooth="yes"/>
      <point x="127" y="597"/>
      <point x="179" y="887"/>
      <point x="284" y="1148"/>
      <point x="442" y="1352"/>
      <point x="656" y="1470"/>
      <point x="791" y="1470" type="qcurve" smooth="yes"/>
      <point x="913" y="1470"/>
      <point x="1090" y="1360"/>
      <point x="1185" y="1146"/>
      <point x="1185" y="988" type="qcurve" smooth="yes"/>
      <point x="1185" y="846"/>
      <point x="1134" y="557"/>
      <point x="1029" y="294"/>
      <point x="870" y="89"/>
      <point x="655" y="-30"/>
    </contour>
    <contour>
      <point x="542" y="148" type="qcurve" smooth="yes"/>
      <point x="683" y="148"/>
      <point x="880" y="387"/>
      <point x="930" y="637" type="qcurve"/>
      <point x="348" y="637" type="line"/>
      <point x="322" y="501"/>
      <point x="334" y="280"/>
      <point x="434" y="148"/>
    </contour>
    <contour>
      <point x="382" y="803" type="qcurve"/>
      <point x="964" y="803" type="line"/>
      <point x="990" y="938"/>
      <point x="979" y="1160"/>
      <point x="879" y="1292"/>
      <point x="771" y="1292" type="qcurve" smooth="yes"/>
      <point x="631" y="1292"/>
      <point x="432" y="1054"/>
    </contour>
  </outline>
</glyph>
<glyph name="iota" format="2">
  <advance width="576"/>
  <unicode hex="03B9"/>
  <anchor x="319" y="960" name="top"/>
  <outline>
    <contour>
      <point x="277" y="-30" type="qcurve"/>
      <point x="201" y="-30"/>
      <point x="112" y="30"/>
      <point x="85" y="135"/>
      <point x="101" y="204" type="qcurve"/>
      <point x="263" y="960" type="line"/>
      <point x="375" y="960" type="line"/>
      <point x="225" y="256" type="line"/>
      <point x="210" y="177"/>
      <point x="233" y="78"/>
      <point x="305" y="78" type="qcurve"/>
      <point x="329" y="78"/>
      <point x="386" y="89"/>
      <point x="419" y="98" type="qcurve"/>
      <point x="433" y="-6" type="line"/>
      <point x="390" y="-19"/>
      <point x="304" y="-30"/>
    </contour>
  </outline>
</glyph>
<glyph name="kappa" format="2">
  <advance width="1056"/>
  <unicode hex="03BA"/>
  <outline>
    <contour>
      <point x="123" y="0" type="line"/>
      <point x="235" y="340" type="line"/>
      <point x="495" y="526" type="line"/>
      <point x="676" y="0" type="line"/>
      <point x="807" y="0" type="line"/>
      <point x="593" y="598" type="line"/>
      <point x="681" y="664" type="line" smooth="yes"/>
      <point x="874" y="810"/>
      <point x="971" y="888"/>
      <point x="1063" y="867" type="curve"/>
      <point x="1068" y="973" type="line"/>
      <point x="969" y="996"/>
      <point x="838" y="905"/>
      <point x="620" y="745" type="curve" smooth="yes"/>
      <point x="285" y="500" type="line"/>
      <point x="441" y="960" type="line"/>
      <point x="329" y="960" type="line"/>
      <point x="11" y="0" type="line"/>
    </contour>
  </outline>
</glyph>
